InterAlia-Italic.ufo
<glyph name="percent" format="2">
  <advance height="2479" width="1664"/>
  <unicode hex="0025"/>
  <anchor x="1108" y="791" name="dnom"/>
  <anchor x="599" y="698" name="numr"/>
  <outline>
    <contour>
      <point x="867" y="279" type="line" smooth="yes"/>
      <point x="837" y="117"/>
      <point x="919" y="-20"/>
      <point x="1108" y="-20" type="curve" smooth="yes"/>
      <point x="1295" y="-20"/>
      <point x="1416" y="117"/>
      <point x="1446" y="279" type="curve" smooth="yes"/>
      <point x="1460" y="358" type="line" smooth="yes"/>
      <point x="1490" y="520"/>
      <point x="1411" y="657"/>
      <point x="1222" y="657" type="curve" smooth="yes"/>
      <point x="1036" y="657"/>
      <point x="911" y="520"/>
      <point x="881" y="358" type="curve" smooth="yes"/>
    </contour>
    <contour>
      <point x="1030" y="358" type="line" smooth="yes"/>
      <point x="1047" y="448"/>
      <point x="1100" y="532"/>
      <point x="1201" y="532" type="curve" smooth="yes"/>
      <point x="1306" y="532"/>
      <point x="1329" y="448"/>
      <point x="1312" y="358" type="curve" smooth="yes"/>
      <point x="1297" y="279" type="line" smooth="yes"/>
      <point x="1281" y="189"/>
      <point x="1231" y="105"/>
      <point x="1129" y="105" type="curve" smooth="yes"/>
      <point x="1024" y="105"/>
      <point x="999" y="189"/>
      <point x="1015" y="279" type="curve" smooth="yes"/>
    </contour>
    <contour>
      <point x="268" y="1132" type="line" smooth="yes"/>
      <point x="244" y="968"/>
      <point x="320" y="832"/>
      <point x="509" y="832" type="curve" smooth="yes"/>
      <point x="695" y="832"/>
      <point x="823" y="968"/>
      <point x="847" y="1132" type="curve" smooth="yes"/>
      <point x="858" y="1210" type="line" smooth="yes"/>
      <point x="882" y="1373"/>
      <point x="809" y="1510"/>
      <point x="620" y="1510" type="curve" smooth="yes"/>
      <point x="433" y="1510"/>
      <point x="303" y="1373"/>
      <point x="279" y="1210" type="curve" smooth="yes"/>
    </contour>
    <contour>
      <point x="428" y="1210" type="line" smooth="yes"/>
      <point x="441" y="1300"/>
      <point x="497" y="1385"/>
      <point x="599" y="1385" type="curve" smooth="yes"/>
      <point x="704" y="1385"/>
      <point x="723" y="1300"/>
      <point x="710" y="1210" type="curve" smooth="yes"/>
      <point x="698" y="1132" type="line" smooth="yes"/>
      <point x="684" y="1041"/>
      <point x="631" y="957"/>
      <point x="529" y="957" type="curve" smooth="yes"/>
      <point x="425" y="957"/>
      <point x="402" y="1041"/>
      <point x="416" y="1132" type="curve" smooth="yes"/>
    </contour>
    <component base="fraction" xOffset="541"/>
  </outline>
</glyph>
<glyph name="ampersand" format="2">
  <advance height="2479" width="1308"/>
  <unicode hex="0026"/>
  <outline>
    <contour>
      <point x="482" y="-20" type="curve"/>
      <point x="624" y="-20"/>
      <point x="793" y="32"/>
      <point x="907" y="140" type="curve"/>
      <point x="921" y="154"/>
      <point x="939" y="169"/>
      <point x="953" y="183" type="curve"/>
      <point x="1014" y="241"/>
      <point x="1154" y="355"/>
      <point x="1203" y="652" type="curve"/>
      <point x="1038" y="652" type="line"/>
      <point x="985" y="332"/>
      <point x="726" y="131"/>
      <point x="502" y="131" type="curve" smooth="yes"/>
      <point x="325" y="131"/>
      <point x="229" y="256"/>
      <point x="252" y="396" type="curve"/>
      <point x="258" y="436"/>
      <point x="314" y="540"/>
      <point x="464" y="640" type="curve" smooth="yes"/>
      <point x="796" y="861" type="line" smooth="yes"/>
      <point x="932" y="952"/>
      <point x="1026" y="1050"/>
      <point x="1049" y="1193" type="curve"/>
      <point x="1078" y="1359"/>
      <point x="965" y="1504"/>
      <point x="741" y="1504" type="curve" smooth="yes"/>
      <point x="523" y="1504"/>
      <point x="357" y="1367"/>
      <point x="325" y="1167" type="curve" smooth="yes"/>
      <point x="297" y="992"/>
      <point x="400" y="870"/>
      <point x="526" y="681" type="curve" smooth="yes"/>
      <point x="976" y="0" type="line"/>
      <point x="1183" y="0" type="line"/>
      <point x="639" y="835" type="line" smooth="yes"/>
      <point x="563" y="953"/>
      <point x="479" y="1059"/>
      <point x="496" y="1164" type="curve" smooth="yes"/>
      <point x="512" y="1257"/>
      <point x="607" y="1356"/>
      <point x="720" y="1356" type="curve" smooth="yes"/>
      <point x="828" y="1356"/>
      <point x="886" y="1268"/>
      <point x="875" y="1193" type="curve"/>
      <point x="857" y="1091"/>
      <point x="793" y="1036"/>
      <point x="700" y="980" type="curve"/>
      <point x="459" y="820" type="line"/>
      <point x="255" y="695"/>
      <point x="107" y="582"/>
      <point x="78" y="396" type="curve"/>
      <point x="37" y="154"/>
      <point x="188" y="-20"/>
    </contour>
  </outline>
</glyph>
<glyph name="asterisk" format="2">
  <advance height="2479" width="1024"/>
  <unicode hex="002A"/>
  <outline>
    <contour>
      <point x="457" y="652" type="line"/>
      <point x="596" y="652" type="line"/>
      <point x="640" y="972" type="line"/>
      <point x="884" y="800" type="line"/>
      <point x="975" y="922" type="line"/>
      <point x="713" y="1071" type="line"/>
      <point x="1018" y="1219" type="line"/>
      <point x="966" y="1341" type="line"/>
      <point x="672" y="1169" type="line"/>
      <point x="736" y="1489" type="line"/>
      <point x="596" y="1489" type="line"/>
      <point x="556" y="1169" type="line"/>
      <point x="311" y="1341" type="line"/>
      <point x="221" y="1219" type="line"/>
      <point x="483" y="1071" type="line"/>
      <point x="177" y="922" type="line"/>
      <point x="227" y="800" type="line"/>
      <point x="524" y="972" type="line"/>
    </contour>
  </outline>
</glyph>
<glyph name="two" format="2">
  <advance height="2479" width="1239"/>
  <unicode hex="0032"/>
  <anchor x="863" y="768" name="cross"/>
  <outline>
    <contour>
      <point x="61" y="0" type="line"/>
      <point x="1001" y="0" type="line"/>
      <point x="1027" y="160" type="line"/>
      <point x="335" y="160" type="line"/>
      <point x="337" y="172" type="line"/>
      <point x="730" y="529" type="line" smooth="yes"/>
      <point x="1031" y="804"/>
      <point x="1129" y="931"/>
      <point x="1158" y="1097" type="curve" smooth="yes"/>
      <point x="1196" y="1327"/>
      <point x="1044" y="1510"/>
      <point x="783" y="1510" type="curve" smooth="yes"/>
      <point x="521" y="1510"/>
      <point x="288" y="1332"/>
      <point x="244" y="1071" type="curve"/>
      <point x="416" y="1071" type="line"/>
      <point x="445" y="1239"/>
      <point x="579" y="1353"/>
      <point x="751" y="1353" type="curve" smooth="yes"/>
      <point x="913" y="1353"/>
      <point x="1015" y="1254"/>
      <point x="989" y="1097" type="curve" smooth="yes"/>
      <point x="966" y="960"/>
      <point x="867" y="858"/>
      <point x="663" y="669" type="curve" smooth="yes"/>
      <point x="84" y="131" type="line"/>
    </contour>
  </outline>
</glyph>
<glyph name="three" format="2">
  <advance height="2479" width="1303"/>
  <unicode hex="0033"/>
  <outline>
    <contour>
      <point x="570" y="-20" type="curve" smooth="yes"/>
      <point x="863" y="-20"/>
      <point x="1090" y="139"/>
      <point x="1132" y="393" type="curve" smooth="yes"/>
      <point x="1163" y="581"/>
      <point x="1076" y="730"/>
      <point x="893" y="762" type="curve"/>
      <point x="893" y="771" type="line"/>
      <point x="1049" y="818"/>
      <point x="1167" y="936"/>
      <point x="1193" y="1100" type="curve" smooth="yes"/>
      <point x="1228" y="1315"/>
      <point x="1089" y="1510"/>
      <point x="809" y="1510" type="curve" smooth="yes"/>
      <point x="556" y="1510"/>
      <point x="321" y="1350"/>
      <point x="276" y="1117" type="curve"/>
      <point x="451" y="1117" type="line"/>
      <point x="479" y="1265"/>
      <point x="642" y="1353"/>
      <point x="800" y="1353" type="curve" smooth="yes"/>
      <point x="964" y="1353"/>
      <point x="1045" y="1257"/>
      <point x="1021" y="1114" type="curve" smooth="yes"/>
      <point x="994" y="950"/>
      <point x="849" y="844"/>
      <point x="672" y="844" type="curve" smooth="yes"/>
      <point x="559" y="844" type="line"/>
      <point x="532" y="684" type="line"/>
      <point x="655" y="684" type="line" smooth="yes"/>
      <point x="882" y="684"/>
      <point x="980" y="571"/>
      <point x="957" y="416" type="curve" smooth="yes"/>
      <point x="931" y="242"/>
      <point x="761" y="140"/>
      <point x="573" y="140" type="curve" smooth="yes"/>
      <point x="397" y="140"/>
      <point x="289" y="230"/>
      <point x="303" y="372" type="curve"/>
      <point x="122" y="372" type="line"/>
      <point x="92" y="137"/>
      <point x="279" y="-20"/>
    </contour>
  </outline>
</glyph>
<glyph name="five" format="2">
  <advance height="2479" width="1245"/>
  <unicode hex="0035"/>
  <outline>
    <contour>
      <point x="524" y="-20" type="curve" smooth="yes"/>
      <point x="809" y="-20"/>
      <point x="1050" y="189"/>
      <point x="1097" y="474" type="curve" smooth="yes"/>
      <point x="1146" y="762"/>
      <point x="980" y="975"/>
      <point x="707" y="975" type="curve" smooth="yes"/>
      <point x="605" y="975"/>
      <point x="503" y="940"/>
      <point x="433" y="890" type="curve"/>
      <point x="425" y="890" type="line"/>
      <point x="550" y="1329" type="line"/>
      <point x="1172" y="1329" type="line"/>
      <point x="1199" y="1489" type="line"/>
      <point x="425" y="1489" type="line"/>
      <point x="212" y="756" type="line"/>
      <point x="378" y="736" type="line"/>
      <point x="448" y="780"/>
      <point x="559" y="812"/>
      <point x="649" y="812" type="curve" smooth="yes"/>
      <point x="841" y="812"/>
      <point x="954" y="666"/>
      <point x="922" y="471" type="curve" smooth="yes"/>
      <point x="890" y="279"/>
      <point x="733" y="140"/>
      <point x="550" y="140" type="curve" smooth="yes"/>
      <point x="399" y="140"/>
      <point x="291" y="239"/>
      <point x="300" y="372" type="curve"/>
      <point x="125" y="372" type="line"/>
      <point x="99" y="145"/>
      <point x="268" y="-20"/>
    </contour>
  </outline>
</glyph>
<glyph name="six" format="2">
  <advance height="2479" width="1277"/>
  <unicode hex="0036"/>
  <outline>
    <contour>
      <point x="564" y="-20" type="curve" smooth="yes"/>
      <point x="860" y="-23"/>
      <point x="1085" y="198"/>
      <point x="1132" y="468" type="curve" smooth="yes"/>
      <point x="1181" y="762"/>
      <point x="998" y="975"/>
      <point x="736" y="975" type="curve" smooth="yes"/>
      <point x="585" y="975"/>
      <point x="448" y="905"/>
      <point x="346" y="783" type="curve"/>
      <point x="335" y="771" type="line"/>
      <point x="399" y="1149"/>
      <point x="584" y="1350"/>
      <point x="815" y="1350" type="curve" smooth="yes"/>
      <point x="973" y="1350"/>
      <point x="1048" y="1253"/>
      <point x="1053" y="1117" type="curve"/>
      <point x="1225" y="1117" type="line"/>
      <point x="1228" y="1350"/>
      <point x="1067" y="1510"/>
      <point x="820" y="1510" type="curve" smooth="yes"/>
      <point x="489" y="1510"/>
      <point x="241" y="1219"/>
      <point x="154" y="698" type="curve" smooth="yes"/>
      <point x="61" y="143"/>
      <point x="314" y="-18"/>
    </contour>
    <contour>
      <point x="570" y="140" type="curve" smooth="yes"/>
      <point x="387" y="140"/>
      <point x="282" y="294"/>
      <point x="311" y="465" type="curve" smooth="yes"/>
      <point x="340" y="649"/>
      <point x="518" y="815"/>
      <point x="707" y="815" type="curve" smooth="yes"/>
      <point x="884" y="815"/>
      <point x="989" y="669"/>
      <point x="960" y="492" type="curve" smooth="yes"/>
      <point x="928" y="297"/>
      <point x="756" y="140"/>
    </contour>
  </outline>
</glyph>
<glyph name="equal" format="2">
  <advance height="2479" width="1350"/>
  <unicode hex="003D"/>
  <outline>
    <contour>
      <point x="253" y="719" type="line"/>
      <point x="1149" y="719" type="line"/>
      <point x="1175" y="876" type="line"/>
      <point x="279" y="876" type="line"/>
    </contour>
    <contour>
      <point x="182" y="288" type="line"/>
      <point x="1078" y="288" type="line"/>
      <point x="1104" y="445" type="line"/>
      <point x="208" y="445" type="line"/>
    </contour>
  </outline>
</glyph>
<glyph name="greater" format="2">
  <advance height="2479" width="1350"/>
  <unicode hex="003E"/>
  <outline>
    <contour>
      <point x="1172" y="524" type="line"/>
      <point x="1193" y="640" type="line"/>
      <point x="335" y="1117" type="line"/>
      <point x="305" y="931" type="line"/>
      <point x="966" y="585" type="line"/>
      <point x="960" y="596" type="line"/>
      <point x="957" y="567" type="line"/>
      <point x="963" y="579" type="line"/>
      <point x="189" y="233" type="line"/>
      <point x="157" y="47" type="line"/>
    </contour>
  </outline>
</glyph>
<glyph name="B" format="2">
  <advance height="2479" width="1332"/>
  <unicode hex="0042"/>
  <anchor x="553" y="0" name="bottom"/>
  <anchor x="823" y="1676" name="top"/>
  <outline>
    <contour>
      <point x="87" y="0" type="line"/>
      <point x="625" y="0" type="line" smooth="yes"/>
      <point x="977" y="0"/>
      <point x="1152" y="172"/>
      <point x="1190" y="396" type="curve" smooth="yes"/>
      <point x="1228" y="631"/>
      <point x="1085" y="759"/>
      <point x="951" y="768" type="curve"/>
      <point x="954" y="783" type="line"/>
      <point x="1085" y="817"/>
      <point x="1213" y="902"/>
      <point x="1245" y="1094" type="curve" smooth="yes"/>
      <point x="1283" y="1312"/>
      <point x="1167" y="1489"/>
      <point x="855" y="1489" type="curve" smooth="yes"/>
      <point x="335" y="1489" type="line"/>
    </contour>
    <contour>
      <point x="294" y="160" type="line"/>
      <point x="381" y="678" type="line"/>
      <point x="748" y="678" type="line" smooth="yes"/>
      <point x="943" y="678"/>
      <point x="1041" y="547"/>
      <point x="1018" y="396" type="curve" smooth="yes"/>
      <point x="995" y="265"/>
      <point x="887" y="160"/>
      <point x="652" y="160" type="curve" smooth="yes"/>
    </contour>
    <contour>
      <point x="407" y="835" type="line"/>
      <point x="489" y="1329" type="line"/>
      <point x="829" y="1329" type="line" smooth="yes"/>
      <point x="1027" y="1329"/>
      <point x="1097" y="1225"/>
      <point x="1073" y="1094" type="curve" smooth="yes"/>
      <point x="1050" y="937"/>
      <point x="905" y="835"/>
      <point x="742" y="835" type="curve" smooth="yes"/>
    </contour>
  </outline>
</glyph>
<glyph name="C" format="2">
  <advance height="2479" width="1489"/>
  <unicode hex="0043"/>
  <anchor x="695" y="-12" name="cedilla"/>
  <anchor x="969" y="1676" name="top"/>
  <outline>
    <contour>
      <point x="1455" y="1024" type="line"/>
      <point x="1449" y="1329"/>
      <point x="1231" y="1510"/>
      <point x="928" y="1510" type="curve" smooth="yes"/>
      <point x="550" y="1510"/>
      <point x="233" y="1222"/>
      <point x="154" y="756" type="curve"/>
      <point x="76" y="279"/>
      <point x="308" y="-20"/>
      <point x="695" y="-20" type="curve" smooth="yes"/>
      <point x="989" y="-20"/>
      <point x="1257" y="160"/>
      <point x="1364" y="465" type="curve"/>
      <point x="1184" y="465" type="line"/>
      <point x="1105" y="259"/>
      <point x="905" y="148"/>
      <point x="701" y="148" type="curve" smooth="yes"/>
      <point x="436" y="148"/>
      <point x="262" y="352"/>
      <point x="326" y="733" type="curve"/>
      <point x="390" y="1126"/>
      <point x="643" y="1341"/>
      <point x="919" y="1341" type="curve" smooth="yes"/>
      <point x="1111" y="1341"/>
      <point x="1268" y="1231"/>
      <point x="1277" y="1024" type="curve"/>
    </contour>
  </outline>
</glyph>
<glyph name="E" format="2">
  <advance height="2479" width="1225"/>
  <unicode hex="0045"/>
  <anchor x="521" y="0" name="bottom"/>
  <anchor x="524" y="0" name="cedilla"/>
  <anchor x="998" y="0" name="ogonek"/>
  <anchor x="288" y="1489" name="tonos"/>
  <anchor x="815" y="1676" name="top"/>
  <outline>
    <contour>
      <point x="87" y="0" type="line"/>
      <point x="998" y="0" type="line"/>
      <point x="1024" y="160" type="line"/>
      <point x="294" y="160" type="line"/>
      <point x="378" y="666" type="line"/>
      <point x="1050" y="666" type="line"/>
      <point x="1076" y="826" type="line"/>
      <point x="404" y="826" type="line"/>
      <point x="489" y="1329" type="line"/>
      <point x="1207" y="1329" type="line"/>
      <point x="1233" y="1489" type="line"/>
      <point x="335" y="1489" type="line"/>
    </contour>
  </outline>
</glyph>
<glyph name="F" format="2">
  <advance height="2479" width="1201"/>
  <unicode hex="0046"/>
  <anchor x="468" y="12" name="bottom"/>
  <anchor x="236" y="349" name="cross"/>
  <anchor x="832" y="1676" name="top"/>
  <outline>
    <contour>
      <point x="87" y="0" type="line"/>
      <point x="268" y="0" type="line"/>
      <point x="378" y="666" type="line"/>
      <point x="1024" y="666" type="line"/>
      <point x="1050" y="826" type="line"/>
      <point x="404" y="826" type="line"/>
      <point x="489" y="1329" type="line"/>
      <point x="1201" y="1329" type="line"/>
      <point x="1228" y="1489" type="line"/>
      <point x="335" y="1489" type="line"/>
    </contour>
  </outline>
</glyph>
<glyph name="G" format="2">
  <advance height="2479" width="1566"/>
  <unicode hex="0047"/>
  <anchor x="676" y="0" name="bottom"/>
  <anchor x="958" y="1676" name="top"/>
  <outline>
    <contour>
      <point x="1272" y="1024" type="curve"/>
      <point x="1458" y="1024" type="line"/>
      <point x="1452" y="1312"/>
      <point x="1243" y="1510"/>
      <point x="929" y="1510" type="curve" smooth="yes"/>
      <point x="548" y="1510"/>
      <point x="228" y="1216"/>
      <point x="152" y="745" type="curve" smooth="yes"/>
      <point x="73" y="273"/>
      <point x="292" y="-20"/>
      <point x="687" y="-20" type="curve" smooth="yes"/>
      <point x="1042" y="-20"/>
      <point x="1336" y="215"/>
      <point x="1394" y="585" type="curve" smooth="yes"/>
      <point x="1423" y="745" type="line"/>
      <point x="856" y="745" type="line"/>
      <point x="827" y="585" type="line"/>
      <point x="1275" y="585" type="line"/>
      <point x="1223" y="596" type="line"/>
      <point x="1179" y="323"/>
      <point x="958" y="148"/>
      <point x="702" y="148" type="curve" smooth="yes"/>
      <point x="425" y="148"/>
      <point x="263" y="358"/>
      <point x="327" y="745" type="curve" smooth="yes"/>
      <point x="391" y="1132"/>
      <point x="652" y="1341"/>
      <point x="917" y="1341" type="curve" smooth="yes"/>
      <point x="1132" y="1341"/>
      <point x="1243" y="1219"/>
    </contour>
  </outline>
</glyph>
<glyph name="I" format="2">
  <advance height="2479" width="542"/>
  <unicode hex="0049"/>
  <anchor x="180" y="0" name="bottom"/>
  <anchor x="305" y="768" name="cross"/>
  <anchor x="268" y="0" name="ogonek"/>
  <anchor x="282" y="0" name="right"/>
  <anchor x="335" y="1489" name="tonos"/>
  <anchor x="454" y="1676" name="top"/>
  <outline>
    <contour>
      <point x="515" y="1489" type="line"/>
      <point x="335" y="1489" type="line"/>
      <point x="87" y="0" type="line"/>
      <point x="268" y="0" type="line"/>
    </contour>
  </outline>
</glyph>
<glyph name="L" format="2">
  <advance height="2479" width="1152"/>
  <unicode hex="004C"/>
  <anchor x="532" y="0" name="bottom"/>
  <anchor x="305" y="768" name="cross"/>
  <anchor x="643" y="794" name="dot"/>
  <anchor x="765" y="1489" name="raccent"/>
  <anchor x="460" y="1676" name="top"/>
  <outline>
    <contour>
      <point x="87" y="0" type="line"/>
      <point x="960" y="0" type="line"/>
      <point x="986" y="160" type="line"/>
      <point x="294" y="160" type="line"/>
      <point x="515" y="1489" type="line"/>
      <point x="335" y="1489" type="line"/>
    </contour>
  </outline>
</glyph>
<glyph name="R" format="2">
  <advance height="2479" width="1309"/>
  <unicode hex="0052"/>
  <anchor x="579" y="0" name="bottom"/>
  <anchor x="832" y="1676" name="top"/>
  <outline>
    <contour>
      <point x="87" y="0" type="line"/>
      <point x="268" y="0" type="line"/>
      <point x="489" y="1329" type="line"/>
      <point x="806" y="1329" type="line" smooth="yes"/>
      <point x="1047" y="1329"/>
      <point x="1120" y="1213"/>
      <point x="1091" y="1033" type="curve" smooth="yes"/>
      <point x="1062" y="855"/>
      <point x="951" y="745"/>
      <point x="713" y="745" type="curve" smooth="yes"/>
      <point x="311" y="745" type="line"/>
      <point x="282" y="582" type="line"/>
      <point x="689" y="582" type="line" smooth="yes"/>
      <point x="1036" y="582"/>
      <point x="1225" y="771"/>
      <point x="1268" y="1033" type="curve" smooth="yes"/>
      <point x="1312" y="1297"/>
      <point x="1187" y="1489"/>
      <point x="838" y="1489" type="curve" smooth="yes"/>
      <point x="335" y="1489" type="line"/>
    </contour>
    <contour>
      <point x="899" y="669" type="line"/>
      <point x="695" y="669" type="line"/>
      <point x="945" y="0" type="line"/>
      <point x="1155" y="0" type="line"/>
    </contour>
  </outline>
</glyph>
<glyph name="T" format="2">
  <advance height="2479" width="1315"/>
  <unicode hex="0054"/>
  <anchor x="564" y="0" name="bottom"/>
  <anchor x="585" y="0" name="cedilla"/>
  <anchor x="692" y="768" name="cross"/>
  <anchor x="748" y="64" name="cyrtic"/>
  <anchor x="605" y="0" name="right"/>
  <anchor x="844" y="1676" name="top"/>
  <outline>
    <contour>
      <point x="227" y="1329" type="line"/>
      <point x="695" y="1329" type="line"/>
      <point x="474" y="0" type="line"/>
      <point x="655" y="0" type="line"/>
      <point x="876" y="1329" type="line"/>
      <point x="1344" y="1329" type="line"/>
      <point x="1370" y="1489" type="line"/>
      <point x="253" y="1489" type="line"/>
    </contour>
  </outline>
</glyph>
<glyph name="U" format="2">
  <advance height="2479" width="1518"/>
  <unicode hex="0055"/>
  <anchor x="662" y="-20" name="bottom"/>
  <anchor x="807" y="0" name="ogonek"/>
  <anchor x="749" y="0" name="right"/>
  <anchor x="942" y="1676" name="top"/>
  <outline>
    <contour>
      <point x="1310" y="1489" type="line"/>
      <point x="1149" y="518" type="line" smooth="yes"/>
      <point x="1112" y="300"/>
      <point x="938" y="143"/>
      <point x="689" y="143" type="curve" smooth="yes"/>
      <point x="440" y="143"/>
      <point x="315" y="300"/>
      <point x="352" y="518" type="curve" smooth="yes"/>
      <point x="513" y="1489" type="line"/>
      <point x="333" y="1489" type="line"/>
      <point x="170" y="503" type="line" smooth="yes"/>
      <point x="120" y="198"/>
      <point x="310" y="-26"/>
      <point x="660" y="-26" type="curve" smooth="yes"/>
      <point x="1011" y="-26"/>
      <point x="1278" y="198"/>
      <point x="1328" y="503" type="curve" smooth="yes"/>
      <point x="1491" y="1489" type="line"/>
    </contour>
  </outline>
</glyph>
<glyph name="Z" format="2">
  <advance height="2479" width="1280"/>
  <unicode hex="005A"/>
  <anchor x="576" y="0" name="bottom"/>
  <anchor x="689" y="768" name="cross"/>
  <anchor x="841" y="1676" name="top"/>
  <outline>
    <contour>
      <point x="38" y="0" type="line"/>
      <point x="1065" y="0" type="line"/>
      <point x="1091" y="160" type="line"/>
      <point x="279" y="160" type="line"/>
      <point x="1283" y="1359" type="line"/>
      <point x="1303" y="1489" type="line"/>
      <point x="276" y="1489" type="line"/>
      <point x="250" y="1329" type="line"/>
      <point x="1062" y="1329" type="line"/>
      <point x="61" y="131" type="line"/>
    </contour>
  </outline>
</glyph>
<glyph name="c" format="2">
  <advance height="2479" width="1142"/>
  <unicode hex="0063"/>
  <anchor x="523" y="0" name="cedilla"/>
  <anchor x="726" y="1303" name="top"/>
  <outline>
    <contour>
      <point x="514" y="-23" type="curve" smooth="yes"/>
      <point x="760" y="-23"/>
      <point x="947" y="128"/>
      <point x="1011" y="326" type="curve"/>
      <point x="840" y="326" type="line"/>
      <point x="787" y="204"/>
      <point x="673" y="131"/>
      <point x="540" y="131" type="curve" smooth="yes"/>
      <point x="336" y="131"/>
      <point x="231" y="300"/>
      <point x="275" y="559" type="curve" smooth="yes"/>
      <point x="315" y="812"/>
      <point x="478" y="977"/>
      <point x="680" y="977" type="curve" smooth="yes"/>
      <point x="830" y="977"/>
      <point x="906" y="884"/>
      <point x="915" y="783" type="curve"/>
      <point x="1087" y="783" type="line"/>
      <point x="1092" y="992"/>
      <point x="938" y="1132"/>
      <point x="703" y="1132" type="curve" smooth="yes"/>
      <point x="400" y="1132"/>
      <point x="158" y="893"/>
      <point x="104" y="553" type="curve" smooth="yes"/>
      <point x="48" y="218"/>
      <point x="199" y="-23"/>
    </contour>
  </outline>
</glyph>
<glyph name="d" format="2">
  <advance height="2479" width="1274"/>
  <unicode hex="0064"/>
  <anchor x="521" y="0" name="bottom"/>
  <anchor x="1126" y="1280" name="cross"/>
  <anchor x="1404" y="1489" name="raccent"/>
  <anchor x="748" y="1489" name="top"/>
  <outline>
    <contour>
      <point x="484" y="-23" type="curve" smooth="yes"/>
      <point x="699" y="-23"/>
      <point x="794" y="111"/>
      <point x="842" y="172" type="curve"/>
      <point x="863" y="172" type="line"/>
      <point x="833" y="0" type="line"/>
      <point x="999" y="0" type="line"/>
      <point x="1247" y="1489" type="line"/>
      <point x="1075" y="1489" type="line"/>
      <point x="983" y="940" type="line"/>
      <point x="969" y="940" type="line"/>
      <point x="941" y="998"/>
      <point x="896" y="1132"/>
      <point x="678" y="1132" type="curve" smooth="yes"/>
      <point x="396" y="1132"/>
      <point x="164" y="908"/>
      <point x="105" y="556" type="curve" smooth="yes"/>
      <point x="47" y="201"/>
      <point x="204" y="-23"/>
    </contour>
    <contour>
      <point x="527" y="131" type="curve" smooth="yes"/>
      <point x="311" y="131"/>
      <point x="238" y="320"/>
      <point x="278" y="559" type="curve" smooth="yes"/>
      <point x="316" y="794"/>
      <point x="449" y="977"/>
      <point x="666" y="977" type="curve" smooth="yes"/>
      <point x="876" y="977"/>
      <point x="965" y="809"/>
      <point x="924" y="559" type="curve" smooth="yes"/>
      <point x="881" y="305"/>
      <point x="733" y="131"/>
    </contour>
  </outline>
</glyph>
<glyph name="e" format="2">
  <advance height="2479" width="1241"/>
  <unicode hex="0065"/>
  <anchor x="505" y="0" name="bottom"/>
  <anchor x="508" y="0" name="cedilla"/>
  <anchor x="674" y="0" name="ogonek"/>
  <anchor x="721" y="1303" name="top"/>
  <outline>
    <contour>
      <point x="529" y="-23" type="curve"/>
      <point x="756" y="-23"/>
      <point x="940" y="90"/>
      <point x="1020" y="259" type="curve"/>
      <point x="863" y="305" type="line"/>
      <point x="800" y="189"/>
      <point x="692" y="131"/>
      <point x="555" y="131" type="curve" smooth="yes"/>
      <point x="338" y="131"/>
      <point x="223" y="228"/>
      <point x="267" y="506" type="curve" smooth="yes"/>
      <point x="287" y="634" type="line" smooth="yes"/>
      <point x="314" y="796"/>
      <point x="484" y="977"/>
      <point x="677" y="977" type="curve"/>
      <point x="864" y="977"/>
      <point x="960" y="838"/>
      <point x="927" y="649" type="curve"/>
      <point x="241" y="649" type="line"/>
      <point x="217" y="500" type="line"/>
      <point x="1079" y="500" type="line"/>
      <point x="1090" y="573" type="line" smooth="yes"/>
      <point x="1161" y="989"/>
      <point x="937" y="1132"/>
      <point x="703" y="1132" type="curve" smooth="yes"/>
      <point x="401" y="1132"/>
      <point x="160" y="893"/>
      <point x="104" y="550" type="curve" smooth="yes"/>
      <point x="47" y="207"/>
      <point x="207" y="-23"/>
    </contour>
  </outline>
</glyph>
<glyph name="f" format="2">
  <advance height="2479" width="739"/>
  <unicode hex="0066"/>
  <anchor x="227" y="0" name="bottom"/>
  <anchor x="334" y="649" name="cross"/>
  <anchor x="582" y="1676" name="top"/>
  <outline>
    <contour>
      <point x="748" y="1117" type="line"/>
      <point x="145" y="1117" type="line"/>
      <point x="122" y="972" type="line"/>
      <point x="724" y="972" type="line"/>
    </contour>
    <component base="_part.f_base"/>
  </outline>
</glyph>
<glyph name="g" format="2">
  <advance height="2479" width="1247"/>
  <unicode hex="0067"/>
  <anchor x="458" y="-442" name="bottom"/>
  <anchor x="1011" y="564" name="cross"/>
  <anchor x="749" y="1303" name="top"/>
  <outline>
    <contour>
      <point x="444" y="-442" type="curve" smooth="yes"/>
      <point x="710" y="-442"/>
      <point x="945" y="-320"/>
      <point x="993" y="-32" type="curve" smooth="yes"/>
      <point x="1183" y="1117" type="line"/>
      <point x="1017" y="1117" type="line"/>
      <point x="988" y="940" type="line"/>
      <point x="970" y="940" type="line"/>
      <point x="943" y="998"/>
      <point x="895" y="1132"/>
      <point x="676" y="1132" type="curve" smooth="yes"/>
      <point x="394" y="1132"/>
      <point x="162" y="908"/>
      <point x="106" y="564" type="curve" smooth="yes"/>
      <point x="48" y="215"/>
      <point x="219" y="17"/>
      <point x="490" y="17" type="curve" smooth="yes"/>
      <point x="708" y="17"/>
      <point x="799" y="145"/>
      <point x="845" y="207" type="curve"/>
      <point x="860" y="207" type="line"/>
      <point x="825" y="-20" type="line" smooth="yes"/>
      <point x="793" y="-207"/>
      <point x="643" y="-291"/>
      <point x="464" y="-291" type="curve" smooth="yes"/>
      <point x="259" y="-291"/>
      <point x="211" y="-184"/>
      <point x="176" y="-122" type="curve"/>
      <point x="22" y="-218" type="line"/>
      <point x="73" y="-335"/>
      <point x="193" y="-442"/>
    </contour>
    <contour>
      <point x="534" y="172" type="curve" smooth="yes"/>
      <point x="317" y="172"/>
      <point x="239" y="335"/>
      <point x="278" y="567" type="curve" smooth="yes"/>
      <point x="316" y="794"/>
      <point x="445" y="977"/>
      <point x="665" y="977" type="curve" smooth="yes"/>
      <point x="873" y="977"/>
      <point x="964" y="809"/>
      <point x="924" y="567" type="curve" smooth="yes"/>
      <point x="883" y="320"/>
      <point x="739" y="172"/>
    </contour>
  </outline>
</glyph>
<glyph name="k" format="2">
  <advance height="2479" width="1114"/>
  <unicode hex="006B"/>
  <anchor x="483" y="0" name="bottom"/>
  <anchor x="431" y="1676" name="top"/>
  <outline>
    <contour>
      <point x="291" y="407" type="line"/>
      <point x="521" y="591" type="line"/>
      <point x="535" y="591" type="line"/>
      <point x="1143" y="1117" type="line"/>
      <point x="931" y="1117" type="line"/>
      <point x="358" y="620" type="line"/>
      <point x="323" y="620" type="line"/>
    </contour>
    <contour>
      <point x="64" y="0" type="line"/>
      <point x="236" y="0" type="line"/>
      <point x="483" y="1489" type="line"/>
      <point x="311" y="1489" type="line"/>
    </contour>
    <contour>
      <point x="774" y="0" type="line"/>
      <point x="992" y="0" type="line"/>
      <point x="570" y="672" type="line"/>
      <point x="431" y="553" type="line"/>
    </contour>
  </outline>
</glyph>
<glyph name="r" format="2">
  <advance height="2479" width="765"/>
  <unicode hex="0072"/>
  <anchor x="148" y="0" name="bottom"/>
  <anchor x="241" y="535" name="cross"/>
  <anchor x="544" y="1303" name="top"/>
  <outline>
    <contour>
      <point x="64" y="0" type="line"/>
      <point x="236" y="0" type="line"/>
      <point x="352" y="707" type="line" smooth="yes"/>
      <point x="378" y="858"/>
      <point x="515" y="969"/>
      <point x="678" y="969" type="curve" smooth="yes"/>
      <point x="724" y="969"/>
      <point x="771" y="960"/>
      <point x="783" y="957" type="curve"/>
      <point x="812" y="1132" type="line"/>
      <point x="791" y="1135"/>
      <point x="748" y="1135"/>
      <point x="721" y="1135" type="curve" smooth="yes"/>
      <point x="588" y="1135"/>
      <point x="457" y="1059"/>
      <point x="399" y="948" type="curve"/>
      <point x="387" y="948" type="line"/>
      <point x="416" y="1117" type="line"/>
      <point x="250" y="1117" type="line"/>
    </contour>
  </outline>
</glyph>
<glyph name="s" format="2">
  <advance height="2479" width="1071"/>
  <unicode hex="0073"/>
  <anchor x="460" y="0" name="bottom"/>
  <anchor x="457" y="0" name="cedilla"/>
  <anchor x="675" y="1303" name="top"/>
  <outline>
    <contour>
      <point x="1001" y="867" type="line"/>
      <point x="972" y="1027"/>
      <point x="870" y="1132"/>
      <point x="649" y="1132" type="curve" smooth="yes"/>
      <point x="413" y="1132"/>
      <point x="215" y="998"/>
      <point x="183" y="809" type="curve" smooth="yes"/>
      <point x="157" y="655"/>
      <point x="233" y="553"/>
      <point x="431" y="503" type="curve" smooth="yes"/>
      <point x="608" y="460" type="line" smooth="yes"/>
      <point x="719" y="433"/>
      <point x="762" y="381"/>
      <point x="748" y="303" type="curve" smooth="yes"/>
      <point x="733" y="207"/>
      <point x="617" y="128"/>
      <point x="457" y="128" type="curve" smooth="yes"/>
      <point x="317" y="128"/>
      <point x="239" y="189"/>
      <point x="230" y="308" type="curve"/>
      <point x="58" y="268" type="line"/>
      <point x="67" y="79"/>
      <point x="207" y="-23"/>
      <point x="436" y="-23" type="curve" smooth="yes"/>
      <point x="695" y="-23"/>
      <point x="896" y="119"/>
      <point x="928" y="311" type="curve" smooth="yes"/>
      <point x="954" y="468"/>
      <point x="873" y="564"/>
      <point x="681" y="614" type="curve" smooth="yes"/>
      <point x="521" y="655" type="line" smooth="yes"/>
      <point x="396" y="687"/>
      <point x="343" y="733"/>
      <point x="358" y="817" type="curve" smooth="yes"/>
      <point x="372" y="913"/>
      <point x="486" y="983"/>
      <point x="623" y="983" type="curve" smooth="yes"/>
      <point x="774" y="983"/>
      <point x="820" y="902"/>
      <point x="838" y="823" type="curve"/>
    </contour>
  </outline>
</glyph>
<glyph name="t" format="2">
  <advance height="2479" width="745"/>
  <unicode hex="0074"/>
  <anchor x="692" y="1562" name="raccent"/>
  <anchor x="320" y="0" name="bottom"/>
  <anchor x="407" y="0" name="cedilla"/>
  <anchor x="474" y="1489" name="top"/>
  <outline>
    <contour>
      <point x="736" y="1117" type="line"/>
      <point x="157" y="1117" type="line"/>
      <point x="134" y="972" type="line"/>
      <point x="713" y="972" type="line"/>
    </contour>
    <component base="_part.t_base"/>
  </outline>
</glyph>
<glyph name="w" format="2">
  <advance height="2479" width="1664"/>
  <unicode hex="0077"/>
  <anchor x="739" y="0" name="bottom"/>
  <anchor x="954" y="1303" name="top"/>
  <outline>
    <contour>
      <point x="317" y="0" type="line"/>
      <point x="486" y="0" type="line"/>
      <point x="873" y="858" type="line"/>
      <point x="890" y="858" type="line"/>
      <point x="992" y="0" type="line"/>
      <point x="1161" y="0" type="line"/>
      <point x="1687" y="1117" type="line"/>
      <point x="1507" y="1117" type="line"/>
      <point x="1123" y="265" type="line"/>
      <point x="1111" y="265" type="line"/>
      <point x="1018" y="1117" type="line"/>
      <point x="835" y="1117" type="line"/>
      <point x="454" y="262" type="line"/>
      <point x="442" y="262" type="line"/>
      <point x="343" y="1117" type="line"/>
      <point x="163" y="1117" type="line"/>
    </contour>
  </outline>
</glyph>
<glyph name="y" format="2">
  <advance height="2479" width="1140"/>
  <unicode hex="0079"/>
  <anchor x="746" y="-49" name="bottom"/>
  <anchor x="570" y="-419" name="ogonek"/>
  <anchor x="694" y="1303" name="top"/>
  <outline>
    <contour>
      <point x="106" y="-419" type="curve" smooth="yes"/>
      <point x="257" y="-419"/>
      <point x="383" y="-340"/>
      <point x="479" y="-161" type="curve" smooth="yes"/>
      <point x="1164" y="1117" type="line"/>
      <point x="970" y="1117" type="line"/>
      <point x="513" y="224" type="line"/>
      <point x="502" y="224" type="line"/>
      <point x="342" y="1117" type="line"/>
      <point x="163" y="1117" type="line"/>
      <point x="387" y="0" type="line"/>
      <point x="339" y="-87" type="line" smooth="yes"/>
      <point x="246" y="-257"/>
      <point x="173" y="-279"/>
      <point x="54" y="-247" type="curve"/>
      <point x="-16" y="-399" type="line"/>
      <point x="0" y="-407"/>
      <point x="48" y="-419"/>
    </contour>
  </outline>
</glyph>
<glyph name="bar" format="2">
  <advance height="2479" width="669"/>
  <unicode hex="007C"/>
  <outline>
    <contour>
      <point x="640" y="1969" type="line"/>
      <point x="495" y="1969" type="line"/>
      <point x="90" y="-480" type="line"/>
      <point x="236" y="-480" type="line"/>
    </contour>
  </outline>
</glyph>
<glyph name="asciitilde" format="2">
  <advance height="2479" width="1350"/>
  <unicode hex="007E"/>
  <outline>
    <contour>
      <point x="148" y="442" type="curve"/>
      <point x="305" y="442" type="line"/>
      <point x="326" y="570"/>
      <point x="390" y="620"/>
      <point x="468" y="620" type="curve" smooth="yes"/>
      <point x="521" y="620"/>
      <point x="560" y="604"/>
      <point x="621" y="543" type="curve" smooth="yes"/>
      <point x="713" y="451"/>
      <point x="775" y="409"/>
      <point x="874" y="409" type="curve" smooth="yes"/>
      <point x="1023" y="409"/>
      <point x="1175" y="495"/>
      <point x="1210" y="736" type="curve"/>
      <point x="1053" y="736" type="line"/>
      <point x="1036" y="620"/>
      <point x="975" y="559"/>
      <point x="890" y="559" type="curve" smooth="yes"/>
      <point x="838" y="559"/>
      <point x="803" y="582"/>
      <point x="742" y="643" type="curve" smooth="yes"/>
      <point x="650" y="735"/>
      <point x="585" y="777"/>
      <point x="486" y="777" type="curve" smooth="yes"/>
      <point x="337" y="777"/>
      <point x="186" y="684"/>
    </contour>
  </outline>
</glyph>
<glyph name="currency" format="2">
  <advance height="2479" width="1481"/>
  <unicode hex="00A4"/>
  <outline>
    <contour>
      <point x="640" y="-20" type="curve" smooth="yes"/>
      <point x="969" y="-20"/>
      <point x="1283" y="253"/>
      <point x="1341" y="608" type="curve" smooth="yes"/>
      <point x="1399" y="963"/>
      <point x="1175" y="1233"/>
      <point x="847" y="1233" type="curve" smooth="yes"/>
      <point x="518" y="1233"/>
      <point x="209" y="963"/>
      <point x="151" y="608" type="curve"/>
      <point x="93" y="253"/>
      <point x="311" y="-20"/>
    </contour>
    <contour>
      <point x="666" y="140" type="curve" smooth="yes"/>
      <point x="428" y="140"/>
      <point x="268" y="352"/>
      <point x="311" y="608" type="curve"/>
      <point x="355" y="867"/>
      <point x="582" y="1076"/>
      <point x="820" y="1076" type="curve" smooth="yes"/>
      <point x="1059" y="1076"/>
      <point x="1219" y="867"/>
      <point x="1175" y="608" type="curve" smooth="yes"/>
      <point x="1132" y="352"/>
      <point x="905" y="140"/>
    </contour>
    <contour>
      <point x="1219" y="925" type="line"/>
      <point x="1457" y="1132" type="line"/>
      <point x="1359" y="1254" type="line"/>
      <point x="1123" y="1047" type="line"/>
    </contour>
    <contour>
      <point x="1146" y="-15" type="line"/>
      <point x="1286" y="108" type="line"/>
      <point x="1117" y="311" type="line"/>
      <point x="980" y="192" type="line"/>
    </contour>
    <contour>
      <point x="140" y="-15" type="line"/>
      <point x="378" y="192" type="line"/>
      <point x="279" y="311" type="line"/>
      <point x="44" y="108" type="line"/>
    </contour>
    <contour>
      <point x="381" y="925" type="line"/>
      <point x="521" y="1047" type="line"/>
      <point x="352" y="1254" type="line"/>
      <point x="215" y="1132" type="line"/>
    </contour>
  </outline>
</glyph>
<glyph name="brokenbar" format="2">
  <advance height="2479" width="544"/>
  <unicode hex="00A6"/>
  <outline>
    <contour>
      <point x="166" y="401" type="line"/>
      <point x="52" y="-279" type="line"/>
      <point x="212" y="-279" type="line"/>
      <point x="326" y="401" type="line"/>
    </contour>
    <contour>
      <point x="506" y="1489" type="line"/>
      <point x="346" y="1489" type="line"/>
      <point x="233" y="812" type="line"/>
      <point x="393" y="812" type="line"/>
    </contour>
  </outline>
</glyph>
<glyph name="section" format="2">
  <advance height="2479" width="1129"/>
  <unicode hex="00A7"/>
  <outline>
    <contour>
      <point x="1021" y="1137" type="line"/>
      <point x="1056" y="1356"/>
      <point x="943" y="1510"/>
      <point x="719" y="1510" type="curve" smooth="yes"/>
      <point x="512" y="1510"/>
      <point x="343" y="1379"/>
      <point x="311" y="1199" type="curve"/>
      <point x="297" y="1105"/>
      <point x="326" y="1030"/>
      <point x="375" y="969" type="curve"/>
      <point x="375" y="963" type="line"/>
      <point x="250" y="928"/>
      <point x="145" y="803"/>
      <point x="128" y="698" type="curve" smooth="yes"/>
      <point x="99" y="518"/>
      <point x="218" y="419"/>
      <point x="288" y="375" type="curve" smooth="yes"/>
      <point x="541" y="212" type="line" smooth="yes"/>
      <point x="605" y="172"/>
      <point x="684" y="122"/>
      <point x="666" y="12" type="curve" smooth="yes"/>
      <point x="649" y="-96"/>
      <point x="544" y="-148"/>
      <point x="436" y="-148" type="curve" smooth="yes"/>
      <point x="305" y="-148"/>
      <point x="221" y="-70"/>
      <point x="244" y="73" type="curve"/>
      <point x="76" y="73" type="line"/>
      <point x="38" y="-160"/>
      <point x="180" y="-303"/>
      <point x="410" y="-303" type="curve"/>
      <point x="602" y="-303"/>
      <point x="797" y="-204"/>
      <point x="832" y="12" type="curve" smooth="yes"/>
      <point x="847" y="105"/>
      <point x="829" y="186"/>
      <point x="768" y="247" type="curve"/>
      <point x="768" y="250" type="line"/>
      <point x="884" y="285"/>
      <point x="998" y="404"/>
      <point x="1015" y="512" type="curve" smooth="yes"/>
      <point x="1047" y="692"/>
      <point x="925" y="788"/>
      <point x="858" y="832" type="curve" smooth="yes"/>
      <point x="602" y="998" type="line" smooth="yes"/>
      <point x="538" y="1039"/>
      <point x="463" y="1111"/>
      <point x="477" y="1199" type="curve" smooth="yes"/>
      <point x="492" y="1271"/>
      <point x="561" y="1356"/>
      <point x="692" y="1356" type="curve" smooth="yes"/>
      <point x="829" y="1356"/>
      <point x="876" y="1263"/>
      <point x="855" y="1137" type="curve"/>
    </contour>
    <contour>
      <point x="855" y="512" type="curve"/>
      <point x="838" y="393"/>
      <point x="695" y="314"/>
      <point x="640" y="349" type="curve" smooth="yes"/>
      <point x="396" y="506" type="line" smooth="yes"/>
      <point x="332" y="550"/>
      <point x="273" y="605"/>
      <point x="288" y="698" type="curve" smooth="yes"/>
      <point x="308" y="820"/>
      <point x="436" y="905"/>
      <point x="495" y="867" type="curve" smooth="yes"/>
      <point x="751" y="701" type="line" smooth="yes"/>
      <point x="815" y="660"/>
      <point x="870" y="596"/>
    </contour>
  </outline>
</glyph>
<glyph name="logicalnot" format="2">
  <advance height="2479" width="1105"/>
  <unicode hex="00AC"/>
  <outline>
    <contour>
      <point x="1012" y="806" type="line"/>
      <point x="177" y="806" type="line"/>
      <point x="148" y="634" type="line"/>
      <point x="983" y="634" type="line"/>
    </contour>
    <contour>
      <point x="1001" y="727" type="line"/>
      <point x="800" y="727" type="line"/>
      <point x="742" y="375" type="line"/>
      <point x="943" y="375" type="line"/>
    </contour>
  </outline>
</glyph>
<glyph name="registered" format="2">
  <advance height="2479" width="1373"/>
  <unicode hex="00AE"/>
  <outline>
    <contour>
      <point x="503" y="666" type="line"/>
      <point x="621" y="666" type="line"/>
      <point x="695" y="1116" type="line"/>
      <point x="807" y="1116" type="line" smooth="yes"/>
      <point x="834" y="1116"/>
      <point x="881" y="1097"/>
      <point x="871" y="1031" type="curve" smooth="yes"/>
      <point x="862" y="967"/>
      <point x="807" y="935"/>
      <point x="775" y="935" type="curve" smooth="yes"/>
      <point x="615" y="935" type="line"/>
      <point x="601" y="848" type="line"/>
      <point x="797" y="848" type="line" smooth="yes"/>
      <point x="868" y="848"/>
      <point x="980" y="913"/>
      <point x="1001" y="1031" type="curve" smooth="yes"/>
      <point x="1022" y="1148"/>
      <point x="929" y="1203"/>
      <point x="864" y="1203" type="curve" smooth="yes"/>
      <point x="592" y="1203" type="line"/>
    </contour>
    <contour>
      <point x="870" y="919" type="line"/>
      <point x="743" y="919" type="line"/>
      <point x="832" y="666" type="line"/>
      <point x="961" y="666" type="line"/>
    </contour>
    <contour>
      <point x="748" y="346" type="curve" smooth="yes"/>
      <point x="1068" y="346"/>
      <point x="1329" y="607"/>
      <point x="1329" y="928" type="curve" smooth="yes"/>
      <point x="1330" y="1249"/>
      <point x="1068" y="1510"/>
      <point x="748" y="1510" type="curve" smooth="yes"/>
      <point x="425" y="1510"/>
      <point x="165" y="1249"/>
      <point x="166" y="928" type="curve" smooth="yes"/>
      <point x="167" y="607"/>
      <point x="425" y="346"/>
    </contour>
    <contour>
      <point x="748" y="486" type="curve" smooth="yes"/>
      <point x="503" y="486"/>
      <point x="305" y="684"/>
      <point x="305" y="928" type="curve" smooth="yes"/>
      <point x="306" y="1172"/>
      <point x="503" y="1370"/>
      <point x="748" y="1370" type="curve" smooth="yes"/>
      <point x="991" y="1370"/>
      <point x="1189" y="1172"/>
      <point x="1190" y="928" type="curve" smooth="yes"/>
      <point x="1191" y="684"/>
      <point x="991" y="486"/>
    </contour>
  </outline>
</glyph>
<glyph name="macron" format="2">
  <advance height="2479" width="919"/>
  <unicode hex="00AF"/>
  <anchor x="582" y="1303" name="_top"/>
  <outline>
    <contour>
      <point x="954" y="1489" type="line"/>
      <point x="273" y="1489" type="line"/>
      <point x="250" y="1344" type="line"/>
      <point x="931" y="1344" type="line"/>
    </contour>
  </outline>
</glyph>
<glyph name="twosuperior" format="2">
  <advance height="2479" width="858"/>
  <unicode hex="00B2"/>
  <anchor x="701" y="1219" name="cross"/>
  <outline>
    <contour>
      <point x="131" y="745" type="line"/>
      <point x="803" y="745" type="line"/>
      <point x="823" y="873" type="line"/>
      <point x="378" y="873" type="line"/>
      <point x="378" y="879" type="line"/>
      <point x="599" y="1044" type="line" smooth="yes"/>
      <point x="791" y="1190"/>
      <point x="861" y="1268"/>
      <point x="879" y="1379" type="curve" smooth="yes"/>
      <point x="902" y="1530"/>
      <point x="797" y="1649"/>
      <point x="599" y="1649" type="curve" smooth="yes"/>
      <point x="404" y="1649"/>
      <point x="256" y="1533"/>
      <point x="230" y="1373" type="curve"/>
      <point x="384" y="1373" type="line"/>
      <point x="399" y="1466"/>
      <point x="486" y="1524"/>
      <point x="585" y="1524" type="curve" smooth="yes"/>
      <point x="687" y="1524"/>
      <point x="751" y="1469"/>
      <point x="736" y="1382" type="curve" smooth="yes"/>
      <point x="724" y="1309"/>
      <point x="663" y="1254"/>
      <point x="541" y="1161" type="curve" smooth="yes"/>
      <point x="148" y="858" type="line"/>
    </contour>
  </outline>
</glyph>
<glyph name="multiply" format="2">
  <advance height="2479" width="1350"/>
  <unicode hex="00D7"/>
  <outline>
    <contour>
      <point x="957" y="116" type="line"/>
      <point x="1076" y="218" type="line"/>
      <point x="393" y="1039" type="line"/>
      <point x="273" y="937" type="line"/>
    </contour>
    <contour>
      <point x="263" y="119" type="line"/>
      <point x="1197" y="916" type="line"/>
      <point x="1095" y="1036" type="line"/>
      <point x="161" y="239" type="line"/>
    </contour>
  </outline>
</glyph>
<glyph name="germandbls" format="2">
  <advance height="2479" width="1248"/>
  <unicode hex="00DF"/>
  <outline>
    <contour>
      <point x="87" y="0" type="line"/>
      <point x="259" y="0" type="line"/>
      <point x="442" y="1108" type="line" smooth="yes"/>
      <point x="465" y="1251"/>
      <point x="592" y="1350"/>
      <point x="745" y="1350" type="curve" smooth="yes"/>
      <point x="905" y="1350"/>
      <point x="985" y="1239"/>
      <point x="963" y="1100" type="curve" smooth="yes"/>
      <point x="940" y="965"/>
      <point x="828" y="838"/>
      <point x="681" y="838" type="curve" smooth="yes"/>
      <point x="588" y="838" type="line"/>
      <point x="561" y="675" type="line"/>
      <point x="692" y="675" type="line" smooth="yes"/>
      <point x="868" y="675"/>
      <point x="961" y="564"/>
      <point x="937" y="410" type="curve" smooth="yes"/>
      <point x="913" y="263"/>
      <point x="793" y="160"/>
      <point x="634" y="160" type="curve" smooth="yes"/>
      <point x="468" y="160" type="line"/>
      <point x="442" y="0" type="line"/>
      <point x="605" y="0" type="line" smooth="yes"/>
      <point x="868" y="0"/>
      <point x="1068" y="170"/>
      <point x="1108" y="410" type="curve" smooth="yes"/>
      <point x="1143" y="620"/>
      <point x="1031" y="755"/>
      <point x="844" y="774" type="curve"/>
      <point x="847" y="788" type="line"/>
      <point x="994" y="837"/>
      <point x="1111" y="948"/>
      <point x="1137" y="1126" type="curve" smooth="yes"/>
      <point x="1173" y="1365"/>
      <point x="1016" y="1510"/>
      <point x="768" y="1510" type="curve" smooth="yes"/>
      <point x="516" y="1510"/>
      <point x="312" y="1359"/>
      <point x="271" y="1108" type="curve" smooth="yes"/>
    </contour>
  </outline>
</glyph>
<glyph name="eth" format="2">
  <advance height="2479" width="1189"/>
  <unicode hex="00F0"/>
  <outline>
    <contour>
      <point x="1110" y="1417" type="line"/>
      <point x="1078" y="1524" type="line"/>
      <point x="435" y="1236" type="line"/>
      <point x="464" y="1129" type="line"/>
    </contour>
    <contour>
      <point x="499" y="-23" type="curve" smooth="yes"/>
      <point x="793" y="-23"/>
      <point x="1023" y="186"/>
      <point x="1081" y="547" type="curve" smooth="yes"/>
      <point x="1165" y="1056"/>
      <point x="877" y="1414"/>
      <point x="577" y="1583" type="curve"/>
      <point x="481" y="1460" type="line"/>
      <point x="799" y="1283"/>
      <point x="903" y="1039"/>
      <point x="938" y="858" type="curve"/>
      <point x="924" y="858" type="line"/>
      <point x="889" y="945"/>
      <point x="801" y="1047"/>
      <point x="633" y="1047" type="curve" smooth="yes"/>
      <point x="385" y="1047"/>
      <point x="150" y="829"/>
      <point x="97" y="512" type="curve" smooth="yes"/>
      <point x="48" y="201"/>
      <point x="199" y="-23"/>
    </contour>
    <contour>
      <point x="525" y="131" type="curve" smooth="yes"/>
      <point x="301" y="131"/>
      <point x="237" y="314"/>
      <point x="269" y="512" type="curve" smooth="yes"/>
      <point x="304" y="721"/>
      <point x="441" y="905"/>
      <point x="653" y="905" type="curve" smooth="yes"/>
      <point x="883" y="905"/>
      <point x="938" y="689"/>
      <point x="909" y="500" type="curve" smooth="yes"/>
      <point x="874" y="294"/>
      <point x="737" y="131"/>
    </contour>
  </outline>
</glyph>
<glyph name="divide" format="2">
  <advance height="2479" width="1350"/>
  <unicode hex="00F7"/>
  <outline>
    <contour>
      <point x="1158" y="663" type="line"/>
      <point x="227" y="663" type="line"/>
      <point x="201" y="500" type="line"/>
      <point x="1132" y="500" type="line"/>
    </contour>
    <contour>
      <point x="605" y="76" type="curve" smooth="yes"/>
      <point x="669" y="76"/>
      <point x="733" y="128"/>
      <point x="742" y="195" type="curve" smooth="yes"/>
      <point x="752" y="271"/>
      <point x="701" y="335"/>
      <point x="628" y="335" type="curve" smooth="yes"/>
      <point x="559" y="335"/>
      <point x="497" y="282"/>
      <point x="489" y="218" type="curve" smooth="yes"/>
      <point x="478" y="139"/>
      <point x="527" y="76"/>
    </contour>
    <contour>
      <point x="730" y="829" type="curve" smooth="yes"/>
      <point x="794" y="829"/>
      <point x="855" y="881"/>
      <point x="867" y="948" type="curve" smooth="yes"/>
      <point x="880" y="1024"/>
      <point x="826" y="1088"/>
      <point x="753" y="1088" type="curve" smooth="yes"/>
      <point x="684" y="1088"/>
      <point x="623" y="1036"/>
      <point x="611" y="972" type="curve" smooth="yes"/>
      <point x="597" y="894"/>
      <point x="652" y="829"/>
    </contour>
  </outline>
</glyph>
<glyph name="idotless" format="2">
  <advance height="2479" width="486"/>
  <unicode hex="0131"/>
  <anchor x="151" y="0" name="bottom"/>
  <anchor x="250" y="593" name="cross"/>
  <anchor x="236" y="0" name="ogonek"/>
  <anchor x="369" y="1306" name="top"/>
  <outline>
    <contour>
      <point x="64" y="0" type="line"/>
      <point x="236" y="0" type="line"/>
      <point x="422" y="1117" type="line"/>
      <point x="250" y="1117" type="line"/>
    </contour>
  </outline>
</glyph>
<glyph name="kgreenlandic" format="2">
  <advance height="2479" width="1114"/>
  <unicode hex="0138"/>
  <outline>
    <contour>
      <point x="291" y="407" type="line"/>
      <point x="521" y="591" type="line"/>
      <point x="535" y="591" type="line"/>
      <point x="1143" y="1117" type="line"/>
      <point x="931" y="1117" type="line"/>
      <point x="358" y="620" type="line"/>
      <point x="323" y="620" type="line"/>
    </contour>
    <contour>
      <point x="64" y="0" type="line"/>
      <point x="236" y="0" type="line"/>
      <point x="422" y="1117" type="line"/>
      <point x="250" y="1117" type="line"/>
    </contour>
    <contour>
      <point x="774" y="0" type="line"/>
      <point x="992" y="0" type="line"/>
      <point x="570" y="672" type="line"/>
      <point x="431" y="553" type="line"/>
    </contour>
  </outline>
</glyph>
<glyph name="Lslash" format="2">
  <advance height="2479" width="1152"/>
  <unicode hex="0141"/>
  <anchor x="532" y="0" name="bottom"/>
  <anchor x="305" y="768" name="cross"/>
  <anchor x="643" y="794" name="dot"/>
  <anchor x="765" y="1489" name="raccent"/>
  <anchor x="460" y="1676" name="top"/>
  <outline>
    <contour>
      <point x="634" y="931" type="line"/>
      <point x="44" y="745" type="line"/>
      <point x="44" y="614" type="line"/>
      <point x="634" y="800" type="line"/>
    </contour>
    <component base="L"/>
  </outline>
</glyph>
<glyph name="Eng" format="2">
  <advance height="2479" width="1543"/>
  <unicode hex="014A"/>
  <anchor x="678" y="0" name="bottom"/>
  <anchor x="1265" y="0" name="right"/>
  <anchor x="957" y="1676" name="top"/>
  <outline>
    <contour>
      <point x="1094" y="0" type="line"/>
      <point x="1071" y="-116" type="line" smooth="yes"/>
      <point x="1047" y="-232"/>
      <point x="975" y="-268"/>
      <point x="881" y="-268" type="curve" smooth="yes"/>
      <point x="861" y="-268"/>
      <point x="841" y="-265"/>
      <point x="826" y="-262" type="curve"/>
      <point x="803" y="-410" type="line"/>
      <point x="827" y="-419"/>
      <point x="865" y="-419"/>
      <point x="899" y="-419" type="curve" smooth="yes"/>
      <point x="1063" y="-419"/>
      <point x="1208" y="-310"/>
      <point x="1245" y="-119" type="curve" smooth="yes"/>
      <point x="1268" y="0" type="line"/>
    </contour>
    <component base="N"/>
  </outline>
</glyph>
<glyph name="tbar" format="2">
  <advance height="2479" width="745"/>
  <unicode hex="0167"/>
  <anchor x="320" y="0" name="bottom"/>
  <anchor x="407" y="0" name="cedilla"/>
  <anchor x="692" y="1562" name="raccent"/>
  <anchor x="474" y="1489" name="top"/>
  <outline>
    <contour>
      <point x="76" y="611" type="line"/>
      <point x="655" y="611" type="line"/>
      <point x="678" y="745" type="line"/>
      <point x="99" y="745" type="line"/>
    </contour>
    <component base="t"/>
  </outline>
</glyph>
<glyph name="chook" format="2">
  <advance height="2479" width="1251"/>
  <unicode hex="0188"/>
  <anchor x="523" y="0" name="cedilla"/>
  <anchor x="726" y="1303" name="top"/>
  <outline>
    <contour>
      <point x="1088" y="783" type="line"/>
      <point x="1114" y="928" type="line" smooth="yes"/>
      <point x="1135" y="1044"/>
      <point x="1208" y="1079"/>
      <point x="1300" y="1079" type="curve" smooth="yes"/>
      <point x="1321" y="1079"/>
      <point x="1341" y="1076"/>
      <point x="1356" y="1073" type="curve"/>
      <point x="1379" y="1219" type="line"/>
      <point x="1355" y="1228"/>
      <point x="1317" y="1228"/>
      <point x="1283" y="1228" type="curve" smooth="yes"/>
      <point x="1119" y="1228"/>
      <point x="977" y="1119"/>
      <point x="943" y="928" type="curve" smooth="yes"/>
      <point x="916" y="783" type="line"/>
    </contour>
    <component base="c"/>
  </outline>
</glyph>
<glyph name="Dtopbar" format="2">
  <advance height="2479" width="1347"/>
  <unicode hex="018B"/>
  <outline>
    <contour>
      <point x="524" y="0" type="curve" smooth="yes"/>
      <point x="1076" y="0" type="line"/>
      <point x="1322" y="1489" type="line"/>
      <point x="423" y="1489" type="line"/>
      <point x="397" y="1329" type="line"/>
      <point x="1116" y="1329" type="line"/>
      <point x="1039" y="864" type="line"/>
      <point x="656" y="864" type="line" smooth="yes"/>
      <point x="335" y="864"/>
      <point x="140" y="704"/>
      <point x="97" y="451" type="curve" smooth="yes"/>
      <point x="54" y="186"/>
      <point x="203" y="0"/>
    </contour>
    <contour>
      <point x="538" y="157" type="line" smooth="yes"/>
      <point x="335" y="157"/>
      <point x="249" y="291"/>
      <point x="272" y="431" type="curve" smooth="yes"/>
      <point x="297" y="579"/>
      <point x="436" y="704"/>
      <point x="640" y="704" type="curve" smooth="yes"/>
      <point x="1012" y="704" type="line"/>
      <point x="922" y="157" type="line"/>
    </contour>
  </outline>
</glyph>
<glyph name="Gamma-latin" format="2">
  <advance height="2479" width="1292"/>
  <unicode hex="0194"/>
  <outline>
    <contour>
      <point x="175" y="1489" type="line"/>
      <point x="544" y="113" type="line" smooth="yes"/>
      <point x="591" y="-61"/>
      <point x="616" y="-140"/>
      <point x="608" y="-198" type="curve" smooth="yes"/>
      <point x="602" y="-241"/>
      <point x="561" y="-279"/>
      <point x="509" y="-279" type="curve" smooth="yes"/>
      <point x="457" y="-279"/>
      <point x="428" y="-244"/>
      <point x="433" y="-198" type="curve" smooth="yes"/>
      <point x="441" y="-140"/>
      <point x="503" y="-55"/>
      <point x="605" y="113" type="curve" smooth="yes"/>
      <point x="1425" y="1489" type="line"/>
      <point x="1231" y="1489" type="line"/>
      <point x="515" y="282" type="line" smooth="yes"/>
      <point x="358" y="15"/>
      <point x="267" y="-99"/>
      <point x="250" y="-198" type="curve" smooth="yes"/>
      <point x="224" y="-355"/>
      <point x="311" y="-442"/>
      <point x="480" y="-442" type="curve" smooth="yes"/>
      <point x="649" y="-442"/>
      <point x="765" y="-355"/>
      <point x="791" y="-198" type="curve" smooth="yes"/>
      <point x="807" y="-105"/>
      <point x="748" y="15"/>
      <point x="678" y="282" type="curve" smooth="yes"/>
      <point x="369" y="1489" type="line"/>
    </contour>
  </outline>
</glyph>
<glyph name="Khook" format="2">
  <advance height="2479" width="1376"/>
  <unicode hex="0198"/>
  <outline>
    <contour>
      <point x="87" y="0" type="line"/>
      <point x="268" y="0" type="line"/>
      <point x="349" y="483" type="line"/>
      <point x="570" y="692" type="line"/>
      <point x="972" y="0" type="line"/>
      <point x="1190" y="0" type="line"/>
      <point x="701" y="817" type="line"/>
      <point x="1201" y="1274" type="line" smooth="yes"/>
      <point x="1288" y="1353"/>
      <point x="1356" y="1359"/>
      <point x="1411" y="1318" type="curve"/>
      <point x="1507" y="1452" type="line"/>
      <point x="1402" y="1536"/>
      <point x="1245" y="1530"/>
      <point x="1108" y="1402" type="curve" smooth="yes"/>
      <point x="410" y="751" type="line"/>
      <point x="393" y="751" type="line"/>
      <point x="515" y="1489" type="line"/>
      <point x="335" y="1489" type="line"/>
    </contour>
  </outline>
</glyph>
<glyph name="khook" format="2">
  <advance height="2479" width="1091"/>
  <unicode hex="0199"/>
  <outline>
    <contour>
      <point x="762" y="0" type="line"/>
      <point x="969" y="0" type="line"/>
      <point x="591" y="640" type="line"/>
      <point x="1108" y="1117" type="line"/>
      <point x="890" y="1117" type="line"/>
      <point x="352" y="614" type="line"/>
      <point x="337" y="614" type="line"/>
      <point x="428" y="1164" type="line"/>
      <point x="256" y="1164" type="line"/>
      <point x="64" y="0" type="line"/>
      <point x="236" y="0" type="line"/>
      <point x="297" y="369" type="line"/>
      <point x="457" y="515" type="line"/>
    </contour>
    <contour>
      <point x="413" y="1065" type="line"/>
      <point x="436" y="1210" type="line" smooth="yes"/>
      <point x="457" y="1327"/>
      <point x="532" y="1361"/>
      <point x="625" y="1361" type="curve" smooth="yes"/>
      <point x="646" y="1361"/>
      <point x="666" y="1359"/>
      <point x="678" y="1356" type="curve"/>
      <point x="704" y="1501" type="line"/>
      <point x="678" y="1510"/>
      <point x="640" y="1510"/>
      <point x="605" y="1510" type="curve" smooth="yes"/>
      <point x="442" y="1510"/>
      <point x="297" y="1402"/>
      <point x="265" y="1210" type="curve" smooth="yes"/>
      <point x="241" y="1065" type="line"/>
    </contour>
  </outline>
</glyph>
<glyph name="Mturned" format="2">
  <advance height="2479" width="1862"/>
  <unicode hex="019C"/>
  <outline>
    <contour>
      <point x="448" y="-23" type="curve" smooth="yes"/>
      <point x="740" y="-23"/>
      <point x="891" y="198"/>
      <point x="941" y="500" type="curve"/>
      <point x="849" y="509" type="line"/>
      <point x="816" y="308"/>
      <point x="708" y="145"/>
      <point x="512" y="145" type="curve" smooth="yes"/>
      <point x="400" y="145"/>
      <point x="300" y="198"/>
      <point x="340" y="436" type="curve" smooth="yes"/>
      <point x="514" y="1489" type="line"/>
      <point x="334" y="1489" type="line"/>
      <point x="161" y="448" type="line" smooth="yes"/>
      <point x="104" y="102"/>
      <point x="228" y="-23"/>
    </contour>
    <contour>
      <point x="1108" y="-23" type="curve" smooth="yes"/>
      <point x="1401" y="-23"/>
      <point x="1548" y="198"/>
      <point x="1599" y="500" type="curve"/>
      <point x="1507" y="509" type="line"/>
      <point x="1473" y="308"/>
      <point x="1369" y="145"/>
      <point x="1172" y="145" type="curve" smooth="yes"/>
      <point x="1060" y="145"/>
      <point x="961" y="198"/>
      <point x="1000" y="436" type="curve"/>
      <point x="1175" y="1489" type="line"/>
      <point x="994" y="1489" type="line"/>
      <point x="822" y="448" type="line"/>
      <point x="764" y="99"/>
      <point x="892" y="-23"/>
    </contour>
    <contour>
      <point x="1408" y="0" type="line"/>
      <point x="1588" y="0" type="line"/>
      <point x="1835" y="1489" type="line"/>
      <point x="1655" y="1489" type="line"/>
    </contour>
  </outline>
</glyph>
<glyph name="ohorn" format="2">
  <advance height="2479" width="1228"/>
  <unicode hex="01A1"/>
  <anchor x="519" y="0" name="bottom"/>
  <anchor x="647" y="0" name="ogonek"/>
  <anchor x="735" y="1303" name="top"/>
  <outline>
    <contour>
      <point x="1172" y="1201" type="line"/>
      <point x="1146" y="1059"/>
      <point x="1111" y="963"/>
      <point x="966" y="963" type="curve"/>
      <point x="945" y="841" type="line"/>
      <point x="1187" y="841"/>
      <point x="1295" y="980"/>
      <point x="1332" y="1201" type="curve"/>
    </contour>
    <component base="o"/>
  </outline>
</glyph>
<glyph name="oi" format="2">
  <advance height="2479" width="1416"/>
  <unicode hex="01A3"/>
  <outline>
    <contour>
      <point x="522" y="140" type="curve" smooth="yes"/>
      <point x="347" y="140"/>
      <point x="266" y="279"/>
      <point x="301" y="521" type="curve" smooth="yes"/>
      <point x="307" y="561" type="line" smooth="yes"/>
      <point x="337" y="775"/>
      <point x="436" y="972"/>
      <point x="654" y="972" type="curve" smooth="yes"/>
      <point x="718" y="972"/>
      <point x="765" y="954"/>
      <point x="798" y="925" type="curve"/>
      <point x="728" y="509" type="line"/>
      <point x="929" y="509" type="line"/>
      <point x="1008" y="977" type="line"/>
      <point x="947" y="1073"/>
      <point x="837" y="1132"/>
      <point x="686" y="1132" type="curve" smooth="yes"/>
      <point x="357" y="1132"/>
      <point x="152" y="880"/>
      <point x="106" y="561" type="curve" smooth="yes"/>
      <point x="100" y="521" type="line" smooth="yes"/>
      <point x="59" y="232"/>
      <point x="173" y="-20"/>
      <point x="487" y="-20" type="curve" smooth="yes"/>
      <point x="644" y="-20"/>
      <point x="773" y="44"/>
      <point x="868" y="137" type="curve"/>
      <point x="935" y="544" type="line"/>
      <point x="734" y="544" type="line"/>
      <point x="675" y="183" type="line"/>
      <point x="629" y="157"/>
      <point x="583" y="140"/>
    </contour>
    <contour>
      <point x="1349" y="1117" type="line"/>
      <point x="1192" y="1117" type="line"/>
      <point x="912" y="983" type="line"/>
      <point x="869" y="730" type="line"/>
      <point x="1109" y="858" type="line"/>
      <point x="900" y="-419" type="line"/>
      <point x="1098" y="-419" type="line"/>
    </contour>
  </outline>
</glyph>
<glyph name="Phook" format="2">
  <advance height="2479" width="1608"/>
  <unicode hex="01A4"/>
  <anchor x="611" y="1489" name="tonos"/>
  <anchor x="1146" y="1676" name="top"/>
  <outline>
    <contour>
      <point x="358" y="1094" type="line"/>
      <point x="367" y="1149" type="line" smooth="yes"/>
      <point x="381" y="1242"/>
      <point x="411" y="1329"/>
      <point x="527" y="1329" type="curve" smooth="yes"/>
      <point x="669" y="1329" type="line"/>
      <point x="695" y="1489" type="line"/>
      <point x="550" y="1489" type="line" smooth="yes"/>
      <point x="359" y="1489"/>
      <point x="228" y="1356"/>
      <point x="204" y="1193" type="curve" smooth="yes"/>
      <point x="189" y="1094" type="line"/>
    </contour>
    <component base="P" xOffset="311"/>
  </outline>
</glyph>
<glyph name="Thook" format="2">
  <advance height="2479" width="1398"/>
  <unicode hex="01AC"/>
  <outline>
    <contour>
      <point x="895" y="1489" type="line"/>
      <point x="552" y="1489" type="line" smooth="yes"/>
      <point x="368" y="1489"/>
      <point x="234" y="1370"/>
      <point x="205" y="1196" type="curve" smooth="yes"/>
      <point x="191" y="1108" type="line"/>
      <point x="354" y="1108" type="line"/>
      <point x="362" y="1164" type="line" smooth="yes"/>
      <point x="376" y="1248"/>
      <point x="423" y="1329"/>
      <point x="525" y="1329" type="curve" smooth="yes"/>
      <point x="869" y="1329" type="line"/>
    </contour>
    <contour>
      <point x="1453" y="1489" type="line"/>
      <point x="662" y="1489" type="line"/>
      <point x="636" y="1329" type="line"/>
      <point x="778" y="1329" type="line"/>
      <point x="557" y="0" type="line"/>
      <point x="738" y="0" type="line"/>
      <point x="959" y="1329" type="line"/>
      <point x="1427" y="1329" type="line"/>
    </contour>
  </outline>
</glyph>
<glyph name="Tretroflexhook" format="2">
  <advance height="2479" width="1315"/>
  <unicode hex="01AE"/>
  <anchor x="564" y="0" name="bottom"/>
  <anchor x="585" y="0" name="cedilla"/>
  <anchor x="692" y="768" name="cross"/>
  <anchor x="748" y="64" name="cyrtic"/>
  <anchor x="605" y="0" name="right"/>
  <anchor x="844" y="1676" name="top"/>
  <outline>
    <contour>
      <point x="655" y="0" type="line"/>
      <point x="474" y="0" type="line"/>
      <point x="454" y="-122" type="line" smooth="yes"/>
      <point x="422" y="-316"/>
      <point x="553" y="-419"/>
      <point x="716" y="-419" type="curve"/>
      <point x="815" y="-419" type="line"/>
      <point x="841" y="-259" type="line"/>
      <point x="785" y="-259" type="line"/>
      <point x="692" y="-259"/>
      <point x="615" y="-236"/>
      <point x="634" y="-119" type="curve" smooth="yes"/>
    </contour>
    <component base="T"/>
  </outline>
</glyph>
<glyph name="Uhorn" format="2">
  <advance height="2479" width="1771"/>
  <unicode hex="01AF"/>
  <anchor x="662" y="-20" name="bottom"/>
  <anchor x="807" y="0" name="ogonek"/>
  <anchor x="749" y="0" name="right"/>
  <anchor x="942" y="1676" name="top"/>
  <outline>
    <contour>
      <point x="1673" y="1580" type="line"/>
      <point x="1641" y="1388"/>
      <point x="1568" y="1286"/>
      <point x="1364" y="1286" type="curve"/>
      <point x="1341" y="1143" type="line"/>
      <point x="1649" y="1143"/>
      <point x="1795" y="1295"/>
      <point x="1841" y="1580" type="curve"/>
    </contour>
    <component base="U"/>
  </outline>
</glyph>
<glyph name="uhorn" format="2">
  <advance height="2479" width="1274"/>
  <unicode hex="01B0"/>
  <anchor x="503" y="0" name="bottom"/>
  <anchor x="939" y="0" name="ogonek"/>
  <anchor x="718" y="1303" name="top"/>
  <outline>
    <contour>
      <point x="1260" y="1167" type="line"/>
      <point x="1236" y="1015"/>
      <point x="1223" y="951"/>
      <point x="1041" y="951" type="curve"/>
      <point x="1021" y="832" type="line"/>
      <point x="1284" y="832"/>
      <point x="1375" y="945"/>
      <point x="1411" y="1167" type="curve"/>
    </contour>
    <component base="u"/>
  </outline>
</glyph>
<glyph name="Upsilon-latin" format="2">
  <advance height="2479" width="1559"/>
  <unicode hex="01B1"/>
  <outline>
    <contour>
      <point x="145" y="704" type="curve" smooth="yes"/>
      <point x="76" y="279"/>
      <point x="300" y="-20"/>
      <point x="684" y="-20" type="curve" smooth="yes"/>
      <point x="1068" y="-20"/>
      <point x="1391" y="279"/>
      <point x="1460" y="704" type="curve" smooth="yes"/>
      <point x="1507" y="986"/>
      <point x="1425" y="1196"/>
      <point x="1251" y="1318" type="curve"/>
      <point x="1254" y="1329" type="line"/>
      <point x="1565" y="1329" type="line"/>
      <point x="1591" y="1489" type="line"/>
      <point x="1062" y="1489" type="line"/>
      <point x="1027" y="1286" type="line"/>
      <point x="1207" y="1204"/>
      <point x="1332" y="983"/>
      <point x="1286" y="704" type="curve" smooth="yes"/>
      <point x="1236" y="393"/>
      <point x="995" y="148"/>
      <point x="713" y="148" type="curve" smooth="yes"/>
      <point x="431" y="148"/>
      <point x="271" y="393"/>
      <point x="320" y="704" type="curve" smooth="yes"/>
      <point x="367" y="983"/>
      <point x="567" y="1204"/>
      <point x="771" y="1286" type="curve"/>
      <point x="806" y="1489" type="line"/>
      <point x="276" y="1489" type="line"/>
      <point x="250" y="1329" type="line"/>
      <point x="561" y="1329" type="line"/>
      <point x="559" y="1318" type="line"/>
      <point x="346" y="1193"/>
      <point x="192" y="986"/>
    </contour>
  </outline>
</glyph>
<glyph name="Yhook" format="2">
  <advance height="2479" width="1446"/>
  <unicode hex="01B3"/>
  <outline>
    <contour>
      <point x="698" y="759" type="line"/>
      <point x="733" y="759" type="line"/>
      <point x="739" y="794" type="line"/>
      <point x="704" y="794" type="line"/>
    </contour>
    <contour>
      <point x="209" y="1489" type="line"/>
      <point x="602" y="614" type="line"/>
      <point x="500" y="0" type="line"/>
      <point x="681" y="0" type="line"/>
      <point x="783" y="614" type="line"/>
      <point x="1289" y="1265" type="line" smooth="yes"/>
      <point x="1354" y="1350"/>
      <point x="1423" y="1361"/>
      <point x="1487" y="1332" type="curve"/>
      <point x="1556" y="1478" type="line"/>
      <point x="1425" y="1545"/>
      <point x="1271" y="1501"/>
      <point x="1149" y="1341" type="curve" smooth="yes"/>
      <point x="721" y="780" type="line"/>
      <point x="416" y="1489" type="line"/>
    </contour>
  </outline>
</glyph>
<glyph name="yhook" format="2">
  <advance height="2479" width="1287"/>
  <unicode hex="01B4"/>
  <outline>
    <contour>
      <point x="106" y="-419" type="curve" smooth="yes"/>
      <point x="260" y="-419"/>
      <point x="388" y="-337"/>
      <point x="481" y="-163" type="curve" smooth="yes"/>
      <point x="1094" y="989" type="line" smooth="yes"/>
      <point x="1180" y="1151"/>
      <point x="1232" y="1228"/>
      <point x="1322" y="1228" type="curve" smooth="yes"/>
      <point x="1363" y="1228"/>
      <point x="1404" y="1210"/>
      <point x="1439" y="1190" type="curve"/>
      <point x="1504" y="1309" type="line"/>
      <point x="1462" y="1350"/>
      <point x="1398" y="1379"/>
      <point x="1322" y="1379" type="curve" smooth="yes"/>
      <point x="1142" y="1379"/>
      <point x="1016" y="1213"/>
      <point x="932" y="1050" type="curve" smooth="yes"/>
      <point x="511" y="227" type="line"/>
      <point x="502" y="227" type="line"/>
      <point x="342" y="1117" type="line"/>
      <point x="163" y="1117" type="line"/>
      <point x="387" y="0" type="line"/>
      <point x="339" y="-87" type="line" smooth="yes"/>
      <point x="246" y="-257"/>
      <point x="173" y="-279"/>
      <point x="52" y="-247" type="curve"/>
      <point x="-16" y="-399" type="line"/>
      <point x="0" y="-407"/>
      <point x="48" y="-419"/>
    </contour>
  </outline>
</glyph>
<glyph name="ezhreversed" format="2">
  <advance height="2479" width="1263"/>
  <unicode hex="01B9"/>
  <anchor x="769" y="1303" name="top"/>
  <outline>
    <contour>
      <point x="519" y="-442" type="curve" smooth="yes"/>
      <point x="763" y="-442"/>
      <point x="915" y="-340"/>
      <point x="1004" y="-223" type="curve"/>
      <point x="867" y="-109" type="line"/>
      <point x="757" y="-233"/>
      <point x="665" y="-282"/>
      <point x="529" y="-282" type="curve" smooth="yes"/>
      <point x="323" y="-282"/>
      <point x="196" y="-159"/>
      <point x="225" y="20" type="curve" smooth="yes"/>
      <point x="259" y="218"/>
      <point x="451" y="352"/>
      <point x="703" y="352" type="curve" smooth="yes"/>
      <point x="819" y="352" type="line"/>
      <point x="841" y="497" type="line"/>
      <point x="544" y="945" type="line"/>
      <point x="547" y="957" type="line"/>
      <point x="1169" y="957" type="line"/>
      <point x="1196" y="1117" type="line"/>
      <point x="326" y="1117" type="line"/>
      <point x="307" y="986" type="line"/>
      <point x="620" y="503" type="line"/>
      <point x="620" y="492" type="line"/>
      <point x="323" y="479"/>
      <point x="102" y="307"/>
      <point x="60" y="51" type="curve" smooth="yes"/>
      <point x="12" y="-236"/>
      <point x="208" y="-442"/>
    </contour>
  </outline>
</glyph>
<glyph name="clickdental" format="2">
  <advance height="2479" width="544"/>
  <unicode hex="01C0"/>
  <outline>
    <contour>
      <point x="506" y="1489" type="line"/>
      <point x="346" y="1489" type="line"/>
      <point x="99" y="0" type="line"/>
      <point x="259" y="0" type="line"/>
    </contour>
  </outline>
</glyph>
<glyph name="Hwair" format="2">
  <advance height="2479" width="2327"/>
  <unicode hex="01F6"/>
  <outline>
    <contour>
      <point x="1548" y="-20" type="curve" smooth="yes"/>
      <point x="1830" y="-20"/>
      <point x="2054" y="143"/>
      <point x="2109" y="471" type="curve" smooth="yes"/>
      <point x="2217" y="1117" type="line"/>
      <point x="2036" y="1117" type="line"/>
      <point x="1929" y="471" type="line" smooth="yes"/>
      <point x="1891" y="247"/>
      <point x="1769" y="145"/>
      <point x="1574" y="145" type="curve" smooth="yes"/>
      <point x="1379" y="145"/>
      <point x="1283" y="247"/>
      <point x="1321" y="471" type="curve" smooth="yes"/>
      <point x="1489" y="1489" type="line"/>
      <point x="1309" y="1489" type="line"/>
      <point x="1199" y="826" type="line"/>
      <point x="404" y="826" type="line"/>
      <point x="515" y="1489" type="line"/>
      <point x="335" y="1489" type="line"/>
      <point x="87" y="0" type="line"/>
      <point x="268" y="0" type="line"/>
      <point x="378" y="666" type="line"/>
      <point x="1172" y="666" type="line"/>
      <point x="1140" y="471" type="line" smooth="yes"/>
      <point x="1088" y="148"/>
      <point x="1257" y="-20"/>
    </contour>
  </outline>
</glyph>
<glyph name="Nlongrightleg" format="2">
  <advance height="2479" width="1419"/>
  <unicode hex="0220"/>
  <outline>
    <contour>
      <point x="896" y="-419" type="line"/>
      <point x="1076" y="-419" type="line"/>
      <point x="1301" y="941" type="line" smooth="yes"/>
      <point x="1360" y="1299"/>
      <point x="1225" y="1510"/>
      <point x="932" y="1510" type="curve" smooth="yes"/>
      <point x="741" y="1510"/>
      <point x="558" y="1412"/>
      <point x="471" y="1260" type="curve"/>
      <point x="463" y="1260" type="line"/>
      <point x="504" y="1490" type="line"/>
      <point x="334" y="1490" type="line"/>
      <point x="87" y="0" type="line"/>
      <point x="263" y="0" type="line"/>
      <point x="411" y="891" type="line" smooth="yes"/>
      <point x="453" y="1149"/>
      <point x="651" y="1350"/>
      <point x="868" y="1350" type="curve" smooth="yes"/>
      <point x="1079" y="1350"/>
      <point x="1164" y="1204"/>
      <point x="1120" y="937" type="curve" smooth="yes"/>
    </contour>
  </outline>
</glyph>
<glyph name="dcurl" format="2">
  <advance height="2479" width="1472"/>
  <unicode hex="0221"/>
  <anchor x="521" y="0" name="bottom"/>
  <anchor x="1126" y="1280" name="cross"/>
  <anchor x="1404" y="1489" name="raccent"/>
  <anchor x="748" y="1489" name="top"/>
  <outline>
    <contour>
      <point x="867" y="253" type="line"/>
      <point x="809" y="-105" type="line"/>
      <point x="785" y="-253"/>
      <point x="842" y="-419"/>
      <point x="1068" y="-419" type="curve" smooth="yes"/>
      <point x="1247" y="-419"/>
      <point x="1378" y="-311"/>
      <point x="1405" y="-154" type="curve" smooth="yes"/>
      <point x="1433" y="6"/>
      <point x="1329" y="111"/>
      <point x="1169" y="111" type="curve" smooth="yes"/>
      <point x="1061" y="111"/>
      <point x="930" y="62"/>
      <point x="820" y="-35" type="curve" smooth="yes"/>
      <point x="556" y="-268" type="line"/>
      <point x="649" y="-381" type="line"/>
      <point x="966" y="-105" type="line" smooth="yes"/>
      <point x="1017" y="-60"/>
      <point x="1079" y="-29"/>
      <point x="1146" y="-41" type="curve" smooth="yes"/>
      <point x="1206" y="-51"/>
      <point x="1237" y="-93"/>
      <point x="1228" y="-154" type="curve" smooth="yes"/>
      <point x="1217" y="-221"/>
      <point x="1161" y="-271"/>
      <point x="1091" y="-271" type="curve" smooth="yes"/>
      <point x="1018" y="-271"/>
      <point x="963" y="-218"/>
      <point x="980" y="-119" type="curve"/>
      <point x="1039" y="253" type="line"/>
    </contour>
    <component base="d"/>
  </outline>
</glyph>
<glyph name="OU" format="2">
  <advance height="2479" width="1292"/>
  <unicode hex="0222"/>
  <outline>
    <contour>
      <point x="688" y="881" type="line" name="hr00"/>
      <point x="376" y="881"/>
      <point x="110" y="730"/>
      <point x="61" y="433" type="curve" smooth="yes"/>
      <point x="11" y="128"/>
      <point x="227" y="-20"/>
      <point x="538" y="-20" type="curve" smooth="yes"/>
      <point x="561" y="-20" type="line" smooth="yes"/>
      <point x="873" y="-20"/>
      <point x="1139" y="128"/>
      <point x="1190" y="436" type="curve" smooth="yes"/>
      <point x="1239" y="730"/>
      <point x="1022" y="881"/>
      <point x="711" y="881" type="curve" smooth="yes"/>
    </contour>
    <contour>
      <point x="685" y="724" type="line"/>
      <point x="894" y="724"/>
      <point x="1015" y="631"/>
      <point x="983" y="436" type="curve" smooth="yes"/>
      <point x="951" y="236"/>
      <point x="799" y="151"/>
      <point x="589" y="151" type="curve" smooth="yes"/>
      <point x="566" y="151" type="line" smooth="yes"/>
      <point x="357" y="151"/>
      <point x="234" y="236"/>
      <point x="268" y="433" type="curve" smooth="yes"/>
      <point x="301" y="631"/>
      <point x="452" y="724"/>
      <point x="662" y="724" type="curve" smooth="yes"/>
    </contour>
    <contour>
      <point x="681" y="896" type="line"/>
      <point x="500" y="896"/>
      <point x="348" y="925"/>
      <point x="383" y="1129" type="curve" smooth="yes"/>
      <point x="404" y="1257"/>
      <point x="478" y="1321"/>
      <point x="608" y="1353" type="curve"/>
      <point x="634" y="1510" type="line"/>
      <point x="415" y="1498"/>
      <point x="217" y="1379"/>
      <point x="176" y="1129" type="curve" smooth="yes"/>
      <point x="127" y="826"/>
      <point x="367" y="739"/>
      <point x="655" y="739" type="curve" smooth="yes"/>
      <point x="695" y="739" type="line" smooth="yes"/>
      <point x="984" y="739"/>
      <point x="1255" y="826"/>
      <point x="1305" y="1129" type="curve" smooth="yes"/>
      <point x="1346" y="1379"/>
      <point x="1191" y="1498"/>
      <point x="972" y="1510" type="curve"/>
      <point x="945" y="1353" type="line"/>
      <point x="1065" y="1321"/>
      <point x="1119" y="1257"/>
      <point x="1098" y="1129" type="curve" smooth="yes"/>
      <point x="1065" y="925"/>
      <point x="905" y="896"/>
      <point x="721" y="896" type="curve" smooth="yes"/>
    </contour>
  </outline>
</glyph>
<glyph name="lcurl" format="2">
  <advance height="2479" width="701"/>
  <unicode hex="0234"/>
  <outline>
    <contour>
      <point x="105" y="244" type="line"/>
      <point x="47" y="-105" type="line"/>
      <point x="23" y="-253"/>
      <point x="79" y="-419"/>
      <point x="303" y="-419" type="curve" smooth="yes"/>
      <point x="483" y="-419"/>
      <point x="617" y="-311"/>
      <point x="640" y="-154" type="curve" smooth="yes"/>
      <point x="669" y="6"/>
      <point x="567" y="111"/>
      <point x="407" y="111" type="curve" smooth="yes"/>
      <point x="300" y="111"/>
      <point x="169" y="61"/>
      <point x="58" y="-35" type="curve" smooth="yes"/>
      <point x="-207" y="-268" type="line"/>
      <point x="-113" y="-381" type="line"/>
      <point x="125" y="-169" type="line" smooth="yes"/>
      <point x="195" y="-105"/>
      <point x="265" y="-44"/>
      <point x="358" y="-44" type="curve" smooth="yes"/>
      <point x="433" y="-44"/>
      <point x="474" y="-84"/>
      <point x="463" y="-154" type="curve" smooth="yes"/>
      <point x="454" y="-221"/>
      <point x="399" y="-271"/>
      <point x="329" y="-271" type="curve" smooth="yes"/>
      <point x="256" y="-271"/>
      <point x="201" y="-215"/>
      <point x="212" y="-148" type="curve"/>
      <point x="276" y="244" type="line"/>
    </contour>
    <contour>
      <point x="483" y="1489" type="line"/>
      <point x="311" y="1489" type="line"/>
      <point x="64" y="0" type="line"/>
      <point x="236" y="0" type="line"/>
    </contour>
  </outline>
</glyph>
<glyph name="ncurl" format="2">
  <advance height="2479" width="1553"/>
  <unicode hex="0235"/>
  <anchor x="506" y="0" name="bottom"/>
  <anchor x="721" y="1303" name="top"/>
  <outline>
    <contour>
      <point x="794" y="111" type="line"/>
      <point x="788" y="64" type="line"/>
      <point x="762" y="-84"/>
      <point x="820" y="-250"/>
      <point x="1044" y="-250" type="curve" smooth="yes"/>
      <point x="1225" y="-250"/>
      <point x="1356" y="-143"/>
      <point x="1382" y="15" type="curve" smooth="yes"/>
      <point x="1409" y="175"/>
      <point x="1306" y="279"/>
      <point x="1146" y="279" type="curve" smooth="yes"/>
      <point x="1036" y="279"/>
      <point x="908" y="229"/>
      <point x="800" y="134" type="curve" smooth="yes"/>
      <point x="535" y="-99" type="line"/>
      <point x="625" y="-212" type="line"/>
      <point x="864" y="0" type="line" smooth="yes"/>
      <point x="936" y="65"/>
      <point x="1004" y="125"/>
      <point x="1097" y="125" type="curve" smooth="yes"/>
      <point x="1172" y="125"/>
      <point x="1216" y="84"/>
      <point x="1204" y="15" type="curve" smooth="yes"/>
      <point x="1193" y="-52"/>
      <point x="1137" y="-102"/>
      <point x="1068" y="-102" type="curve" smooth="yes"/>
      <point x="995" y="-102"/>
      <point x="943" y="-47"/>
      <point x="951" y="20" type="curve"/>
      <point x="966" y="111" type="line"/>
    </contour>
    <component base="n"/>
  </outline>
</glyph>
<glyph name="qpdigraph" format="2">
  <advance height="2479" width="2110"/>
  <unicode hex="0239"/>
  <outline>
    <contour>
      <point x="807" y="-419" type="line"/>
      <point x="979" y="-419" type="line"/>
      <point x="1078" y="172" type="line"/>
      <point x="1094" y="172" type="line"/>
      <point x="1123" y="111"/>
      <point x="1172" y="-23"/>
      <point x="1388" y="-23" type="curve" smooth="yes"/>
      <point x="1667" y="-23"/>
      <point x="1899" y="201"/>
      <point x="1958" y="556" type="curve" smooth="yes"/>
      <point x="2016" y="908"/>
      <point x="1859" y="1132"/>
      <point x="1577" y="1132" type="curve" smooth="yes"/>
      <point x="1358" y="1132"/>
      <point x="1268" y="998"/>
      <point x="1222" y="940" type="curve"/>
      <point x="1202" y="940" type="line"/>
      <point x="1231" y="1117" type="line"/>
      <point x="1065" y="1117" type="line"/>
      <point x="1035" y="940" type="line"/>
      <point x="1014" y="940" type="line"/>
      <point x="987" y="998"/>
      <point x="942" y="1132"/>
      <point x="723" y="1132" type="curve" smooth="yes"/>
      <point x="441" y="1132"/>
      <point x="209" y="908"/>
      <point x="152" y="556" type="curve" smooth="yes"/>
      <point x="93" y="201"/>
      <point x="251" y="-23"/>
      <point x="530" y="-23" type="curve" smooth="yes"/>
      <point x="745" y="-23"/>
      <point x="840" y="111"/>
      <point x="888" y="172" type="curve"/>
      <point x="904" y="172" type="line"/>
    </contour>
    <contour>
      <point x="578" y="131" type="curve" smooth="yes"/>
      <point x="363" y="131"/>
      <point x="284" y="320"/>
      <point x="323" y="559" type="curve" smooth="yes"/>
      <point x="363" y="794"/>
      <point x="500" y="977"/>
      <point x="719" y="977" type="curve" smooth="yes"/>
      <point x="928" y="977"/>
      <point x="1011" y="809"/>
      <point x="969" y="559" type="curve" smooth="yes"/>
      <point x="927" y="305"/>
      <point x="785" y="131"/>
    </contour>
    <contour>
      <point x="1391" y="131" type="curve" smooth="yes"/>
      <point x="1184" y="131"/>
      <point x="1099" y="305"/>
      <point x="1141" y="559" type="curve" smooth="yes"/>
      <point x="1181" y="809"/>
      <point x="1320" y="977"/>
      <point x="1531" y="977" type="curve" smooth="yes"/>
      <point x="1748" y="977"/>
      <point x="1824" y="794"/>
      <point x="1787" y="559" type="curve" smooth="yes"/>
      <point x="1745" y="320"/>
      <point x="1606" y="131"/>
    </contour>
  </outline>
</glyph>
<glyph name="Astroke" format="2">
  <advance height="2479" width="1385"/>
  <unicode hex="023A"/>
  <unicode hex="2C65"/>
  <anchor x="599" y="0" name="bottom"/>
  <anchor x="1239" y="0" name="ogonek"/>
  <anchor x="649" y="1489" name="tonos"/>
  <anchor x="879" y="1676" name="top"/>
  <outline>
    <contour>
      <point x="1329" y="1679" type="line"/>
      <point x="1164" y="1679" type="line"/>
      <point x="189" y="-189" type="line"/>
      <point x="355" y="-189" type="line"/>
    </contour>
    <component base="A"/>
  </outline>
</glyph>
<glyph name="cstroke" format="2">
  <advance height="2479" width="1142"/>
  <unicode hex="023C"/>
  <anchor x="523" y="0" name="cedilla"/>
  <anchor x="726" y="1303" name="top"/>
  <outline>
    <contour>
      <point x="1190" y="1489" type="line"/>
      <point x="1053" y="1489" type="line"/>
      <point x="-29" y="-419" type="line"/>
      <point x="111" y="-419" type="line"/>
    </contour>
    <component base="c"/>
  </outline>
</glyph>
<glyph name="Glottalstop" format="2">
  <advance height="2479" width="1180"/>
  <unicode hex="0241"/>
  <outline>
    <contour>
      <point x="545" y="399" type="line"/>
      <point x="850" y="399"/>
      <point x="1082" y="620"/>
      <point x="1137" y="953" type="curve" smooth="yes"/>
      <point x="1194" y="1295"/>
      <point x="1027" y="1524"/>
      <point x="719" y="1524" type="curve" smooth="yes"/>
      <point x="487" y="1524"/>
      <point x="293" y="1385"/>
      <point x="229" y="1175" type="curve"/>
      <point x="404" y="1175" type="line"/>
      <point x="454" y="1293"/>
      <point x="574" y="1364"/>
      <point x="713" y="1364" type="curve" smooth="yes"/>
      <point x="906" y="1364"/>
      <point x="1007" y="1217"/>
      <point x="967" y="977" type="curve" smooth="yes"/>
      <point x="925" y="727"/>
      <point x="762" y="559"/>
      <point x="561" y="559" type="curve"/>
    </contour>
    <contour>
      <point x="383" y="0" type="line"/>
      <point x="564" y="0" type="line"/>
      <point x="657" y="559" type="line"/>
      <point x="476" y="559" type="line"/>
    </contour>
  </outline>
</glyph>
<glyph name="glottalstopsmall" format="2">
  <advance height="2479" width="1024"/>
  <unicode hex="0242"/>
  <outline>
    <contour>
      <point x="423" y="297" type="line"/>
      <point x="476" y="297" type="line" smooth="yes"/>
      <point x="719" y="297"/>
      <point x="902" y="460"/>
      <point x="943" y="704" type="curve" smooth="yes"/>
      <point x="985" y="963"/>
      <point x="838" y="1132"/>
      <point x="576" y="1132" type="curve" smooth="yes"/>
      <point x="340" y="1132"/>
      <point x="164" y="993"/>
      <point x="129" y="783" type="curve"/>
      <point x="284" y="783" type="line"/>
      <point x="303" y="900"/>
      <point x="412" y="977"/>
      <point x="553" y="977" type="curve" smooth="yes"/>
      <point x="715" y="977"/>
      <point x="799" y="876"/>
      <point x="772" y="716" type="curve" smooth="yes"/>
      <point x="745" y="556"/>
      <point x="629" y="448"/>
      <point x="487" y="448" type="curve" smooth="yes"/>
      <point x="448" y="448" type="line"/>
    </contour>
    <contour>
      <point x="332" y="0" type="line"/>
      <point x="503" y="0" type="line"/>
      <point x="577" y="448" type="line"/>
      <point x="406" y="448" type="line"/>
    </contour>
  </outline>
</glyph>
<glyph name="Ubar" format="2">
  <advance height="2479" width="1519"/>
  <unicode hex="0244"/>
  <anchor x="662" y="-20" name="bottom"/>
  <anchor x="807" y="0" name="ogonek"/>
  <anchor x="749" y="0" name="right"/>
  <anchor x="942" y="1676" name="top"/>
  <outline>
    <contour>
      <point x="1574" y="864" type="line"/>
      <point x="44" y="864" type="line"/>
      <point x="26" y="745" type="line"/>
      <point x="1556" y="745" type="line"/>
    </contour>
    <component base="U"/>
  </outline>
</glyph>
<glyph name="Estroke" format="2">
  <advance height="2479" width="1225"/>
  <unicode hex="0246"/>
  <anchor x="521" y="0" name="bottom"/>
  <anchor x="524" y="0" name="cedilla"/>
  <anchor x="998" y="0" name="ogonek"/>
  <anchor x="288" y="1489" name="tonos"/>
  <anchor x="815" y="1676" name="top"/>
  <outline>
    <contour>
      <point x="198" y="-189" type="line"/>
      <point x="364" y="-189" type="line"/>
      <point x="1213" y="1679" type="line"/>
      <point x="1047" y="1679" type="line"/>
    </contour>
    <component base="E"/>
  </outline>
</glyph>
<glyph name="estroke" format="2">
  <advance height="2479" width="1241"/>
  <unicode hex="0247"/>
  <anchor x="505" y="0" name="bottom"/>
  <anchor x="508" y="0" name="cedilla"/>
  <anchor x="674" y="0" name="ogonek"/>
  <anchor x="721" y="1303" name="top"/>
  <outline>
    <contour>
      <point x="1190" y="1489" type="line"/>
      <point x="1053" y="1489" type="line"/>
      <point x="-29" y="-419" type="line"/>
      <point x="111" y="-419" type="line"/>
    </contour>
    <component base="e"/>
  </outline>
</glyph>
<glyph name="qhooktail" format="2">
  <advance height="2479" width="1356"/>
  <unicode hex="024B"/>
  <outline>
    <contour>
      <point x="1094" y="-419" type="curve" smooth="yes"/>
      <point x="1129" y="-419"/>
      <point x="1167" y="-419"/>
      <point x="1196" y="-410" type="curve"/>
      <point x="1219" y="-265" type="line"/>
      <point x="1205" y="-268"/>
      <point x="1184" y="-271"/>
      <point x="1164" y="-271" type="curve" smooth="yes"/>
      <point x="1071" y="-271"/>
      <point x="1007" y="-236"/>
      <point x="1024" y="-119" type="curve" smooth="yes"/>
      <point x="1039" y="-47" type="line"/>
      <point x="867" y="-47" type="line"/>
      <point x="853" y="-119" type="line" smooth="yes"/>
      <point x="824" y="-311"/>
      <point x="931" y="-419"/>
    </contour>
    <contour>
      <point x="530" y="-23" type="curve" smooth="yes"/>
      <point x="745" y="-23"/>
      <point x="841" y="111"/>
      <point x="888" y="172" type="curve"/>
      <point x="972" y="172" type="line"/>
      <point x="1100" y="940" type="line"/>
      <point x="1016" y="940" type="line"/>
      <point x="987" y="998"/>
      <point x="943" y="1132"/>
      <point x="725" y="1132" type="curve" smooth="yes"/>
      <point x="443" y="1132"/>
      <point x="210" y="908"/>
      <point x="152" y="556" type="curve" smooth="yes"/>
      <point x="94" y="201"/>
      <point x="251" y="-23"/>
    </contour>
    <contour>
      <point x="1039" y="-47" type="line"/>
      <point x="1231" y="1117" type="line"/>
      <point x="1065" y="1117" type="line"/>
      <point x="1030" y="908" type="line"/>
      <point x="1022" y="547" type="line"/>
      <point x="917" y="265" type="line"/>
      <point x="867" y="-47" type="line"/>
    </contour>
    <contour>
      <point x="579" y="131" type="curve" smooth="yes"/>
      <point x="364" y="131"/>
      <point x="283" y="320"/>
      <point x="323" y="559" type="curve" smooth="yes"/>
      <point x="361" y="794"/>
      <point x="501" y="977"/>
      <point x="719" y="977" type="curve" smooth="yes"/>
      <point x="928" y="977"/>
      <point x="1010" y="809"/>
      <point x="969" y="559" type="curve" smooth="yes"/>
      <point x="928" y="305"/>
      <point x="786" y="131"/>
    </contour>
  </outline>
</glyph>
<glyph name="Rstroke" format="2">
  <advance height="2479" width="1300"/>
  <unicode hex="024C"/>
  <anchor x="596" y="0" name="bottom"/>
  <anchor x="849" y="1676" name="top"/>
  <outline>
    <contour>
      <point x="305" y="582" type="line"/>
      <point x="332" y="745" type="line"/>
      <point x="55" y="745" type="line"/>
      <point x="29" y="582" type="line"/>
    </contour>
    <component base="R" xOffset="17"/>
  </outline>
</glyph>
<glyph name="oopen" format="2">
  <advance height="2479" width="1142"/>
  <unicode hex="0254"/>
  <outline>
    <contour>
      <point x="445" y="-23" type="curve" smooth="yes"/>
      <point x="754" y="-23"/>
      <point x="980" y="212"/>
      <point x="1034" y="541" type="curve" smooth="yes"/>
      <point x="1092" y="887"/>
      <point x="926" y="1132"/>
      <point x="618" y="1132" type="curve" smooth="yes"/>
      <point x="388" y="1132"/>
      <point x="193" y="992"/>
      <point x="129" y="783" type="curve"/>
      <point x="301" y="783" type="line"/>
      <point x="344" y="884"/>
      <point x="455" y="977"/>
      <point x="611" y="977" type="curve" smooth="yes"/>
      <point x="807" y="977"/>
      <point x="908" y="817"/>
      <point x="867" y="570" type="curve" smooth="yes"/>
      <point x="823" y="305"/>
      <point x="658" y="131"/>
      <point x="449" y="131" type="curve" smooth="yes"/>
      <point x="321" y="131"/>
      <point x="234" y="204"/>
      <point x="223" y="326" type="curve"/>
      <point x="55" y="326" type="line"/>
      <point x="51" y="128"/>
      <point x="193" y="-23"/>
    </contour>
  </outline>
</glyph>
<glyph name="ccurl" format="2">
  <advance height="2479" width="1143"/>
  <unicode hex="0255"/>
  <outline>
    <contour>
      <point x="515" y="-23" type="curve"/>
      <point x="541" y="131" type="line"/>
      <point x="337" y="131"/>
      <point x="233" y="300"/>
      <point x="276" y="559" type="curve" smooth="yes"/>
      <point x="317" y="812"/>
      <point x="480" y="977"/>
      <point x="681" y="977" type="curve" smooth="yes"/>
      <point x="832" y="977"/>
      <point x="908" y="884"/>
      <point x="916" y="783" type="curve"/>
      <point x="1088" y="783" type="line"/>
      <point x="1094" y="992"/>
      <point x="940" y="1132"/>
      <point x="704" y="1132" type="curve" smooth="yes"/>
      <point x="401" y="1132"/>
      <point x="160" y="893"/>
      <point x="105" y="559" type="curve" smooth="yes"/>
      <point x="47" y="215"/>
      <point x="204" y="-23"/>
    </contour>
    <contour>
      <point x="6" y="-38" type="line"/>
      <point x="111" y="52"/>
      <point x="477" y="401"/>
      <point x="707" y="401" type="curve" smooth="yes"/>
      <point x="756" y="401"/>
      <point x="817" y="369"/>
      <point x="806" y="297" type="curve" smooth="yes"/>
      <point x="791" y="201"/>
      <point x="675" y="131"/>
      <point x="541" y="131" type="curve"/>
      <point x="515" y="-23" type="line"/>
      <point x="745" y="-23"/>
      <point x="948" y="102"/>
      <point x="980" y="303" type="curve" smooth="yes"/>
      <point x="1007" y="448"/>
      <point x="931" y="553"/>
      <point x="736" y="553" type="curve" smooth="yes"/>
      <point x="372" y="553"/>
      <point x="38" y="183"/>
      <point x="-96" y="67" type="curve"/>
    </contour>
  </outline>
</glyph>
<glyph name="eopenreversed" format="2">
  <advance height="2479" width="1177"/>
  <unicode hex="025C"/>
  <anchor x="688" y="1303" name="top"/>
  <outline>
    <contour>
      <point x="606" y="582" type="curve"/>
      <point x="455" y="582" type="line"/>
      <point x="440" y="500" type="line"/>
      <point x="574" y="500" type="line" smooth="yes"/>
      <point x="732" y="500"/>
      <point x="817" y="417"/>
      <point x="800" y="311" type="curve" smooth="yes"/>
      <point x="782" y="207"/>
      <point x="660" y="137"/>
      <point x="491" y="137" type="curve" smooth="yes"/>
      <point x="328" y="137"/>
      <point x="254" y="198"/>
      <point x="247" y="326" type="curve"/>
      <point x="66" y="326" type="line"/>
      <point x="56" y="116"/>
      <point x="209" y="-20"/>
      <point x="474" y="-20" type="curve" smooth="yes"/>
      <point x="733" y="-20"/>
      <point x="946" y="109"/>
      <point x="978" y="303" type="curve" smooth="yes"/>
      <point x="998" y="421"/>
      <point x="953" y="582"/>
    </contour>
    <contour>
      <point x="446" y="535" type="line"/>
      <point x="597" y="535" type="line"/>
      <point x="938" y="535"/>
      <point x="1021" y="684"/>
      <point x="1041" y="803" type="curve" smooth="yes"/>
      <point x="1075" y="1009"/>
      <point x="922" y="1132"/>
      <point x="667" y="1132" type="curve" smooth="yes"/>
      <point x="413" y="1132"/>
      <point x="228" y="1011"/>
      <point x="165" y="809" type="curve"/>
      <point x="346" y="809" type="line"/>
      <point x="387" y="910"/>
      <point x="492" y="977"/>
      <point x="642" y="977" type="curve" smooth="yes"/>
      <point x="795" y="977"/>
      <point x="883" y="906"/>
      <point x="866" y="803" type="curve" smooth="yes"/>
      <point x="850" y="710"/>
      <point x="762" y="649"/>
      <point x="599" y="649" type="curve" smooth="yes"/>
      <point x="465" y="649" type="line"/>
    </contour>
  </outline>
</glyph>
<glyph name="eopenreversedclosed" format="2">
  <advance height="2479" width="1150"/>
  <unicode hex="025E"/>
  <outline>
    <contour>
      <point x="500" y="-20" type="curve" smooth="yes"/>
      <point x="760" y="-20"/>
      <point x="973" y="109"/>
      <point x="1005" y="303" type="curve" smooth="yes"/>
      <point x="1025" y="421"/>
      <point x="980" y="582"/>
      <point x="633" y="582" type="curve"/>
      <point x="481" y="582" type="line"/>
      <point x="467" y="500" type="line"/>
      <point x="601" y="500" type="line" smooth="yes"/>
      <point x="759" y="500"/>
      <point x="844" y="417"/>
      <point x="826" y="311" type="curve" smooth="yes"/>
      <point x="809" y="207"/>
      <point x="689" y="137"/>
      <point x="527" y="137" type="curve" smooth="yes"/>
      <point x="303" y="137"/>
      <point x="223" y="303"/>
      <point x="268" y="576" type="curve"/>
      <point x="96" y="576" type="line"/>
      <point x="35" y="205"/>
      <point x="169" y="-20"/>
    </contour>
    <contour>
      <point x="624" y="535" type="line"/>
      <point x="965" y="535"/>
      <point x="1047" y="684"/>
      <point x="1068" y="803" type="curve" smooth="yes"/>
      <point x="1102" y="1009"/>
      <point x="948" y="1132"/>
      <point x="694" y="1132" type="curve" smooth="yes"/>
      <point x="361" y="1132"/>
      <point x="153" y="921"/>
      <point x="96" y="576" type="curve"/>
      <point x="268" y="576" type="line"/>
      <point x="309" y="825"/>
      <point x="446" y="977"/>
      <point x="678" y="977" type="curve" smooth="yes"/>
      <point x="824" y="977"/>
      <point x="910" y="906"/>
      <point x="893" y="803" type="curve" smooth="yes"/>
      <point x="877" y="710"/>
      <point x="788" y="649"/>
      <point x="625" y="649" type="curve" smooth="yes"/>
      <point x="492" y="649" type="line"/>
      <point x="473" y="535" type="line"/>
    </contour>
  </outline>
</glyph>
<glyph name="ghook" format="2">
  <advance height="2479" width="1257"/>
  <unicode hex="0260"/>
  <anchor x="458" y="-442" name="bottom"/>
  <anchor x="1011" y="564" name="cross"/>
  <anchor x="749" y="1303" name="top"/>
  <outline>
    <contour>
      <point x="1184" y="1117" type="line"/>
      <point x="1201" y="1210" type="line" smooth="yes"/>
      <point x="1223" y="1327"/>
      <point x="1295" y="1361"/>
      <point x="1388" y="1361" type="curve" smooth="yes"/>
      <point x="1409" y="1361"/>
      <point x="1428" y="1359"/>
      <point x="1443" y="1356" type="curve"/>
      <point x="1466" y="1501" type="line"/>
      <point x="1442" y="1510"/>
      <point x="1404" y="1510"/>
      <point x="1370" y="1510" type="curve" smooth="yes"/>
      <point x="1207" y="1510"/>
      <point x="1071" y="1401"/>
      <point x="1036" y="1210" type="curve" smooth="yes"/>
      <point x="1018" y="1117" type="line"/>
    </contour>
    <component base="g"/>
  </outline>
</glyph>
<glyph name="Gsmall" format="2">
  <advance height="2479" width="1172"/>
  <unicode hex="0262"/>
  <outline>
    <contour>
      <point x="923" y="765" type="curve"/>
      <point x="1091" y="765" type="line"/>
      <point x="1085" y="986"/>
      <point x="922" y="1132"/>
      <point x="682" y="1132" type="curve" smooth="yes"/>
      <point x="390" y="1132"/>
      <point x="163" y="908"/>
      <point x="106" y="567" type="curve" smooth="yes"/>
      <point x="48" y="212"/>
      <point x="213" y="-23"/>
      <point x="529" y="-23" type="curve" smooth="yes"/>
      <point x="795" y="-23"/>
      <point x="997" y="144"/>
      <point x="1040" y="407" type="curve" smooth="yes"/>
      <point x="1066" y="559" type="line"/>
      <point x="637" y="559" type="line"/>
      <point x="612" y="413" type="line"/>
      <point x="925" y="413" type="line"/>
      <point x="872" y="429" type="line"/>
      <point x="843" y="252"/>
      <point x="706" y="130"/>
      <point x="531" y="131" type="curve" smooth="yes"/>
      <point x="331" y="130"/>
      <point x="232" y="293"/>
      <point x="275" y="544" type="curve" smooth="yes"/>
      <point x="317" y="804"/>
      <point x="478" y="978"/>
      <point x="675" y="979" type="curve" smooth="yes"/>
      <point x="805" y="978"/>
      <point x="903" y="893"/>
    </contour>
  </outline>
</glyph>
<glyph name="gamma-latin" format="2">
  <advance height="2479" width="1219"/>
  <unicode hex="0263"/>
  <outline>
    <contour>
      <point x="441" y="-442" type="curve" smooth="yes"/>
      <point x="609" y="-442"/>
      <point x="723" y="-355"/>
      <point x="751" y="-198" type="curve" smooth="yes"/>
      <point x="756" y="-163"/>
      <point x="759" y="-102"/>
      <point x="736" y="-32" type="curve" smooth="yes"/>
      <point x="352" y="1117" type="line"/>
      <point x="163" y="1117" type="line"/>
      <point x="495" y="102" type="line" smooth="yes"/>
      <point x="550" y="-70"/>
      <point x="580" y="-140"/>
      <point x="570" y="-198" type="curve" smooth="yes"/>
      <point x="563" y="-241"/>
      <point x="522" y="-276"/>
      <point x="470" y="-276" type="curve" smooth="yes"/>
      <point x="417" y="-276"/>
      <point x="388" y="-244"/>
      <point x="396" y="-198" type="curve" smooth="yes"/>
      <point x="405" y="-137"/>
      <point x="471" y="-64"/>
      <point x="573" y="93" type="curve" smooth="yes"/>
      <point x="1242" y="1117" type="line"/>
      <point x="1053" y="1117" type="line"/>
      <point x="288" y="-32" type="line" smooth="yes"/>
      <point x="250" y="-90"/>
      <point x="217" y="-154"/>
      <point x="209" y="-198" type="curve" smooth="yes"/>
      <point x="182" y="-355"/>
      <point x="272" y="-442"/>
    </contour>
  </outline>
</glyph>
<glyph name="ramshorn" format="2">
  <advance height="2479" width="1478"/>
  <unicode hex="0264"/>
  <outline>
    <contour>
      <point x="649" y="-20" type="curve"/>
      <point x="665" y="145" type="line"/>
      <point x="606" y="145"/>
      <point x="576" y="172"/>
      <point x="583" y="217" type="curve" smooth="yes"/>
      <point x="596" y="294"/>
      <point x="697" y="412"/>
      <point x="908" y="698" type="curve" smooth="yes"/>
      <point x="1028" y="871"/>
      <point x="1096" y="960"/>
      <point x="1184" y="960" type="curve" smooth="yes"/>
      <point x="1239" y="960"/>
      <point x="1282" y="921"/>
      <point x="1309" y="874" type="curve"/>
      <point x="1431" y="976" type="line"/>
      <point x="1376" y="1055"/>
      <point x="1294" y="1132"/>
      <point x="1174" y="1132" type="curve" smooth="yes"/>
      <point x="974" y="1132"/>
      <point x="845" y="902"/>
      <point x="672" y="671" type="curve" smooth="yes"/>
      <point x="554" y="500"/>
      <point x="435" y="358"/>
      <point x="415" y="230" type="curve" smooth="yes"/>
      <point x="391" y="90"/>
      <point x="476" y="-20"/>
    </contour>
    <contour>
      <point x="649" y="-20" type="line"/>
      <point x="820" y="-20"/>
      <point x="930" y="79"/>
      <point x="951" y="207" type="curve" smooth="yes"/>
      <point x="975" y="346"/>
      <point x="897" y="490"/>
      <point x="829" y="650" type="curve" smooth="yes"/>
      <point x="740" y="892"/>
      <point x="683" y="1132"/>
      <point x="473" y="1132" type="curve" smooth="yes"/>
      <point x="363" y="1132"/>
      <point x="260" y="1063"/>
      <point x="180" y="985" type="curve"/>
      <point x="279" y="865" type="line"/>
      <point x="321" y="912"/>
      <point x="383" y="960"/>
      <point x="448" y="960" type="curve" smooth="yes"/>
      <point x="526" y="960"/>
      <point x="561" y="881"/>
      <point x="630" y="719" type="curve" smooth="yes"/>
      <point x="738" y="423"/>
      <point x="796" y="305"/>
      <point x="785" y="240" type="curve" smooth="yes"/>
      <point x="776" y="184"/>
      <point x="725" y="145"/>
      <point x="665" y="145" type="curve"/>
    </contour>
  </outline>
</glyph>
<glyph name="hhook" format="2">
  <advance height="2479" width="1199"/>
  <unicode hex="0266"/>
  <anchor x="506" y="0" name="bottom"/>
  <anchor x="721" y="1303" name="top"/>
  <outline>
    <contour>
      <point x="416" y="1117" type="line"/>
      <point x="431" y="1210" type="line" smooth="yes"/>
      <point x="449" y="1327"/>
      <point x="532" y="1361"/>
      <point x="625" y="1361" type="curve" smooth="yes"/>
      <point x="646" y="1361"/>
      <point x="666" y="1359"/>
      <point x="678" y="1356" type="curve"/>
      <point x="704" y="1501" type="line"/>
      <point x="678" y="1510"/>
      <point x="640" y="1510"/>
      <point x="605" y="1510" type="curve" smooth="yes"/>
      <point x="442" y="1510"/>
      <point x="295" y="1402"/>
      <point x="265" y="1210" type="curve" smooth="yes"/>
      <point x="250" y="1117" type="line"/>
    </contour>
    <component base="n"/>
  </outline>
</glyph>
<glyph name="lbelt" format="2">
  <advance height="2479" width="858"/>
  <unicode hex="026C"/>
  <outline>
    <contour>
      <point x="847" y="599" type="line"/>
      <point x="873" y="759" type="line"/>
      <point x="378" y="759" type="line" smooth="yes"/>
      <point x="308" y="759"/>
      <point x="268" y="809"/>
      <point x="279" y="867" type="curve" smooth="yes"/>
      <point x="288" y="928"/>
      <point x="343" y="980"/>
      <point x="404" y="980" type="curve" smooth="yes"/>
      <point x="486" y="980"/>
      <point x="515" y="925"/>
      <point x="503" y="861" type="curve" smooth="yes"/>
      <point x="439" y="468" type="line"/>
      <point x="611" y="468" type="line"/>
      <point x="672" y="844" type="line" smooth="yes"/>
      <point x="701" y="1012"/>
      <point x="617" y="1132"/>
      <point x="433" y="1132" type="curve" smooth="yes"/>
      <point x="253" y="1132"/>
      <point x="122" y="1015"/>
      <point x="99" y="867" type="curve" smooth="yes"/>
      <point x="70" y="701"/>
      <point x="189" y="599"/>
      <point x="349" y="599" type="curve" smooth="yes"/>
    </contour>
    <contour>
      <point x="780" y="1489" type="line"/>
      <point x="608" y="1489" type="line"/>
      <point x="361" y="0" type="line"/>
      <point x="532" y="0" type="line"/>
    </contour>
  </outline>
</glyph>
<glyph name="lhookretroflex" format="2">
  <advance height="2479" width="594"/>
  <unicode hex="026D"/>
  <anchor x="151" y="0" name="bottom"/>
  <anchor x="280" y="768" name="cross"/>
  <anchor x="626" y="1489" name="raccent"/>
  <anchor x="429" y="1676" name="top"/>
  <outline>
    <contour>
      <point x="236" y="0" type="line"/>
      <point x="65" y="0" type="line"/>
      <point x="44" y="-119" type="line" smooth="yes"/>
      <point x="12" y="-311"/>
      <point x="124" y="-419"/>
      <point x="286" y="-419" type="curve" smooth="yes"/>
      <point x="321" y="-419"/>
      <point x="359" y="-419"/>
      <point x="388" y="-410" type="curve"/>
      <point x="411" y="-265" type="line"/>
      <point x="397" y="-268"/>
      <point x="377" y="-271"/>
      <point x="356" y="-271" type="curve" smooth="yes"/>
      <point x="263" y="-271"/>
      <point x="197" y="-236"/>
      <point x="216" y="-119" type="curve" smooth="yes"/>
    </contour>
    <component base="l" xOffset="1"/>
  </outline>
</glyph>
<glyph name="mlonglegturned" format="2">
  <advance height="2479" width="1780"/>
  <unicode hex="0270"/>
  <anchor x="797" y="0" name="bottom"/>
  <anchor x="1012" y="1303" name="top"/>
  <outline>
    <contour>
      <point x="1295" y="-419" type="line"/>
      <point x="1460" y="-419" type="line"/>
      <point x="1530" y="0" type="line"/>
      <point x="1364" y="0" type="line"/>
    </contour>
    <component base="mturned"/>
  </outline>
</glyph>
<glyph name="nhookretroflex" format="2">
  <advance height="2479" width="1190"/>
  <unicode hex="0273"/>
  <anchor x="506" y="0" name="bottom"/>
  <anchor x="721" y="1303" name="top"/>
  <outline>
    <contour>
      <point x="948" y="0" type="line"/>
      <point x="777" y="0" type="line"/>
      <point x="756" y="-119" type="line" smooth="yes"/>
      <point x="724" y="-311"/>
      <point x="835" y="-419"/>
      <point x="998" y="-419" type="curve" smooth="yes"/>
      <point x="1033" y="-419"/>
      <point x="1071" y="-419"/>
      <point x="1100" y="-410" type="curve"/>
      <point x="1123" y="-265" type="line"/>
      <point x="1108" y="-268"/>
      <point x="1088" y="-271"/>
      <point x="1068" y="-271" type="curve" smooth="yes"/>
      <point x="975" y="-271"/>
      <point x="908" y="-236"/>
      <point x="928" y="-119" type="curve" smooth="yes"/>
    </contour>
    <component base="n"/>
  </outline>
</glyph>
<glyph name="rlonglegturned" format="2">
  <advance height="2479" width="768"/>
  <unicode hex="027A"/>
  <outline>
    <contour>
      <point x="59" y="-17" type="curve" smooth="yes"/>
      <point x="188" y="-17"/>
      <point x="312" y="53"/>
      <point x="372" y="163" type="curve"/>
      <point x="383" y="169" type="line"/>
      <point x="354" y="0" type="line"/>
      <point x="520" y="0" type="line"/>
      <point x="770" y="1510" type="line"/>
      <point x="599" y="1510" type="line"/>
      <point x="417" y="416" type="line" smooth="yes"/>
      <point x="392" y="265"/>
      <point x="248" y="148"/>
      <point x="81" y="148" type="curve" smooth="yes"/>
      <point x="39" y="148"/>
      <point x="-7" y="156"/>
      <point x="-18" y="159" type="curve"/>
      <point x="-36" y="-15" type="line"/>
      <point x="-16" y="-15"/>
      <point x="28" y="-17"/>
    </contour>
  </outline>
</glyph>
<glyph name="Rsmall" format="2">
  <advance height="2479" width="1146"/>
  <unicode hex="0280"/>
  <outline>
    <contour>
      <point x="65" y="0" type="line"/>
      <point x="228" y="0" type="line"/>
      <point x="388" y="960" type="line"/>
      <point x="689" y="960" type="line"/>
      <point x="823" y="960"/>
      <point x="889" y="900"/>
      <point x="872" y="797" type="curve"/>
      <point x="854" y="684"/>
      <point x="763" y="614"/>
      <point x="642" y="614" type="curve"/>
      <point x="286" y="614" type="line"/>
      <point x="260" y="454" type="line"/>
      <point x="626" y="454" type="line"/>
      <point x="853" y="454"/>
      <point x="1007" y="574"/>
      <point x="1041" y="774" type="curve"/>
      <point x="1075" y="985"/>
      <point x="945" y="1117"/>
      <point x="705" y="1117" type="curve"/>
      <point x="251" y="1117" type="line"/>
    </contour>
    <contour>
      <point x="789" y="0" type="line"/>
      <point x="971" y="0" type="line"/>
      <point x="745" y="556" type="line"/>
      <point x="564" y="556" type="line"/>
    </contour>
  </outline>
</glyph>
<glyph name="Rsmallinverted" format="2">
  <advance height="2479" width="1151"/>
  <unicode hex="0281"/>
  <outline>
    <contour>
      <point x="65" y="0" type="line"/>
      <point x="530" y="0" type="line"/>
      <point x="771" y="0"/>
      <point x="932" y="120"/>
      <point x="965" y="320" type="curve"/>
      <point x="1000" y="532"/>
      <point x="878" y="663"/>
      <point x="649" y="663" type="curve"/>
      <point x="295" y="663" type="line"/>
      <point x="268" y="503" type="line"/>
      <point x="633" y="503" type="line"/>
      <point x="756" y="503"/>
      <point x="814" y="444"/>
      <point x="796" y="343" type="curve"/>
      <point x="778" y="229"/>
      <point x="679" y="157"/>
      <point x="546" y="157" type="curve"/>
      <point x="254" y="157" type="line"/>
      <point x="414" y="1117" type="line"/>
      <point x="251" y="1117" type="line"/>
    </contour>
    <contour>
      <point x="561" y="561" type="line"/>
      <point x="751" y="561" type="line"/>
      <point x="1160" y="1117" type="line"/>
      <point x="969" y="1117" type="line"/>
    </contour>
  </outline>
</glyph>
<glyph name="eshsquatreversed" format="2">
  <advance height="2479" width="919"/>
  <unicode hex="0285"/>
  <outline>
    <contour>
      <point x="465" y="0" type="line"/>
      <point x="592" y="768" type="line" smooth="yes"/>
      <point x="631" y="1005"/>
      <point x="516" y="1132"/>
      <point x="289" y="1132" type="curve" smooth="yes"/>
      <point x="249" y="1132"/>
      <point x="205" y="1126"/>
      <point x="161" y="1114" type="curve"/>
      <point x="144" y="957" type="line"/>
      <point x="170" y="963"/>
      <point x="211" y="966"/>
      <point x="246" y="966" type="curve" smooth="yes"/>
      <point x="362" y="966"/>
      <point x="415" y="894"/>
      <point x="394" y="768" type="curve" smooth="yes"/>
      <point x="268" y="0" type="line"/>
    </contour>
    <contour>
      <point x="383" y="692" type="line"/>
      <point x="255" y="-79" type="line" smooth="yes"/>
      <point x="215" y="-315"/>
      <point x="330" y="-442"/>
      <point x="557" y="-442" type="curve" smooth="yes"/>
      <point x="598" y="-442"/>
      <point x="644" y="-436"/>
      <point x="688" y="-428" type="curve"/>
      <point x="703" y="-268" type="line"/>
      <point x="676" y="-273"/>
      <point x="639" y="-276"/>
      <point x="604" y="-276" type="curve" smooth="yes"/>
      <point x="490" y="-276"/>
      <point x="431" y="-207"/>
      <point x="452" y="-79" type="curve" smooth="yes"/>
      <point x="580" y="692" type="line"/>
    </contour>
  </outline>
</glyph>
<glyph name="ubar" format="2">
  <advance height="2479" width="1242"/>
  <unicode hex="0289"/>
  <anchor x="529" y="0" name="bottom"/>
  <anchor x="965" y="0" name="ogonek"/>
  <anchor x="744" y="1303" name="top"/>
  <outline>
    <contour>
      <point x="1268" y="713" type="line"/>
      <point x="29" y="713" type="line"/>
      <point x="6" y="579" type="line"/>
      <point x="1245" y="579" type="line"/>
    </contour>
    <component base="u" xOffset="26"/>
  </outline>
</glyph>
<glyph name="upsilon-latin" format="2">
  <advance height="2479" width="1204"/>
  <unicode hex="028A"/>
  <outline>
    <contour>
      <point x="515" y="-23" type="curve" smooth="yes"/>
      <point x="794" y="-23"/>
      <point x="1040" y="206"/>
      <point x="1087" y="493" type="curve" smooth="yes"/>
      <point x="1119" y="686"/>
      <point x="1055" y="846"/>
      <point x="921" y="943" type="curve"/>
      <point x="930" y="957" type="line"/>
      <point x="1163" y="957" type="line"/>
      <point x="1189" y="1117" type="line"/>
      <point x="790" y="1117" type="line"/>
      <point x="764" y="925" type="line"/>
      <point x="891" y="868"/>
      <point x="950" y="711"/>
      <point x="920" y="525" type="curve" smooth="yes"/>
      <point x="880" y="290"/>
      <point x="720" y="131"/>
      <point x="520" y="131" type="curve" smooth="yes"/>
      <point x="328" y="131"/>
      <point x="230" y="279"/>
      <point x="268" y="502" type="curve" smooth="yes"/>
      <point x="300" y="699"/>
      <point x="422" y="864"/>
      <point x="571" y="922" type="curve"/>
      <point x="597" y="1117" type="line"/>
      <point x="197" y="1117" type="line"/>
      <point x="171" y="957" type="line"/>
      <point x="405" y="957" type="line"/>
      <point x="399" y="948" type="line"/>
      <point x="234" y="852"/>
      <point x="128" y="697"/>
      <point x="98" y="518" type="curve" smooth="yes"/>
      <point x="48" y="217"/>
      <point x="227" y="-23"/>
    </contour>
  </outline>
</glyph>
<glyph name="Ysmall" format="2">
  <advance height="2479" width="1062"/>
  <unicode hex="028F"/>
  <outline>
    <contour>
      <point x="352" y="0" type="line"/>
      <point x="524" y="0" type="line"/>
      <point x="602" y="461" type="line"/>
      <point x="1113" y="1117" type="line"/>
      <point x="909" y="1117" type="line"/>
      <point x="544" y="636" type="line"/>
      <point x="538" y="636" type="line"/>
      <point x="333" y="1117" type="line"/>
      <point x="134" y="1117" type="line"/>
      <point x="431" y="461" type="line"/>
    </contour>
  </outline>
</glyph>
<glyph name="zretroflexhook" format="2">
  <advance height="2479" width="1222"/>
  <unicode hex="0290"/>
  <anchor x="454" y="0" name="bottom"/>
  <anchor x="553" y="559" name="cross"/>
  <anchor x="675" y="1303" name="top"/>
  <outline>
    <contour>
      <point x="736" y="0" type="line"/>
      <point x="713" y="-140" type="line" smooth="yes"/>
      <point x="681" y="-332"/>
      <point x="791" y="-436"/>
      <point x="957" y="-436" type="curve" smooth="yes"/>
      <point x="989" y="-436"/>
      <point x="1033" y="-433"/>
      <point x="1059" y="-425" type="curve"/>
      <point x="1082" y="-276" type="line"/>
      <point x="1068" y="-282"/>
      <point x="1041" y="-282"/>
      <point x="1027" y="-282" type="curve" smooth="yes"/>
      <point x="934" y="-282"/>
      <point x="865" y="-256"/>
      <point x="884" y="-140" type="curve" smooth="yes"/>
      <point x="908" y="0" type="line"/>
    </contour>
    <component base="z"/>
  </outline>
</glyph>
<glyph name="zcurl" format="2">
  <advance height="2479" width="1259"/>
  <unicode hex="0291"/>
  <outline>
    <contour>
      <point x="582" y="0" type="line"/>
      <point x="687" y="0" type="line" smooth="yes"/>
      <point x="1008" y="0"/>
      <point x="1154" y="204"/>
      <point x="1176" y="337" type="curve" smooth="yes"/>
      <point x="1198" y="474"/>
      <point x="1099" y="573"/>
      <point x="960" y="573" type="curve" smooth="yes"/>
      <point x="758" y="573"/>
      <point x="595" y="367"/>
      <point x="291" y="20" type="curve" smooth="yes"/>
      <point x="184" y="-102" type="line"/>
      <point x="303" y="-192" type="line"/>
      <point x="489" y="20" type="line" smooth="yes"/>
      <point x="703" y="268"/>
      <point x="802" y="407"/>
      <point x="920" y="407" type="curve" smooth="yes"/>
      <point x="968" y="407"/>
      <point x="1014" y="381"/>
      <point x="1007" y="323" type="curve" smooth="yes"/>
      <point x="991" y="244"/>
      <point x="889" y="160"/>
      <point x="716" y="160" type="curve" smooth="yes"/>
      <point x="608" y="160" type="line"/>
    </contour>
    <contour>
      <point x="699" y="160" type="line"/>
      <point x="291" y="160" type="line"/>
      <point x="1054" y="980" type="line"/>
      <point x="1077" y="1117" type="line"/>
      <point x="216" y="1117" type="line"/>
      <point x="190" y="957" type="line"/>
      <point x="830" y="957" type="line"/>
      <point x="64" y="145" type="line"/>
      <point x="41" y="0" type="line"/>
      <point x="672" y="0" type="line"/>
    </contour>
  </outline>
</glyph>
<glyph name="ezhcurl" format="2">
  <advance height="2479" width="1294"/>
  <unicode hex="0293"/>
  <outline>
    <contour>
      <point x="285" y="1117" type="line"/>
      <point x="258" y="957" type="line"/>
      <point x="896" y="957" type="line"/>
      <point x="896" y="945" type="line"/>
      <point x="448" y="497" type="line"/>
      <point x="424" y="352" type="line"/>
      <point x="564" y="352" type="line" smooth="yes"/>
      <point x="752" y="352"/>
      <point x="864" y="212"/>
      <point x="839" y="61" type="curve" smooth="yes"/>
      <point x="818" y="-73"/>
      <point x="677" y="-259"/>
      <point x="413" y="-259" type="curve" smooth="yes"/>
      <point x="276" y="-259"/>
      <point x="154" y="-207"/>
      <point x="168" y="-111" type="curve" smooth="yes"/>
      <point x="178" y="-47"/>
      <point x="248" y="-3"/>
      <point x="354" y="-3" type="curve" smooth="yes"/>
      <point x="493" y="-3"/>
      <point x="590" y="-81"/>
      <point x="654" y="-143" type="curve" smooth="yes"/>
      <point x="896" y="-375" type="line"/>
      <point x="1015" y="-259" type="line"/>
      <point x="770" y="-26" type="line" smooth="yes"/>
      <point x="692" y="48"/>
      <point x="566" y="157"/>
      <point x="375" y="157" type="curve" smooth="yes"/>
      <point x="179" y="157"/>
      <point x="45" y="49"/>
      <point x="20" y="-108" type="curve" smooth="yes"/>
      <point x="-11" y="-306"/>
      <point x="154" y="-419"/>
      <point x="378" y="-419" type="curve" smooth="yes"/>
      <point x="727" y="-419"/>
      <point x="978" y="-166"/>
      <point x="1016" y="70" type="curve" smooth="yes"/>
      <point x="1050" y="276"/>
      <point x="908" y="465"/>
      <point x="657" y="492" type="curve"/>
      <point x="657" y="503" type="line"/>
      <point x="1140" y="986" type="line"/>
      <point x="1160" y="1117" type="line"/>
    </contour>
  </outline>
</glyph>
<glyph name="glottalstop" format="2">
  <advance height="2479" width="1155"/>
  <unicode hex="0294"/>
  <anchor x="485" y="202" name="cross"/>
  <outline>
    <contour>
      <point x="524" y="404" type="line"/>
      <point x="829" y="404"/>
      <point x="1060" y="620"/>
      <point x="1115" y="953" type="curve" smooth="yes"/>
      <point x="1172" y="1295"/>
      <point x="1005" y="1524"/>
      <point x="697" y="1524" type="curve" smooth="yes"/>
      <point x="465" y="1524"/>
      <point x="271" y="1385"/>
      <point x="207" y="1175" type="curve"/>
      <point x="379" y="1175" type="line"/>
      <point x="429" y="1293"/>
      <point x="553" y="1370"/>
      <point x="695" y="1370" type="curve" smooth="yes"/>
      <point x="885" y="1370"/>
      <point x="988" y="1217"/>
      <point x="948" y="977" type="curve" smooth="yes"/>
      <point x="906" y="727"/>
      <point x="740" y="559"/>
      <point x="539" y="559" type="curve"/>
    </contour>
    <contour>
      <point x="366" y="0" type="line"/>
      <point x="537" y="0" type="line"/>
      <point x="631" y="559" type="line"/>
      <point x="459" y="559" type="line"/>
    </contour>
  </outline>
</glyph>
<glyph name="glottalstopreversed" format="2">
  <advance height="2479" width="1154"/>
  <unicode hex="0295"/>
  <anchor x="552" y="202" name="cross"/>
  <outline>
    <contour>
      <point x="591" y="404" type="curve"/>
      <point x="606" y="559" type="line"/>
      <point x="405" y="559"/>
      <point x="303" y="716"/>
      <point x="342" y="954" type="curve" smooth="yes"/>
      <point x="384" y="1205"/>
      <point x="550" y="1370"/>
      <point x="751" y="1370" type="curve" smooth="yes"/>
      <point x="882" y="1370"/>
      <point x="972" y="1293"/>
      <point x="984" y="1175" type="curve"/>
      <point x="1151" y="1175" type="line"/>
      <point x="1157" y="1385"/>
      <point x="1000" y="1524"/>
      <point x="757" y="1524" type="curve" smooth="yes"/>
      <point x="460" y="1524"/>
      <point x="229" y="1307"/>
      <point x="174" y="976" type="curve" smooth="yes"/>
      <point x="118" y="632"/>
      <point x="286" y="404"/>
    </contour>
    <contour>
      <point x="432" y="0" type="line"/>
      <point x="604" y="0" type="line"/>
      <point x="697" y="559" type="line"/>
      <point x="526" y="559" type="line"/>
    </contour>
  </outline>
</glyph>
<glyph name="cstretched" format="2">
  <advance height="2479" width="1143"/>
  <unicode hex="0297"/>
  <outline>
    <contour>
      <point x="463" y="-442" type="curve" smooth="yes"/>
      <point x="681" y="-442"/>
      <point x="889" y="-292"/>
      <point x="943" y="-93" type="curve"/>
      <point x="772" y="-93" type="line"/>
      <point x="732" y="-204"/>
      <point x="599" y="-288"/>
      <point x="477" y="-288" type="curve" smooth="yes"/>
      <point x="265" y="-288"/>
      <point x="178" y="-39"/>
      <point x="240" y="336" type="curve" smooth="yes"/>
      <point x="304" y="724"/>
      <point x="483" y="977"/>
      <point x="697" y="977" type="curve" smooth="yes"/>
      <point x="819" y="977"/>
      <point x="916" y="894"/>
      <point x="919" y="783" type="curve"/>
      <point x="1087" y="783" type="line"/>
      <point x="1099" y="982"/>
      <point x="930" y="1132"/>
      <point x="711" y="1132" type="curve" smooth="yes"/>
      <point x="397" y="1132"/>
      <point x="150" y="823"/>
      <point x="71" y="354" type="curve" smooth="yes"/>
      <point x="-8" y="-126"/>
      <point x="145" y="-442"/>
    </contour>
  </outline>
</glyph>
<glyph name="eopenclosed" format="2">
  <advance height="2479" width="1152"/>
  <unicode hex="029A"/>
  <outline>
    <contour>
      <point x="460" y="-20" type="curve" smooth="yes"/>
      <point x="791" y="-20"/>
      <point x="1001" y="207"/>
      <point x="1062" y="576" type="curve"/>
      <point x="890" y="576" type="line"/>
      <point x="844" y="303"/>
      <point x="710" y="137"/>
      <point x="486" y="137" type="curve" smooth="yes"/>
      <point x="323" y="137"/>
      <point x="227" y="207"/>
      <point x="244" y="311" type="curve" smooth="yes"/>
      <point x="262" y="416"/>
      <point x="375" y="500"/>
      <point x="532" y="500" type="curve" smooth="yes"/>
      <point x="666" y="500" type="line"/>
      <point x="678" y="582" type="line"/>
      <point x="527" y="582" type="line"/>
      <point x="180" y="582"/>
      <point x="81" y="422"/>
      <point x="61" y="303" type="curve" smooth="yes"/>
      <point x="29" y="111"/>
      <point x="201" y="-20"/>
    </contour>
    <contour>
      <point x="521" y="535" type="curve"/>
      <point x="672" y="535" type="line"/>
      <point x="689" y="649" type="line"/>
      <point x="556" y="649" type="line" smooth="yes"/>
      <point x="393" y="649"/>
      <point x="326" y="710"/>
      <point x="340" y="803" type="curve" smooth="yes"/>
      <point x="358" y="908"/>
      <point x="465" y="977"/>
      <point x="614" y="977" type="curve" smooth="yes"/>
      <point x="844" y="977"/>
      <point x="931" y="826"/>
      <point x="890" y="576" type="curve"/>
      <point x="1062" y="576" type="line"/>
      <point x="1120" y="922"/>
      <point x="980" y="1132"/>
      <point x="649" y="1132" type="curve" smooth="yes"/>
      <point x="393" y="1132"/>
      <point x="201" y="1009"/>
      <point x="166" y="803" type="curve" smooth="yes"/>
      <point x="145" y="684"/>
      <point x="180" y="535"/>
    </contour>
  </outline>
</glyph>
<glyph name="Lsmall" format="2">
  <advance height="2479" width="949"/>
  <unicode hex="029F"/>
  <outline>
    <contour>
      <point x="64" y="0" type="line"/>
      <point x="755" y="0" type="line"/>
      <point x="783" y="160" type="line"/>
      <point x="263" y="160" type="line"/>
      <point x="422" y="1117" type="line"/>
      <point x="250" y="1117" type="line"/>
    </contour>
  </outline>
</glyph>
<glyph name="dzaltone" format="2">
  <advance height="2479" width="2167"/>
  <unicode hex="02A3"/>
  <anchor x="521" y="0" name="bottom"/>
  <anchor x="1126" y="1280" name="cross"/>
  <anchor x="1404" y="1489" name="raccent"/>
  <anchor x="748" y="1489" name="top"/>
  <outline>
    <contour>
      <point x="1091" y="0" type="line"/>
      <point x="1967" y="0" type="line"/>
      <point x="1993" y="160" type="line"/>
      <point x="1356" y="160" type="line"/>
      <point x="1359" y="172" type="line"/>
      <point x="2109" y="980" type="line"/>
      <point x="2132" y="1117" type="line"/>
      <point x="1108" y="1117" type="line"/>
      <point x="1082" y="957" type="line"/>
      <point x="1885" y="957" type="line"/>
      <point x="1882" y="945" type="line"/>
      <point x="1114" y="131" type="line"/>
    </contour>
    <component base="d"/>
  </outline>
</glyph>
<glyph name="dezh" format="2">
  <advance height="2479" width="2228"/>
  <unicode hex="02A4"/>
  <anchor x="521" y="0" name="bottom"/>
  <anchor x="1126" y="1280" name="cross"/>
  <anchor x="1404" y="1489" name="raccent"/>
  <anchor x="748" y="1489" name="top"/>
  <outline>
    <contour>
      <point x="1397" y="-442" type="curve" smooth="yes"/>
      <point x="1697" y="-442"/>
      <point x="1950" y="-247"/>
      <point x="1996" y="28" type="curve" smooth="yes"/>
      <point x="2040" y="295"/>
      <point x="1875" y="479"/>
      <point x="1583" y="492" type="curve"/>
      <point x="1584" y="503" type="line"/>
      <point x="2066" y="986" type="line"/>
      <point x="2086" y="1117" type="line"/>
      <point x="1176.1875" y="1117.0" type="line"/>
      <point x="1148.75" y="957.0" type="line"/>
      <point x="1811" y="957" type="line"/>
      <point x="1808" y="945" type="line"/>
      <point x="1362" y="497" type="line"/>
      <point x="1340" y="352" type="line"/>
      <point x="1466" y="352" type="line" smooth="yes"/>
      <point x="1717" y="352"/>
      <point x="1857" y="230"/>
      <point x="1826" y="44" type="curve" smooth="yes"/>
      <point x="1794" y="-148"/>
      <point x="1614" y="-282"/>
      <point x="1398" y="-282" type="curve" smooth="yes"/>
      <point x="1272" y="-282"/>
      <point x="1200" y="-241"/>
      <point x="1129" y="-118" type="curve"/>
      <point x="969" y="-214" type="line"/>
      <point x="1021" y="-330"/>
      <point x="1142" y="-442"/>
    </contour>
    <component base="d"/>
  </outline>
</glyph>
<glyph name="dzcurl" format="2">
  <advance height="2479" width="2320"/>
  <unicode hex="02A5"/>
  <anchor x="521" y="0" name="bottom"/>
  <anchor x="1126" y="1280" name="cross"/>
  <anchor x="1404" y="1489" name="raccent"/>
  <anchor x="748" y="1489" name="top"/>
  <outline>
    <contour>
      <point x="1644" y="0" type="line"/>
      <point x="1748" y="0" type="line" smooth="yes"/>
      <point x="2070" y="0"/>
      <point x="2215" y="204"/>
      <point x="2237" y="337" type="curve" smooth="yes"/>
      <point x="2259" y="474"/>
      <point x="2160" y="573"/>
      <point x="2022" y="573" type="curve" smooth="yes"/>
      <point x="1820" y="573"/>
      <point x="1657" y="366"/>
      <point x="1353" y="20" type="curve" smooth="yes"/>
      <point x="1245" y="-102" type="line"/>
      <point x="1364" y="-192" type="line"/>
      <point x="1551" y="20" type="line" smooth="yes"/>
      <point x="1766" y="266"/>
      <point x="1863" y="407"/>
      <point x="1981" y="407" type="curve" smooth="yes"/>
      <point x="2029" y="407"/>
      <point x="2076" y="381"/>
      <point x="2068" y="323" type="curve" smooth="yes"/>
      <point x="2052" y="244"/>
      <point x="1951" y="160"/>
      <point x="1777" y="160" type="curve" smooth="yes"/>
      <point x="1670" y="160" type="line"/>
    </contour>
    <contour>
      <point x="1760" y="160" type="line"/>
      <point x="1353" y="160" type="line"/>
      <point x="2115" y="980" type="line"/>
      <point x="2138" y="1117" type="line"/>
      <point x="1103" y="1117" type="line"/>
      <point x="1076" y="957" type="line"/>
      <point x="1891" y="957" type="line"/>
      <point x="1126" y="145" type="line"/>
      <point x="1103" y="0" type="line"/>
      <point x="1734" y="0" type="line"/>
    </contour>
    <component base="d"/>
  </outline>
</glyph>
<glyph name="ts" format="2">
  <advance height="2479" width="1659"/>
  <unicode hex="02A6"/>
  <outline>
    <contour>
      <point x="439" y="-15" type="curve" smooth="yes"/>
      <point x="607" y="-15"/>
      <point x="748" y="88"/>
      <point x="823" y="268" type="curve"/>
      <point x="646" y="268" type="line"/>
      <point x="619" y="193"/>
      <point x="561" y="151"/>
      <point x="486" y="151" type="curve" smooth="yes"/>
      <point x="410" y="151"/>
      <point x="340" y="175"/>
      <point x="364" y="320" type="curve" smooth="yes"/>
      <point x="541" y="1385" type="line"/>
      <point x="369" y="1385" type="line"/>
      <point x="186" y="273" type="line" smooth="yes"/>
      <point x="154" y="79"/>
      <point x="294" y="-15"/>
    </contour>
    <contour>
      <point x="134" y="972" type="line"/>
      <point x="713" y="972" type="line"/>
      <point x="736" y="1117" type="line"/>
      <point x="157" y="1117" type="line"/>
    </contour>
    <contour>
      <point x="1024" y="-23" type="curve" smooth="yes"/>
      <point x="1283" y="-23"/>
      <point x="1484" y="119"/>
      <point x="1516" y="311" type="curve" smooth="yes"/>
      <point x="1542" y="468"/>
      <point x="1460" y="565"/>
      <point x="1268" y="614" type="curve" smooth="yes"/>
      <point x="1108" y="655" type="line" smooth="yes"/>
      <point x="983" y="687"/>
      <point x="931" y="733"/>
      <point x="945" y="817" type="curve" smooth="yes"/>
      <point x="960" y="913"/>
      <point x="1073" y="983"/>
      <point x="1210" y="983" type="curve" smooth="yes"/>
      <point x="1361" y="983"/>
      <point x="1408" y="902"/>
      <point x="1425" y="823" type="curve"/>
      <point x="1588" y="867" type="line"/>
      <point x="1559" y="1027"/>
      <point x="1457" y="1132"/>
      <point x="1236" y="1132" type="curve" smooth="yes"/>
      <point x="1001" y="1132"/>
      <point x="803" y="998"/>
      <point x="771" y="809" type="curve" smooth="yes"/>
      <point x="745" y="655"/>
      <point x="820" y="552"/>
      <point x="1018" y="503" type="curve" smooth="yes"/>
      <point x="1196" y="460" type="line" smooth="yes"/>
      <point x="1306" y="433"/>
      <point x="1350" y="381"/>
      <point x="1335" y="303" type="curve" smooth="yes"/>
      <point x="1321" y="207"/>
      <point x="1204" y="128"/>
      <point x="1044" y="128" type="curve" smooth="yes"/>
      <point x="911" y="128"/>
      <point x="830" y="179"/>
      <point x="823" y="268" type="curve"/>
      <point x="646" y="268" type="line"/>
      <point x="655" y="79"/>
      <point x="794" y="-23"/>
    </contour>
  </outline>
</glyph>
<glyph name="tesh" format="2">
  <advance height="2479" width="1149"/>
  <unicode hex="02A7"/>
  <anchor x="320" y="0" name="bottom"/>
  <anchor x="407" y="0" name="cedilla"/>
  <anchor x="692" y="1562" name="raccent"/>
  <anchor x="474" y="1489" name="top"/>
  <outline>
    <contour>
      <point x="625" y="1117" type="line"/>
      <point x="601" y="972" type="line"/>
      <point x="711" y="972" type="line"/>
      <point x="736" y="1117" type="line"/>
    </contour>
    <contour>
      <point x="484" y="151" type="curve"/>
      <point x="439" y="-15" type="line"/>
      <point x="518" y="-15"/>
      <point x="567" y="4"/>
      <point x="592" y="13" type="curve"/>
      <point x="582" y="164" type="line"/>
      <point x="529" y="153"/>
      <point x="510" y="151"/>
    </contour>
    <component base="t"/>
    <component base="esh" xOffset="369"/>
  </outline>
</glyph>
<glyph name="lzdigraph" format="2">
  <advance height="2479" width="1481"/>
  <unicode hex="02AB"/>
  <outline>
    <contour>
      <point x="1297" y="160" type="line"/>
      <point x="509" y="160" type="line"/>
      <point x="483" y="0" type="line"/>
      <point x="1271" y="0" type="line"/>
    </contour>
    <contour>
      <point x="1420" y="980" type="line"/>
      <point x="1443" y="1117" type="line"/>
      <point x="1344" y="1117" type="line"/>
      <point x="431" y="145" type="line"/>
      <point x="407" y="0" type="line"/>
      <point x="509" y="0" type="line"/>
    </contour>
    <contour>
      <point x="1356" y="1117" type="line"/>
      <point x="349" y="1117" type="line"/>
      <point x="323" y="957" type="line"/>
      <point x="1329" y="957" type="line"/>
    </contour>
    <contour>
      <point x="483" y="1489" type="line"/>
      <point x="311" y="1489" type="line"/>
      <point x="64" y="0" type="line"/>
      <point x="236" y="0" type="line"/>
    </contour>
  </outline>
</glyph>
<glyph name="hturnedfishhookandtail" format="2">
  <advance height="2479" width="1438"/>
  <unicode hex="02AF"/>
  <outline>
    <contour>
      <point x="155" y="977" type="line"/>
      <point x="170" y="980"/>
      <point x="190" y="983"/>
      <point x="211" y="983" type="curve" smooth="yes"/>
      <point x="304" y="983"/>
      <point x="368" y="948"/>
      <point x="350" y="832" type="curve" smooth="yes"/>
      <point x="278" y="407" type="line" smooth="yes"/>
      <point x="231" y="119"/>
      <point x="359" y="-15"/>
      <point x="589" y="-15" type="curve" smooth="yes"/>
      <point x="763" y="-15"/>
      <point x="880" y="58"/>
      <point x="950" y="175" type="curve"/>
      <point x="964" y="175" type="line"/>
      <point x="915" y="-119" type="line" smooth="yes"/>
      <point x="886" y="-311"/>
      <point x="993" y="-419"/>
      <point x="1156" y="-419" type="curve" smooth="yes"/>
      <point x="1191" y="-419"/>
      <point x="1229" y="-419"/>
      <point x="1258" y="-410" type="curve"/>
      <point x="1281" y="-265" type="line"/>
      <point x="1267" y="-268"/>
      <point x="1246" y="-271"/>
      <point x="1226" y="-271" type="curve" smooth="yes"/>
      <point x="1133" y="-271"/>
      <point x="1069" y="-236"/>
      <point x="1086" y="-119" type="curve" smooth="yes"/>
      <point x="1293" y="1117" type="line"/>
      <point x="1121" y="1117" type="line"/>
      <point x="1011" y="445" type="line" smooth="yes"/>
      <point x="976" y="250"/>
      <point x="833" y="140"/>
      <point x="664" y="140" type="curve" smooth="yes"/>
      <point x="502" y="140"/>
      <point x="423" y="241"/>
      <point x="452" y="419" type="curve" smooth="yes"/>
      <point x="522" y="832" type="line" smooth="yes"/>
      <point x="551" y="1024"/>
      <point x="443" y="1132"/>
      <point x="280" y="1132" type="curve" smooth="yes"/>
      <point x="246" y="1132"/>
      <point x="208" y="1132"/>
      <point x="179" y="1123" type="curve"/>
    </contour>
  </outline>
</glyph>
<glyph name="hhookmod" format="2">
  <advance height="2479" width="919"/>
  <unicode hex="02B1"/>
  <outline>
    <contour>
      <point x="489" y="1559" type="line"/>
      <point x="497" y="1615"/>
      <point x="527" y="1626"/>
      <point x="550" y="1626" type="curve" smooth="yes"/>
      <point x="576" y="1626"/>
      <point x="605" y="1620"/>
      <point x="620" y="1617" type="curve"/>
      <point x="649" y="1786" type="line"/>
      <point x="599" y="1798"/>
      <point x="553" y="1807"/>
      <point x="500" y="1807" type="curve" smooth="yes"/>
      <point x="375" y="1807"/>
      <point x="332" y="1711"/>
      <point x="308" y="1571" type="curve" smooth="yes"/>
      <point x="154" y="652" type="line"/>
      <point x="337" y="652" type="line"/>
    </contour>
    <contour>
      <point x="387" y="1079" type="line"/>
      <point x="407" y="1210"/>
      <point x="474" y="1315"/>
      <point x="588" y="1315" type="curve" smooth="yes"/>
      <point x="669" y="1315"/>
      <point x="713" y="1265"/>
      <point x="689" y="1126" type="curve" smooth="yes"/>
      <point x="611" y="652" type="line"/>
      <point x="794" y="652" type="line"/>
      <point x="879" y="1161" type="line" smooth="yes"/>
      <point x="916" y="1376"/>
      <point x="832" y="1466"/>
      <point x="675" y="1466" type="curve" smooth="yes"/>
      <point x="506" y="1466"/>
      <point x="375" y="1303"/>
      <point x="337" y="1076" type="curve"/>
    </contour>
  </outline>
</glyph>
<glyph name="jmod" format="2">
  <advance height="2479" width="349"/>
  <unicode hex="02B2"/>
  <outline>
    <contour>
      <point x="253" y="1489" type="line"/>
      <point x="122" y="692" type="line"/>
      <point x="111" y="634"/>
      <point x="76" y="591"/>
      <point x="0" y="591" type="curve" smooth="yes"/>
      <point x="-9" y="591"/>
      <point x="-17" y="591"/>
      <point x="-26" y="593" type="curve"/>
      <point x="-47" y="468" type="line"/>
      <point x="-35" y="468"/>
      <point x="-26" y="468"/>
      <point x="-15" y="468" type="curve" smooth="yes"/>
      <point x="140" y="468"/>
      <point x="250" y="538"/>
      <point x="276" y="689" type="curve"/>
      <point x="407" y="1489" type="line"/>
    </contour>
    <contour>
      <point x="352" y="1591" type="curve" smooth="yes"/>
      <point x="396" y="1591"/>
      <point x="442" y="1620"/>
      <point x="448" y="1676" type="curve" smooth="yes"/>
      <point x="454" y="1731"/>
      <point x="410" y="1763"/>
      <point x="364" y="1763" type="curve" smooth="yes"/>
      <point x="317" y="1763"/>
      <point x="273" y="1725"/>
      <point x="271" y="1676" type="curve" smooth="yes"/>
      <point x="268" y="1629"/>
      <point x="305" y="1591"/>
    </contour>
  </outline>
</glyph>
<glyph name="rmod" format="2">
  <advance height="2479" width="559"/>
  <unicode hex="02B3"/>
  <outline>
    <contour>
      <point x="128" y="745" type="line"/>
      <point x="282" y="745" type="line"/>
      <point x="358" y="1190" type="line" smooth="yes"/>
      <point x="375" y="1292"/>
      <point x="460" y="1361"/>
      <point x="556" y="1361" type="curve" smooth="yes"/>
      <point x="585" y="1361"/>
      <point x="608" y="1356"/>
      <point x="625" y="1347" type="curve"/>
      <point x="695" y="1475" type="line"/>
      <point x="672" y="1489"/>
      <point x="640" y="1498"/>
      <point x="599" y="1498" type="curve" smooth="yes"/>
      <point x="518" y="1498"/>
      <point x="433" y="1455"/>
      <point x="387" y="1364" type="curve"/>
      <point x="381" y="1364" type="line"/>
      <point x="401" y="1489" type="line"/>
      <point x="253" y="1489" type="line"/>
    </contour>
  </outline>
</glyph>
<glyph name="rturnedmod" format="2">
  <advance height="2479" width="547"/>
  <unicode hex="02B4"/>
  <outline>
    <contour>
      <point x="81" y="646" type="line"/>
      <point x="93" y="640"/>
      <point x="119" y="637"/>
      <point x="148" y="637" type="curve" smooth="yes"/>
      <point x="285" y="637"/>
      <point x="410" y="800"/>
      <point x="445" y="1024" type="curve"/>
      <point x="399" y="1024" type="line"/>
      <point x="378" y="899"/>
      <point x="317" y="809"/>
      <point x="209" y="809" type="curve" smooth="yes"/>
      <point x="172" y="809"/>
      <point x="143" y="817"/>
      <point x="113" y="832" type="curve"/>
    </contour>
    <contour>
      <point x="343" y="823" type="line"/>
      <point x="358" y="652" type="line"/>
      <point x="497" y="652" type="line"/>
      <point x="631" y="1452" type="line"/>
      <point x="448" y="1452" type="line"/>
    </contour>
  </outline>
</glyph>
<glyph name="wmod" format="2">
  <advance height="2479" width="1135"/>
  <unicode hex="02B7"/>
  <outline>
    <contour>
      <point x="279" y="745" type="line"/>
      <point x="445" y="745" type="line"/>
      <point x="684" y="1274" type="line"/>
      <point x="689" y="1274" type="line"/>
      <point x="753" y="745" type="line"/>
      <point x="919" y="745" type="line"/>
      <point x="1251" y="1489" type="line"/>
      <point x="1094" y="1489" type="line"/>
      <point x="861" y="934" type="line"/>
      <point x="855" y="934" type="line"/>
      <point x="800" y="1489" type="line"/>
      <point x="646" y="1489" type="line"/>
      <point x="407" y="934" type="line"/>
      <point x="401" y="934" type="line"/>
      <point x="352" y="1489" type="line"/>
      <point x="195" y="1489" type="line"/>
    </contour>
  </outline>
</glyph>
<glyph name="ymod" format="2">
  <advance height="2479" width="774"/>
  <unicode hex="02B8"/>
  <outline>
    <contour>
      <point x="175" y="454" type="curve" smooth="yes"/>
      <point x="303" y="454"/>
      <point x="393" y="529"/>
      <point x="451" y="640" type="curve" smooth="yes"/>
      <point x="893" y="1489" type="line"/>
      <point x="727" y="1489" type="line"/>
      <point x="445" y="899" type="line"/>
      <point x="439" y="899" type="line"/>
      <point x="355" y="1489" type="line"/>
      <point x="192" y="1489" type="line"/>
      <point x="335" y="727" type="line"/>
      <point x="300" y="666" type="line" smooth="yes"/>
      <point x="253" y="585"/>
      <point x="201" y="567"/>
      <point x="122" y="596" type="curve"/>
      <point x="67" y="474" type="line"/>
      <point x="84" y="465"/>
      <point x="125" y="454"/>
    </contour>
  </outline>
</glyph>
<glyph name="primemod" format="2">
  <advance height="2479" width="489"/>
  <unicode hex="02B9"/>
  <outline>
    <contour>
      <point x="262" y="919" type="line"/>
      <point x="349" y="919" type="line"/>
      <point x="500" y="1489" type="line"/>
      <point x="297" y="1489" type="line"/>
    </contour>
  </outline>
</glyph>
<glyph name="commaturnedmod" format="2">
  <advance height="2479" width="547"/>
  <unicode hex="02BB"/>
  <outline>
    <contour>
      <point x="195" y="986" type="line"/>
      <point x="393" y="986" type="line"/>
      <point x="425" y="1172" type="line" smooth="yes"/>
      <point x="445" y="1289"/>
      <point x="495" y="1388"/>
      <point x="576" y="1484" type="curve"/>
      <point x="474" y="1559" type="line"/>
      <point x="340" y="1460"/>
      <point x="247" y="1297"/>
      <point x="227" y="1169" type="curve" smooth="yes"/>
    </contour>
  </outline>
</glyph>
<glyph name="glottalstopreversedmod" format="2">
  <advance height="2479" width="919"/>
  <unicode hex="02C1"/>
  <outline>
    <contour>
      <point x="960" y="1516" type="line"/>
      <point x="983" y="1679"/>
      <point x="881" y="1807"/>
      <point x="689" y="1807" type="curve" smooth="yes"/>
      <point x="445" y="1807"/>
      <point x="291" y="1620"/>
      <point x="256" y="1405" type="curve" smooth="yes"/>
      <point x="241" y="1312" type="line" smooth="yes"/>
      <point x="198" y="1050"/>
      <point x="291" y="881"/>
      <point x="535" y="881" type="curve" smooth="yes"/>
      <point x="567" y="881" type="line"/>
      <point x="593" y="1033" type="line"/>
      <point x="561" y="1033" type="line" smooth="yes"/>
      <point x="396" y="1033"/>
      <point x="401" y="1178"/>
      <point x="425" y="1312" type="curve" smooth="yes"/>
      <point x="439" y="1405" type="line" smooth="yes"/>
      <point x="463" y="1542"/>
      <point x="518" y="1652"/>
      <point x="663" y="1652" type="curve" smooth="yes"/>
      <point x="771" y="1652"/>
      <point x="800" y="1594"/>
      <point x="800" y="1516" type="curve"/>
    </contour>
    <contour>
      <point x="445" y="1033" type="line"/>
      <point x="381" y="652" type="line"/>
      <point x="564" y="652" type="line"/>
      <point x="628" y="1033" type="line"/>
    </contour>
  </outline>
</glyph>
<glyph name="arrowheadupmod" format="2">
  <advance height="2479" width="919"/>
  <unicode hex="02C4"/>
  <outline>
    <contour>
      <point x="656" y="585" type="line"/>
      <point x="831" y="585" type="line"/>
      <point x="653" y="1309" type="line"/>
      <point x="531" y="1309" type="line"/>
      <point x="556" y="1036" type="line"/>
    </contour>
    <contour>
      <point x="97" y="585" type="line"/>
      <point x="272" y="585" type="line"/>
      <point x="518" y="1036" type="line"/>
      <point x="636" y="1309" type="line"/>
      <point x="516" y="1309" type="line"/>
    </contour>
  </outline>
</glyph>
<glyph name="verticallinemod" format="2">
  <advance height="2479" width="361"/>
  <unicode hex="02C8"/>
  <outline>
    <contour>
      <point x="422" y="1559" type="line"/>
      <point x="271" y="1559" type="line"/>
      <point x="204" y="1152" type="line"/>
      <point x="355" y="1152" type="line"/>
    </contour>
  </outline>
</glyph>
<glyph name="colontriangularmod" format="2">
  <advance height="2479" width="547"/>
  <unicode hex="02D0"/>
  <outline>
    <contour>
      <point x="221" y="1082" type="line"/>
      <point x="314" y="861" type="line"/>
      <point x="335" y="861" type="line"/>
      <point x="503" y="1082" type="line"/>
    </contour>
    <contour>
      <point x="41" y="0" type="line"/>
      <point x="323" y="0" type="line"/>
      <point x="230" y="221" type="line"/>
      <point x="209" y="221" type="line"/>
    </contour>
  </outline>
</glyph>
<glyph name="downtackmod" format="2">
  <advance height="2479" width="733"/>
  <unicode hex="02D5"/>
  <outline>
    <contour>
      <point x="137" y="399" type="line"/>
      <point x="544" y="399" type="line"/>
      <point x="567" y="538" type="line"/>
      <point x="160" y="538" type="line"/>
    </contour>
    <contour>
      <point x="227" y="172" type="line"/>
      <point x="378" y="172" type="line"/>
      <point x="439" y="538" type="line"/>
      <point x="288" y="538" type="line"/>
    </contour>
  </outline>
</glyph>
<glyph name="plusmod" format="2">
  <advance height="2479" width="733"/>
  <unicode hex="02D6"/>
  <outline>
    <contour>
      <point x="442" y="553" type="line"/>
      <point x="291" y="553" type="line"/>
      <point x="224" y="151" type="line"/>
      <point x="375" y="151" type="line"/>
    </contour>
    <contour>
      <point x="140" y="422" type="line"/>
      <point x="116" y="282" type="line"/>
      <point x="524" y="282" type="line"/>
      <point x="547" y="422" type="line"/>
    </contour>
  </outline>
</glyph>
<glyph name="breve" format="2">
  <advance height="2479" width="919"/>
  <unicode hex="02D8"/>
  <anchor x="583" y="1303" name="_top"/>
  <anchor x="636" y="1626" name="mkmktop_acc"/>
  <outline>
    <contour>
      <point x="756" y="1489" type="line"/>
      <point x="743" y="1414"/>
      <point x="692" y="1347"/>
      <point x="591" y="1347" type="curve" smooth="yes"/>
      <point x="489" y="1347"/>
      <point x="461" y="1414"/>
      <point x="474" y="1489" type="curve"/>
      <point x="314" y="1489" type="line"/>
      <point x="288" y="1332"/>
      <point x="385" y="1222"/>
      <point x="569" y="1222" type="curve" smooth="yes"/>
      <point x="755" y="1222"/>
      <point x="890" y="1332"/>
      <point x="916" y="1489" type="curve"/>
    </contour>
  </outline>
</glyph>
<glyph name="dotaccent" format="2">
  <advance height="2479" width="489"/>
  <unicode hex="02D9"/>
  <anchor x="368" y="1303" name="_top"/>
  <outline>
    <contour>
      <point x="387" y="1303" type="curve" smooth="yes"/>
      <point x="454" y="1303"/>
      <point x="509" y="1356"/>
      <point x="509" y="1420" type="curve" smooth="yes"/>
      <point x="509" y="1484"/>
      <point x="454" y="1536"/>
      <point x="387" y="1536" type="curve" smooth="yes"/>
      <point x="320" y="1536"/>
      <point x="265" y="1484"/>
      <point x="265" y="1420" type="curve" smooth="yes"/>
      <point x="265" y="1356"/>
      <point x="320" y="1303"/>
    </contour>
  </outline>
</glyph>
<glyph name="ogonek" format="2">
  <advance height="2479" width="547"/>
  <unicode hex="02DB"/>
  <anchor x="343" y="0" name="_ogonek"/>
  <outline>
    <contour>
      <point x="134" y="-436" type="curve" smooth="yes"/>
      <point x="204" y="-436"/>
      <point x="262" y="-413"/>
      <point x="297" y="-393" type="curve"/>
      <point x="305" y="-265" type="line"/>
      <point x="282" y="-276"/>
      <point x="247" y="-291"/>
      <point x="204" y="-291" type="curve" smooth="yes"/>
      <point x="145" y="-291"/>
      <point x="131" y="-265"/>
      <point x="140" y="-221" type="curve" smooth="yes"/>
      <point x="154" y="-134"/>
      <point x="247" y="-64"/>
      <point x="343" y="0" type="curve"/>
      <point x="276" y="61" type="line"/>
      <point x="70" y="-26"/>
      <point x="-23" y="-137"/>
      <point x="-41" y="-244" type="curve" smooth="yes"/>
      <point x="-61" y="-369"/>
      <point x="15" y="-436"/>
    </contour>
  </outline>
</glyph>
<glyph name="rhotichookmod" format="2">
  <advance height="2479" width="570"/>
  <unicode hex="02DE"/>
  <anchor x="9" y="640" name="_rhotichook"/>
  <outline>
    <contour>
      <point x="-9" y="553" type="line"/>
      <point x="233" y="596" type="line"/>
      <point x="247" y="480"/>
      <point x="276" y="361"/>
      <point x="422" y="361" type="curve" smooth="yes"/>
      <point x="465" y="361"/>
      <point x="509" y="367"/>
      <point x="550" y="384" type="curve"/>
      <point x="544" y="538" type="line"/>
      <point x="529" y="535"/>
      <point x="500" y="527"/>
      <point x="486" y="527" type="curve" smooth="yes"/>
      <point x="375" y="527"/>
      <point x="387" y="608"/>
      <point x="387" y="771" type="curve"/>
      <point x="12" y="701" type="line"/>
    </contour>
  </outline>
</glyph>
<glyph name="gammamod-latin" format="2">
  <advance height="2479" width="919"/>
  <unicode hex="02E0"/>
  <outline>
    <contour>
      <point x="527" y="919" type="line"/>
      <point x="436" y="652" type="line"/>
      <point x="561" y="652" type="line"/>
      <point x="983" y="1452" type="line"/>
      <point x="783" y="1452" type="line"/>
    </contour>
    <contour>
      <point x="436" y="1452" type="line"/>
      <point x="236" y="1452" type="line"/>
      <point x="390" y="652" type="line"/>
      <point x="515" y="652" type="line"/>
      <point x="518" y="919" type="line"/>
    </contour>
    <contour>
      <point x="396" y="212" type="curve" smooth="yes"/>
      <point x="521" y="212"/>
      <point x="608" y="279"/>
      <point x="628" y="393" type="curve" smooth="yes"/>
      <point x="631" y="425"/>
      <point x="631" y="463"/>
      <point x="617" y="512" type="curve" smooth="yes"/>
      <point x="564" y="727" type="line"/>
      <point x="413" y="727" type="line"/>
      <point x="436" y="611" type="line" smooth="yes"/>
      <point x="460" y="495"/>
      <point x="474" y="442"/>
      <point x="468" y="401" type="curve" smooth="yes"/>
      <point x="465" y="378"/>
      <point x="454" y="358"/>
      <point x="422" y="358" type="curve" smooth="yes"/>
      <point x="393" y="358"/>
      <point x="384" y="375"/>
      <point x="387" y="401" type="curve" smooth="yes"/>
      <point x="393" y="439"/>
      <point x="428" y="492"/>
      <point x="492" y="605" type="curve" smooth="yes"/>
      <point x="559" y="727" type="line"/>
      <point x="410" y="727" type="line"/>
      <point x="279" y="506" type="line" smooth="yes"/>
      <point x="247" y="454"/>
      <point x="233" y="422"/>
      <point x="230" y="393" type="curve" smooth="yes"/>
      <point x="209" y="279"/>
      <point x="271" y="212"/>
    </contour>
  </outline>
</glyph>
<glyph name="glottalstopreversedsuperior" format="2">
  <advance height="2479" width="919"/>
  <unicode hex="02E4"/>
  <outline>
    <contour>
      <point x="733" y="1169" type="curve"/>
      <point x="919" y="1169" type="line"/>
      <point x="948" y="1353"/>
      <point x="809" y="1466"/>
      <point x="614" y="1466" type="curve" smooth="yes"/>
      <point x="410" y="1466"/>
      <point x="230" y="1335"/>
      <point x="192" y="1103" type="curve" smooth="yes"/>
      <point x="154" y="867"/>
      <point x="288" y="751"/>
      <point x="492" y="751" type="curve"/>
      <point x="527" y="751" type="line"/>
      <point x="553" y="902" type="line"/>
      <point x="521" y="902" type="line" smooth="yes"/>
      <point x="384" y="902"/>
      <point x="355" y="980"/>
      <point x="375" y="1105" type="curve" smooth="yes"/>
      <point x="396" y="1231"/>
      <point x="460" y="1312"/>
      <point x="585" y="1312" type="curve" smooth="yes"/>
      <point x="687" y="1312"/>
      <point x="736" y="1251"/>
    </contour>
    <contour>
      <point x="561" y="652" type="line"/>
      <point x="605" y="902" type="line"/>
      <point x="422" y="902" type="line"/>
      <point x="378" y="652" type="line"/>
    </contour>
  </outline>
</glyph>
<glyph name="tonebarextrahighmod" format="2">
  <advance height="2479" width="733"/>
  <unicode hex="02E5"/>
  <outline>
    <contour>
      <point x="745" y="1457" type="line"/>
      <point x="544" y="1457" type="line"/>
      <point x="303" y="0" type="line"/>
      <point x="503" y="0" type="line"/>
    </contour>
    <contour>
      <point x="695" y="1457" type="line"/>
      <point x="285" y="1457" type="line"/>
      <point x="259" y="1297" type="line"/>
      <point x="669" y="1297" type="line"/>
    </contour>
  </outline>
</glyph>
<glyph name="tonebarhighmod" format="2">
  <advance height="2479" width="733"/>
  <unicode hex="02E6"/>
  <outline>
    <contour>
      <point x="745" y="1457" type="line"/>
      <point x="544" y="1457" type="line"/>
      <point x="303" y="0" type="line"/>
      <point x="503" y="0" type="line"/>
    </contour>
    <contour>
      <point x="649" y="1172" type="line"/>
      <point x="239" y="1172" type="line"/>
      <point x="212" y="1012" type="line"/>
      <point x="623" y="1012" type="line"/>
    </contour>
  </outline>
</glyph>
<glyph name="tonebarextralowmod" format="2">
  <advance height="2479" width="733"/>
  <unicode hex="02E9"/>
  <outline>
    <contour>
      <point x="745" y="1457" type="line"/>
      <point x="544" y="1457" type="line"/>
      <point x="303" y="0" type="line"/>
      <point x="503" y="0" type="line"/>
    </contour>
    <contour>
      <point x="480" y="160" type="line"/>
      <point x="70" y="160" type="line"/>
      <point x="44" y="0" type="line"/>
      <point x="454" y="0" type="line"/>
    </contour>
  </outline>
</glyph>
<glyph name="unaspiratedmod" format="2">
  <advance height="2479" width="919"/>
  <unicode hex="02ED"/>
  <outline>
    <contour>
      <point x="954" y="1536" type="line"/>
      <point x="294" y="1536" type="line"/>
      <point x="271" y="1402" type="line"/>
      <point x="931" y="1402" type="line"/>
    </contour>
    <contour>
      <point x="916" y="1306" type="line"/>
      <point x="256" y="1306" type="line"/>
      <point x="233" y="1169" type="line"/>
      <point x="893" y="1169" type="line"/>
    </contour>
  </outline>
</glyph>
<glyph name="doubleapostrophemod" format="2">
  <advance height="2479" width="919"/>
  <unicode hex="02EE"/>
  <outline>
    <contour>
      <point x="608" y="1559" type="line"/>
      <point x="410" y="1559" type="line"/>
      <point x="378" y="1373" type="line" smooth="yes"/>
      <point x="361" y="1257"/>
      <point x="311" y="1158"/>
      <point x="233" y="1065" type="curve"/>
      <point x="332" y="986" type="line"/>
      <point x="465" y="1085"/>
      <point x="556" y="1248"/>
      <point x="579" y="1376" type="curve" smooth="yes"/>
    </contour>
    <contour>
      <point x="940" y="1559" type="line"/>
      <point x="742" y="1559" type="line"/>
      <point x="710" y="1373" type="line" smooth="yes"/>
      <point x="692" y="1257"/>
      <point x="640" y="1158"/>
      <point x="561" y="1065" type="curve"/>
      <point x="660" y="986" type="line"/>
      <point x="794" y="1085"/>
      <point x="887" y="1248"/>
      <point x="911" y="1376" type="curve" smooth="yes"/>
    </contour>
  </outline>
</glyph>
<glyph name="lowleftarrowheadmod" format="2">
  <advance height="2479" width="733"/>
  <unicode hex="02F1"/>
  <outline>
    <contour>
      <point x="-35" y="-343" type="line"/>
      <point x="163" y="-300" type="line"/>
      <point x="500" y="-183" type="line"/>
      <point x="518" y="-73" type="line"/>
      <point x="-23" y="-265" type="line"/>
    </contour>
    <contour>
      <point x="439" y="-547" type="line"/>
      <point x="460" y="-433" type="line"/>
      <point x="160" y="-323" type="line"/>
      <point x="-26" y="-276" type="line"/>
      <point x="-38" y="-352" type="line"/>
    </contour>
  </outline>
</glyph>
<glyph name="lowtildemod" format="2">
  <advance height="2479" width="919"/>
  <unicode hex="02F7"/>
  <outline>
    <contour>
      <point x="567" y="-166" type="line"/>
      <point x="556" y="-227"/>
      <point x="503" y="-276"/>
      <point x="448" y="-276" type="curve" smooth="yes"/>
      <point x="343" y="-276"/>
      <point x="311" y="-183"/>
      <point x="201" y="-183" type="curve" smooth="yes"/>
      <point x="76" y="-183"/>
      <point x="-38" y="-285"/>
      <point x="-64" y="-436" type="curve"/>
      <point x="70" y="-442" type="line"/>
      <point x="81" y="-381"/>
      <point x="128" y="-332"/>
      <point x="183" y="-332" type="curve" smooth="yes"/>
      <point x="294" y="-332"/>
      <point x="300" y="-425"/>
      <point x="436" y="-425" type="curve" smooth="yes"/>
      <point x="559" y="-425"/>
      <point x="672" y="-329"/>
      <point x="695" y="-177" type="curve"/>
    </contour>
  </outline>
</glyph>
<glyph name="endhightonemod" format="2">
  <advance height="2479" width="547"/>
  <unicode hex="02FA"/>
  <outline>
    <contour>
      <point x="422" y="1149" type="line"/>
      <point x="573" y="1149" type="line"/>
      <point x="637" y="1536" type="line"/>
      <point x="239" y="1536" type="line"/>
      <point x="215" y="1396" type="line"/>
      <point x="463" y="1396" type="line"/>
    </contour>
  </outline>
</glyph>
<glyph name="beginlowtonemod" format="2">
  <advance height="2479" width="547"/>
  <unicode hex="02FB"/>
  <outline>
    <contour>
      <point x="-96" y="-477" type="line"/>
      <point x="52" y="-477" type="line"/>
      <point x="116" y="-90" type="line"/>
      <point x="-32" y="-90" type="line"/>
    </contour>
    <contour>
      <point x="-96" y="-477" type="line"/>
      <point x="303" y="-477" type="line"/>
      <point x="326" y="-337" type="line"/>
      <point x="-73" y="-337" type="line"/>
    </contour>
  </outline>
</glyph>
<glyph name="endlowtonemod" format="2">
  <advance height="2479" width="547"/>
  <unicode hex="02FC"/>
  <outline>
    <contour>
      <point x="151" y="-477" type="line"/>
      <point x="303" y="-477" type="line"/>
      <point x="367" y="-90" type="line"/>
      <point x="215" y="-90" type="line"/>
    </contour>
    <contour>
      <point x="-96" y="-477" type="line"/>
      <point x="303" y="-477" type="line"/>
      <point x="326" y="-337" type="line"/>
      <point x="-73" y="-337" type="line"/>
    </contour>
  </outline>
</glyph>
<glyph name="openshelfmod" format="2">
  <advance height="2479" width="919"/>
  <unicode hex="02FE"/>
  <outline>
    <contour>
      <point x="649" y="-355" type="line"/>
      <point x="102" y="-355" type="line"/>
      <point x="81" y="-477" type="line"/>
      <point x="628" y="-477" type="line"/>
    </contour>
    <contour>
      <point x="163" y="-90" type="line"/>
      <point x="12" y="-90" type="line"/>
      <point x="-52" y="-477" type="line"/>
      <point x="99" y="-477" type="line"/>
    </contour>
  </outline>
</glyph>
<glyph name="brevecomb" format="2">
  <advance height="2479"/>
  <unicode hex="0306"/>
  <outline>
    <contour>
      <point x="-294" y="1495" type="line"/>
      <point x="-305" y="1420"/>
      <point x="-358" y="1353"/>
      <point x="-457" y="1353" type="curve" smooth="yes"/>
      <point x="-559" y="1353"/>
      <point x="-588" y="1420"/>
      <point x="-576" y="1495" type="curve"/>
      <point x="-736" y="1495" type="line"/>
      <point x="-762" y="1338"/>
      <point x="-663" y="1228"/>
      <point x="-477" y="1228" type="curve" smooth="yes"/>
      <point x="-294" y="1228"/>
      <point x="-160" y="1338"/>
      <point x="-134" y="1495" type="curve"/>
    </contour>
  </outline>
</glyph>
<glyph name="dblgravecomb" format="2">
  <advance height="2479"/>
  <unicode hex="030F"/>
  <anchor x="-348" y="1303" name="_top"/>
  <outline>
    <contour>
      <point x="-579" y="1268" type="line"/>
      <point x="-428" y="1268" type="line"/>
      <point x="-550" y="1606" type="line"/>
      <point x="-764" y="1606" type="line"/>
    </contour>
    <contour>
      <point x="-271" y="1268" type="line"/>
      <point x="-121" y="1268" type="line"/>
      <point x="-175" y="1606" type="line"/>
      <point x="-393" y="1606" type="line"/>
    </contour>
  </outline>
</glyph>
<glyph name="commaturnedabovecomb" format="2">
  <advance height="2479"/>
  <unicode hex="0312"/>
  <anchor x="-506" y="1065" name="_marktop"/>
  <anchor x="-404" y="1684" name="mkmktop"/>
  <anchor x="-422" y="1271" name="parent_top"/>
  <outline>
    <contour>
      <point x="-620" y="986" type="line"/>
      <point x="-422" y="986" type="line"/>
      <point x="-390" y="1172" type="line" smooth="yes"/>
      <point x="-369" y="1289"/>
      <point x="-320" y="1388"/>
      <point x="-241" y="1484" type="curve"/>
      <point x="-343" y="1559" type="line"/>
      <point x="-474" y="1460"/>
      <point x="-567" y="1300"/>
      <point x="-588" y="1169" type="curve" smooth="yes"/>
    </contour>
  </outline>
</glyph>
<glyph name="righttackbelowcomb" format="2">
  <advance height="2479"/>
  <unicode hex="0319"/>
  <anchor x="-675" y="0" name="_bottom"/>
  <outline>
    <contour>
      <point x="-951" y="-445" type="line"/>
      <point x="-803" y="-445" type="line"/>
      <point x="-740" y="-61" type="line"/>
      <point x="-889" y="-61" type="line"/>
    </contour>
    <contour>
      <point x="-922" y="-323" type="line"/>
      <point x="-532" y="-323" type="line"/>
      <point x="-509" y="-183" type="line"/>
      <point x="-899" y="-183" type="line"/>
    </contour>
  </outline>
</glyph>
<glyph name="leftangleabovecomb" format="2">
  <advance height="2479"/>
  <unicode hex="031A"/>
  <outline>
    <contour>
      <point x="-579" y="1536" type="line"/>
      <point x="-29" y="1536" type="line"/>
      <point x="-9" y="1658" type="line"/>
      <point x="-559" y="1658" type="line"/>
    </contour>
    <contour>
      <point x="-93" y="1283" type="line"/>
      <point x="58" y="1283" type="line"/>
      <point x="122" y="1658" type="line"/>
      <point x="-29" y="1658" type="line"/>
    </contour>
  </outline>
</glyph>
<glyph name="retroflexhookcomb" format="2">
  <advance height="2479"/>
  <unicode hex="0322"/>
  <outline>
    <contour>
      <point x="-192" y="-436" type="curve" smooth="yes"/>
      <point x="-163" y="-436"/>
      <point x="-108" y="-431"/>
      <point x="-73" y="-422" type="curve"/>
      <point x="-47" y="-265" type="line"/>
      <point x="-67" y="-271"/>
      <point x="-93" y="-271"/>
      <point x="-111" y="-271" type="curve" smooth="yes"/>
      <point x="-209" y="-271"/>
      <point x="-236" y="-207"/>
      <point x="-215" y="-90" type="curve" smooth="yes"/>
      <point x="-175" y="151" type="line"/>
      <point x="-375" y="151" type="line"/>
      <point x="-416" y="-90" type="line" smooth="yes"/>
      <point x="-454" y="-314"/>
      <point x="-381" y="-436"/>
    </contour>
  </outline>
</glyph>
<glyph name="commaaccentcomb" format="2">
  <advance height="2479"/>
  <unicode hex="0326"/>
  <anchor x="-697" y="0" name="_bottom"/>
  <outline>
    <contour>
      <point x="-633" y="-145" type="line"/>
      <point x="-807" y="-145" type="line"/>
      <point x="-822" y="-228" type="line" smooth="yes"/>
      <point x="-836" y="-323"/>
      <point x="-890" y="-401"/>
      <point x="-953" y="-477" type="curve"/>
      <point x="-852" y="-556" type="line"/>
      <point x="-736" y="-471"/>
      <point x="-663" y="-332"/>
      <point x="-646" y="-224" type="curve" smooth="yes"/>
    </contour>
  </outline>
</glyph>
<glyph name="bridgebelowcomb" format="2">
  <advance height="2479"/>
  <unicode hex="032A"/>
  <anchor x="-704" y="0" name="_bottom"/>
  <outline>
    <contour>
      <point x="-1121" y="-465" type="line"/>
      <point x="-970" y="-465" type="line"/>
      <point x="-911" y="-111" type="line"/>
      <point x="-1062" y="-111" type="line"/>
    </contour>
    <contour>
      <point x="-951" y="-233" type="line"/>
      <point x="-538" y="-233" type="line"/>
      <point x="-518" y="-111" type="line"/>
      <point x="-931" y="-111" type="line"/>
    </contour>
    <contour>
      <point x="-592" y="-465" type="line"/>
      <point x="-441" y="-465" type="line"/>
      <point x="-381" y="-111" type="line"/>
      <point x="-532" y="-111" type="line"/>
    </contour>
  </outline>
</glyph>
<glyph name="breveinvertedbelowcomb" format="2">
  <advance height="2479"/>
  <unicode hex="032F"/>
  <outline>
    <contour>
      <point x="-442" y="-372" type="line"/>
      <point x="-416" y="-215"/>
      <point x="-512" y="-105"/>
      <point x="-698" y="-105" type="curve" smooth="yes"/>
      <point x="-884" y="-105"/>
      <point x="-1018" y="-215"/>
      <point x="-1044" y="-372" type="curve"/>
      <point x="-884" y="-372" type="line"/>
      <point x="-873" y="-297"/>
      <point x="-823" y="-227"/>
      <point x="-719" y="-227" type="curve" smooth="yes"/>
      <point x="-620" y="-227"/>
      <point x="-591" y="-294"/>
      <point x="-602" y="-372" type="curve"/>
    </contour>
  </outline>
</glyph>
<glyph name="dbllowlinecomb" format="2">
  <advance height="2479"/>
  <unicode hex="0333"/>
  <outline>
    <contour>
      <point x="-233" y="-84" type="line"/>
      <point x="-1164" y="-84" type="line"/>
      <point x="-1190" y="-244" type="line"/>
      <point x="-259" y="-244" type="line"/>
    </contour>
    <contour>
      <point x="-273" y="-340" type="line"/>
      <point x="-1204" y="-340" type="line"/>
      <point x="-1231" y="-500" type="line"/>
      <point x="-300" y="-500" type="line"/>
    </contour>
  </outline>
</glyph>
<glyph name="slashshortcomb" format="2">
  <advance height="2479"/>
  <unicode hex="0337"/>
  <outline>
    <contour>
      <point x="-93" y="1207" type="line"/>
      <point x="-224" y="1207" type="line"/>
      <point x="-1108" y="-134" type="line"/>
      <point x="-977" y="-134" type="line"/>
    </contour>
  </outline>
</glyph>
<glyph name="squarebelowcomb" format="2">
  <advance height="2479"/>
  <unicode hex="033B"/>
  <outline>
    <contour>
      <point x="-960" y="-486" type="line"/>
      <point x="-556" y="-486" type="line"/>
      <point x="-489" y="-81" type="line"/>
      <point x="-893" y="-81" type="line"/>
    </contour>
    <contour>
      <point x="-806" y="-189" type="line"/>
      <point x="-620" y="-189" type="line"/>
      <point x="-649" y="-375" type="line"/>
      <point x="-835" y="-375" type="line"/>
    </contour>
  </outline>
</glyph>
<glyph name="seagullbelowcomb" format="2">
  <advance height="2479"/>
  <unicode hex="033C"/>
  <outline>
    <contour>
      <point x="-656" y="-374" type="line"/>
      <point x="-643" y="-294"/>
      <point x="-589" y="-250"/>
      <point x="-508" y="-250" type="curve" smooth="yes"/>
      <point x="-428" y="-250"/>
      <point x="-387" y="-294"/>
      <point x="-400" y="-374" type="curve"/>
      <point x="-298" y="-374" type="line"/>
      <point x="-275" y="-231"/>
      <point x="-348" y="-134"/>
      <point x="-489" y="-134" type="curve" smooth="yes"/>
      <point x="-628" y="-134"/>
      <point x="-735" y="-231"/>
      <point x="-758" y="-374" type="curve"/>
    </contour>
    <contour>
      <point x="-1014" y="-374" type="line"/>
      <point x="-1001" y="-294"/>
      <point x="-947" y="-250"/>
      <point x="-865" y="-250" type="curve" smooth="yes"/>
      <point x="-785" y="-250"/>
      <point x="-745" y="-294"/>
      <point x="-758" y="-374" type="curve"/>
      <point x="-656" y="-374" type="line"/>
      <point x="-633" y="-231"/>
      <point x="-705" y="-134"/>
      <point x="-847" y="-134" type="curve" smooth="yes"/>
      <point x="-986" y="-134"/>
      <point x="-1092" y="-231"/>
      <point x="-1116" y="-374" type="curve"/>
    </contour>
  </outline>
</glyph>
<glyph name="dbloverlinecomb" format="2">
  <advance height="2479"/>
  <unicode hex="033F"/>
  <outline>
    <contour>
      <point x="55" y="1644" type="line"/>
      <point x="-870" y="1644" type="line"/>
      <point x="-896" y="1484" type="line"/>
      <point x="29" y="1484" type="line"/>
    </contour>
    <contour>
      <point x="96" y="1900" type="line"/>
      <point x="-829" y="1900" type="line"/>
      <point x="-855" y="1740" type="line"/>
      <point x="70" y="1740" type="line"/>
    </contour>
  </outline>
</glyph>
<glyph name="ypogegrammenicomb" format="2">
  <advance height="2479"/>
  <unicode hex="0345"/>
  <outline>
    <contour>
      <point x="-771" y="-70" type="line"/>
      <point x="-815" y="-340" type="line" smooth="yes"/>
      <point x="-838" y="-471"/>
      <point x="-777" y="-527"/>
      <point x="-678" y="-527" type="curve" smooth="yes"/>
      <point x="-637" y="-527"/>
      <point x="-608" y="-518"/>
      <point x="-599" y="-515" type="curve"/>
      <point x="-582" y="-413" type="line"/>
      <point x="-591" y="-413"/>
      <point x="-611" y="-416"/>
      <point x="-625" y="-416" type="curve" smooth="yes"/>
      <point x="-660" y="-416"/>
      <point x="-672" y="-387"/>
      <point x="-663" y="-337" type="curve" smooth="yes"/>
      <point x="-620" y="-70" type="line"/>
    </contour>
  </outline>
</glyph>
<glyph name="gbridgeabovecomb" format="2">
  <advance height="2479"/>
  <unicode hex="0346"/>
  <outline>
    <contour>
      <point x="-817" y="1231" type="line"/>
      <point x="-666" y="1231" type="line"/>
      <point x="-602" y="1615" type="line"/>
      <point x="-753" y="1615" type="line"/>
    </contour>
    <contour>
      <point x="-643" y="1492" type="line"/>
      <point x="-230" y="1492" type="line"/>
      <point x="-209" y="1615" type="line"/>
      <point x="-623" y="1615" type="line"/>
    </contour>
    <contour>
      <point x="-288" y="1231" type="line"/>
      <point x="-137" y="1231" type="line"/>
      <point x="-73" y="1615" type="line"/>
      <point x="-224" y="1615" type="line"/>
    </contour>
  </outline>
</glyph>
<glyph name="leftanglebelowcomb" format="2">
  <advance height="2479"/>
  <unicode hex="0349"/>
  <outline>
    <contour>
      <point x="-698" y="-506" type="line"/>
      <point x="-547" y="-506" type="line"/>
      <point x="-483" y="-122" type="line"/>
      <point x="-634" y="-122" type="line"/>
    </contour>
    <contour>
      <point x="-905" y="-262" type="line"/>
      <point x="-506" y="-262" type="line"/>
      <point x="-483" y="-122" type="line"/>
      <point x="-881" y="-122" type="line"/>
    </contour>
  </outline>
</glyph>
<glyph name="nottildeabovecomb" format="2">
  <advance height="2479"/>
  <unicode hex="034A"/>
  <outline>
    <contour>
      <point x="-361" y="1268" type="curve" smooth="yes"/>
      <point x="-236" y="1268"/>
      <point x="-122" y="1364"/>
      <point x="-99" y="1516" type="curve"/>
      <point x="-227" y="1527" type="line"/>
      <point x="-236" y="1466"/>
      <point x="-288" y="1417"/>
      <point x="-343" y="1417" type="curve" smooth="yes"/>
      <point x="-448" y="1417"/>
      <point x="-483" y="1510"/>
      <point x="-593" y="1510" type="curve" smooth="yes"/>
      <point x="-719" y="1510"/>
      <point x="-832" y="1405"/>
      <point x="-855" y="1257" type="curve"/>
      <point x="-724" y="1251" type="line"/>
      <point x="-713" y="1312"/>
      <point x="-663" y="1361"/>
      <point x="-608" y="1361" type="curve" smooth="yes"/>
      <point x="-497" y="1361"/>
      <point x="-495" y="1268"/>
    </contour>
    <contour>
      <point x="-529" y="1187" type="line"/>
      <point x="-288" y="1513" type="line"/>
      <point x="-372" y="1574" type="line"/>
      <point x="-617" y="1248" type="line"/>
    </contour>
  </outline>
</glyph>
<glyph name="homotheticabovecomb" format="2">
  <advance height="2479"/>
  <unicode hex="034B"/>
  <outline>
    <contour>
      <point x="-233" y="1632" type="line"/>
      <point x="-241" y="1571"/>
      <point x="-291" y="1521"/>
      <point x="-346" y="1521" type="curve" smooth="yes"/>
      <point x="-451" y="1521"/>
      <point x="-489" y="1615"/>
      <point x="-599" y="1615" type="curve" smooth="yes"/>
      <point x="-721" y="1615"/>
      <point x="-835" y="1510"/>
      <point x="-858" y="1361" type="curve"/>
      <point x="-730" y="1353" type="line"/>
      <point x="-719" y="1414"/>
      <point x="-669" y="1463"/>
      <point x="-614" y="1463" type="curve" smooth="yes"/>
      <point x="-506" y="1463"/>
      <point x="-497" y="1370"/>
      <point x="-364" y="1370" type="curve" smooth="yes"/>
      <point x="-241" y="1370"/>
      <point x="-125" y="1469"/>
      <point x="-102" y="1617" type="curve"/>
    </contour>
    <contour>
      <point x="-550" y="1745" type="curve" smooth="yes"/>
      <point x="-561" y="1684"/>
      <point x="-529" y="1638"/>
      <point x="-457" y="1638" type="curve" smooth="yes"/>
      <point x="-381" y="1638"/>
      <point x="-332" y="1684"/>
      <point x="-320" y="1745" type="curve" smooth="yes"/>
      <point x="-311" y="1807"/>
      <point x="-343" y="1856"/>
      <point x="-419" y="1856" type="curve" smooth="yes"/>
      <point x="-495" y="1856"/>
      <point x="-541" y="1804"/>
    </contour>
    <contour>
      <point x="-634" y="1245" type="curve" smooth="yes"/>
      <point x="-643" y="1184"/>
      <point x="-611" y="1137"/>
      <point x="-538" y="1137" type="curve" smooth="yes"/>
      <point x="-463" y="1137"/>
      <point x="-413" y="1184"/>
      <point x="-404" y="1245" type="curve" smooth="yes"/>
      <point x="-393" y="1306"/>
      <point x="-428" y="1356"/>
      <point x="-503" y="1356" type="curve" smooth="yes"/>
      <point x="-579" y="1356"/>
      <point x="-625" y="1303"/>
    </contour>
  </outline>
</glyph>
<glyph name="arrowleftrightbelowcomb" format="2">
  <advance height="2479"/>
  <unicode hex="034D"/>
  <outline>
    <contour>
      <point x="-404" y="-279" type="line"/>
      <point x="-1041" y="-279" type="line"/>
      <point x="-1056" y="-378" type="line"/>
      <point x="-419" y="-378" type="line"/>
    </contour>
    <contour>
      <point x="-841" y="-553" type="line"/>
      <point x="-1059" y="-273" type="line"/>
      <point x="-1135" y="-329" type="line"/>
      <point x="-963" y="-553" type="line"/>
    </contour>
    <contour>
      <point x="-890" y="-108" type="line"/>
      <point x="-1135" y="-329" type="line"/>
      <point x="-1073" y="-381" type="line"/>
      <point x="-768" y="-108" type="line"/>
    </contour>
    <contour>
      <point x="-579" y="-553" type="line"/>
      <point x="-329" y="-329" type="line"/>
      <point x="-390" y="-273" type="line"/>
      <point x="-701" y="-553" type="line"/>
    </contour>
    <contour>
      <point x="-628" y="-108" type="line"/>
      <point x="-410" y="-381" type="line"/>
      <point x="-329" y="-329" type="line"/>
      <point x="-506" y="-108" type="line"/>
    </contour>
  </outline>
</glyph>
<glyph name="arrowupbelowcomb" format="2">
  <advance height="2479"/>
  <unicode hex="034E"/>
  <outline>
    <contour>
      <point x="-721" y="-550" type="line"/>
      <point x="-660" y="-183" type="line"/>
      <point x="-759" y="-183" type="line"/>
      <point x="-820" y="-550" type="line"/>
    </contour>
    <contour>
      <point x="-992" y="-428" type="line"/>
      <point x="-646" y="-163" type="line"/>
      <point x="-695" y="-96" type="line"/>
      <point x="-972" y="-305" type="line"/>
    </contour>
    <contour>
      <point x="-489" y="-305" type="line"/>
      <point x="-695" y="-96" type="line"/>
      <point x="-765" y="-166" type="line"/>
      <point x="-509" y="-428" type="line"/>
    </contour>
  </outline>
</glyph>
<glyph name="fermatacomb" format="2">
  <advance height="2479"/>
  <unicode hex="0352"/>
  <outline>
    <contour>
      <point x="-145" y="1417" type="line"/>
      <point x="-119" y="1574"/>
      <point x="-215" y="1687"/>
      <point x="-401" y="1687" type="curve" smooth="yes"/>
      <point x="-588" y="1687"/>
      <point x="-721" y="1574"/>
      <point x="-748" y="1417" type="curve"/>
      <point x="-588" y="1417" type="line"/>
      <point x="-576" y="1495"/>
      <point x="-524" y="1562"/>
      <point x="-422" y="1562" type="curve" smooth="yes"/>
      <point x="-323" y="1562"/>
      <point x="-294" y="1495"/>
      <point x="-305" y="1417" type="curve"/>
    </contour>
    <contour>
      <point x="-585" y="1280" type="curve" smooth="yes"/>
      <point x="-593" y="1219"/>
      <point x="-561" y="1169"/>
      <point x="-489" y="1169" type="curve" smooth="yes"/>
      <point x="-410" y="1169"/>
      <point x="-364" y="1222"/>
      <point x="-355" y="1280" type="curve" smooth="yes"/>
      <point x="-343" y="1341"/>
      <point x="-378" y="1391"/>
      <point x="-454" y="1391" type="curve" smooth="yes"/>
      <point x="-527" y="1391"/>
      <point x="-573" y="1341"/>
    </contour>
  </outline>
</glyph>
<glyph name="xbelowcomb" format="2">
  <advance height="2479"/>
  <unicode hex="0353"/>
  <outline>
    <contour>
      <point x="-829" y="-527" type="line"/>
      <point x="-396" y="-154" type="line"/>
      <point x="-471" y="-58" type="line"/>
      <point x="-905" y="-431" type="line"/>
    </contour>
    <contour>
      <point x="-553" y="-529" type="line"/>
      <point x="-442" y="-433" type="line"/>
      <point x="-748" y="-55" type="line"/>
      <point x="-858" y="-151" type="line"/>
    </contour>
  </outline>
</glyph>
<glyph name="doublebrevecomb" format="2">
  <advance height="2479"/>
  <unicode hex="035D"/>
  <anchor x="99" y="1161" name="_marktop_dd"/>
  <outline>
    <contour>
      <point x="105" y="1187" type="curve" smooth="yes"/>
      <point x="442" y="1187"/>
      <point x="724" y="1335"/>
      <point x="855" y="1487" type="curve"/>
      <point x="695" y="1487" type="line"/>
      <point x="608" y="1411"/>
      <point x="358" y="1312"/>
      <point x="125" y="1312" type="curve" smooth="yes"/>
      <point x="-105" y="1312"/>
      <point x="-320" y="1408"/>
      <point x="-387" y="1487" type="curve"/>
      <point x="-547" y="1487" type="line"/>
      <point x="-468" y="1335"/>
      <point x="-230" y="1187"/>
    </contour>
  </outline>
</glyph>
<glyph name="tildedoublecomb" format="2">
  <advance height="2479"/>
  <unicode hex="0360"/>
  <outline>
    <contour>
      <point x="-727" y="1248" type="line"/>
      <point x="-681" y="1329"/>
      <point x="-602" y="1367"/>
      <point x="-506" y="1367" type="curve" smooth="yes"/>
      <point x="-195" y="1367"/>
      <point x="387" y="1265"/>
      <point x="753" y="1265" type="curve" smooth="yes"/>
      <point x="922" y="1265"/>
      <point x="1062" y="1359"/>
      <point x="1103" y="1492" type="curve"/>
      <point x="998" y="1527" type="line"/>
      <point x="960" y="1443"/>
      <point x="873" y="1405"/>
      <point x="777" y="1405" type="curve" smooth="yes"/>
      <point x="480" y="1405"/>
      <point x="-169" y="1510"/>
      <point x="-483" y="1510" type="curve" smooth="yes"/>
      <point x="-655" y="1510"/>
      <point x="-788" y="1396"/>
      <point x="-829" y="1274" type="curve"/>
    </contour>
  </outline>
</glyph>
<glyph name="breveinverteddoublecomb" format="2">
  <advance height="2479"/>
  <unicode hex="0361"/>
  <outline>
    <contour>
      <point x="806" y="1187" type="line"/>
      <point x="721" y="1347"/>
      <point x="477" y="1487"/>
      <point x="154" y="1487" type="curve" smooth="yes"/>
      <point x="-172" y="1487"/>
      <point x="-460" y="1344"/>
      <point x="-596" y="1187" type="curve"/>
      <point x="-436" y="1187" type="line"/>
      <point x="-349" y="1260"/>
      <point x="-105" y="1361"/>
      <point x="134" y="1361" type="curve" smooth="yes"/>
      <point x="372" y="1361"/>
      <point x="582" y="1260"/>
      <point x="646" y="1187" type="curve"/>
    </contour>
  </outline>
</glyph>
<glyph name="ecomb" format="2">
  <advance height="2479"/>
  <unicode hex="0364"/>
  <outline>
    <contour>
      <point x="-442" y="1187" type="curve" smooth="yes"/>
      <point x="-323" y="1187"/>
      <point x="-250" y="1248"/>
      <point x="-209" y="1295" type="curve"/>
      <point x="-268" y="1361" type="line"/>
      <point x="-305" y="1321"/>
      <point x="-346" y="1295"/>
      <point x="-419" y="1295" type="curve" smooth="yes"/>
      <point x="-509" y="1295"/>
      <point x="-550" y="1353"/>
      <point x="-532" y="1455" type="curve" smooth="yes"/>
      <point x="-529" y="1475" type="line" smooth="yes"/>
      <point x="-509" y="1591"/>
      <point x="-460" y="1652"/>
      <point x="-381" y="1652" type="curve" smooth="yes"/>
      <point x="-297" y="1652"/>
      <point x="-273" y="1600"/>
      <point x="-285" y="1530" type="curve" smooth="yes"/>
      <point x="-285" y="1524" type="line"/>
      <point x="-582" y="1524" type="line"/>
      <point x="-596" y="1440" type="line"/>
      <point x="-175" y="1440" type="line"/>
      <point x="-166" y="1487" type="line" smooth="yes"/>
      <point x="-140" y="1641"/>
      <point x="-201" y="1760"/>
      <point x="-364" y="1760" type="curve" smooth="yes"/>
      <point x="-500" y="1760"/>
      <point x="-628" y="1661"/>
      <point x="-660" y="1475" type="curve" smooth="yes"/>
      <point x="-663" y="1455" type="line" smooth="yes"/>
      <point x="-689" y="1300"/>
      <point x="-611" y="1187"/>
    </contour>
  </outline>
</glyph>
<glyph name="ocomb" format="2">
  <advance height="2479"/>
  <unicode hex="0366"/>
  <outline>
    <contour>
      <point x="-457" y="1187" type="curve" smooth="yes"/>
      <point x="-300" y="1187"/>
      <point x="-177" y="1300"/>
      <point x="-148" y="1466" type="curve" smooth="yes"/>
      <point x="-148" y="1478" type="line" smooth="yes"/>
      <point x="-119" y="1647"/>
      <point x="-207" y="1760"/>
      <point x="-364" y="1760" type="curve" smooth="yes"/>
      <point x="-518" y="1760"/>
      <point x="-643" y="1649"/>
      <point x="-672" y="1478" type="curve" smooth="yes"/>
      <point x="-672" y="1466" type="line" smooth="yes"/>
      <point x="-701" y="1297"/>
      <point x="-611" y="1187"/>
    </contour>
    <contour>
      <point x="-439" y="1295" type="curve" smooth="yes"/>
      <point x="-529" y="1295"/>
      <point x="-559" y="1361"/>
      <point x="-541" y="1466" type="curve" smooth="yes"/>
      <point x="-541" y="1478" type="line" smooth="yes"/>
      <point x="-524" y="1585"/>
      <point x="-471" y="1652"/>
      <point x="-381" y="1652" type="curve" smooth="yes"/>
      <point x="-291" y="1652"/>
      <point x="-262" y="1585"/>
      <point x="-279" y="1478" type="curve" smooth="yes"/>
      <point x="-279" y="1466" type="line" smooth="yes"/>
      <point x="-297" y="1361"/>
      <point x="-349" y="1295"/>
    </contour>
  </outline>
</glyph>
<glyph name="mcomb" format="2">
  <advance height="2479"/>
  <unicode hex="036B"/>
  <outline>
    <contour>
      <point x="-657" y="1626" type="line"/>
      <point x="-672" y="1754" type="line"/>
      <point x="-768" y="1754" type="line"/>
      <point x="-858" y="1201" type="line"/>
      <point x="-727" y="1201" type="line"/>
    </contour>
    <contour>
      <point x="-698" y="1492" type="line"/>
      <point x="-681" y="1594"/>
      <point x="-634" y="1652"/>
      <point x="-544" y="1652" type="curve" smooth="yes"/>
      <point x="-477" y="1652"/>
      <point x="-454" y="1612"/>
      <point x="-468" y="1524" type="curve" smooth="yes"/>
      <point x="-521" y="1201" type="line"/>
      <point x="-390" y="1201" type="line"/>
      <point x="-337" y="1524" type="line" smooth="yes"/>
      <point x="-311" y="1690"/>
      <point x="-372" y="1760"/>
      <point x="-492" y="1760" type="curve" smooth="yes"/>
      <point x="-640" y="1760"/>
      <point x="-719" y="1647"/>
      <point x="-745" y="1492" type="curve"/>
    </contour>
    <contour>
      <point x="-361" y="1492" type="line"/>
      <point x="-343" y="1594"/>
      <point x="-297" y="1652"/>
      <point x="-207" y="1652" type="curve" smooth="yes"/>
      <point x="-140" y="1652"/>
      <point x="-119" y="1612"/>
      <point x="-134" y="1524" type="curve" smooth="yes"/>
      <point x="-186" y="1201" type="line"/>
      <point x="-52" y="1201" type="line"/>
      <point x="0" y="1524" type="line" smooth="yes"/>
      <point x="26" y="1690"/>
      <point x="-35" y="1760"/>
      <point x="-154" y="1760" type="curve" smooth="yes"/>
      <point x="-305" y="1760"/>
      <point x="-381" y="1644"/>
      <point x="-407" y="1492" type="curve"/>
    </contour>
  </outline>
</glyph>
<glyph name="lowernumeral-greek" format="2">
  <advance height="2479" width="547"/>
  <unicode hex="0375"/>
  <outline>
    <contour>
      <point x="326" y="-64" type="line"/>
      <point x="207" y="-64" type="line"/>
      <point x="-41" y="-416" type="line"/>
      <point x="143" y="-416" type="line"/>
    </contour>
  </outline>
</glyph>
<glyph name="pamphyliandigamma" format="2">
  <advance height="2479" width="1292"/>
  <unicode hex="0377"/>
  <outline>
    <contour>
      <point x="249" y="0" type="line"/>
      <point x="1028" y="1021" type="line"/>
      <point x="913" y="1117" type="line"/>
      <point x="131" y="96" type="line"/>
    </contour>
    <contour>
      <point x="51" y="0" type="line"/>
      <point x="249" y="0" type="line"/>
      <point x="433" y="1117" type="line"/>
      <point x="236" y="1117" type="line"/>
    </contour>
    <contour>
      <point x="928" y="-20" type="curve" smooth="yes"/>
      <point x="972" y="-20"/>
      <point x="1014" y="-17"/>
      <point x="1062" y="15" type="curve"/>
      <point x="1060" y="160" type="line"/>
      <point x="1054" y="157"/>
      <point x="1042" y="154"/>
      <point x="1030" y="154" type="curve" smooth="yes"/>
      <point x="990" y="154"/>
      <point x="959" y="180"/>
      <point x="979" y="300" type="curve" smooth="yes"/>
      <point x="1114" y="1117" type="line"/>
      <point x="913" y="1117" type="line"/>
      <point x="778" y="300" type="line" smooth="yes"/>
      <point x="740" y="70"/>
      <point x="801" y="-20"/>
    </contour>
  </outline>
</glyph>
<glyph name="sigmaLunateReversedSymbol" format="2">
  <advance height="2479" width="1105"/>
  <unicode hex="037B"/>
  <outline>
    <contour>
      <point x="58" y="343" type="line"/>
      <point x="39" y="154"/>
      <point x="187" y="-20"/>
      <point x="441" y="-20" type="curve" smooth="yes"/>
      <point x="748" y="-20"/>
      <point x="959" y="233"/>
      <point x="1007" y="521" type="curve" smooth="yes"/>
      <point x="1015" y="576" type="line" smooth="yes"/>
      <point x="1066" y="879"/>
      <point x="948" y="1132"/>
      <point x="627" y="1132" type="curve" smooth="yes"/>
      <point x="360" y="1132"/>
      <point x="171" y="957"/>
      <point x="119" y="710" type="curve"/>
      <point x="308" y="710" type="line"/>
      <point x="345" y="864"/>
      <point x="443" y="972"/>
      <point x="599" y="972" type="curve" smooth="yes"/>
      <point x="812" y="972"/>
      <point x="851" y="774"/>
      <point x="817" y="576" type="curve" smooth="yes"/>
      <point x="809" y="521" type="line" smooth="yes"/>
      <point x="778" y="337"/>
      <point x="679" y="140"/>
      <point x="467" y="140" type="curve" smooth="yes"/>
      <point x="324" y="140"/>
      <point x="240" y="230"/>
      <point x="247" y="343" type="curve"/>
    </contour>
  </outline>
</glyph>
<glyph name="dieresistonos" format="2">
  <advance height="2479" width="1105"/>
  <unicode hex="0385"/>
  <anchor x="678" y="1292" name="_top"/>
  <outline>
    <contour>
      <point x="614" y="1408" type="line"/>
      <point x="759" y="1408" type="line"/>
      <point x="911" y="1676" type="line"/>
      <point x="713" y="1676" type="line"/>
    </contour>
    <contour>
      <point x="282" y="1367" type="curve" smooth="yes"/>
      <point x="273" y="1306"/>
      <point x="303" y="1260"/>
      <point x="378" y="1260" type="curve" smooth="yes"/>
      <point x="454" y="1260"/>
      <point x="503" y="1306"/>
      <point x="512" y="1367" type="curve" smooth="yes"/>
      <point x="521" y="1428"/>
      <point x="489" y="1478"/>
      <point x="413" y="1478" type="curve" smooth="yes"/>
      <point x="337" y="1478"/>
      <point x="291" y="1428"/>
    </contour>
    <contour>
      <point x="861" y="1364" type="curve" smooth="yes"/>
      <point x="849" y="1303"/>
      <point x="884" y="1257"/>
      <point x="960" y="1257" type="curve" smooth="yes"/>
      <point x="1036" y="1257"/>
      <point x="1082" y="1303"/>
      <point x="1094" y="1364" type="curve" smooth="yes"/>
      <point x="1103" y="1428"/>
      <point x="1071" y="1478"/>
      <point x="995" y="1478" type="curve" smooth="yes"/>
      <point x="919" y="1478"/>
      <point x="870" y="1428"/>
    </contour>
  </outline>
</glyph>
<glyph name="Gamma" format="2">
  <advance height="2479" width="1178"/>
  <unicode hex="0393"/>
  <anchor x="305" y="768" name="cross"/>
  <anchor x="361" y="64" name="cyrtic"/>
  <anchor x="256" y="0" name="right"/>
  <anchor x="817" y="1676" name="top"/>
  <outline>
    <contour>
      <point x="1233" y="1489" type="line"/>
      <point x="335" y="1489" type="line"/>
      <point x="87" y="0" type="line"/>
      <point x="268" y="0" type="line"/>
      <point x="489" y="1329" type="line"/>
      <point x="1207" y="1329" type="line"/>
    </contour>
  </outline>
</glyph>
<glyph name="Theta" format="2">
  <advance height="2479" width="1559"/>
  <unicode hex="0398"/>
  <anchor x="698" y="6" name="bottom"/>
  <anchor x="841" y="0" name="ogonek"/>
  <anchor x="329" y="1489" name="tonos"/>
  <anchor x="963" y="1676" name="top"/>
  <outline>
    <contour>
      <point x="1137" y="825" type="line"/>
      <point x="509" y="825" type="line"/>
      <point x="483" y="665" type="line"/>
      <point x="1111" y="665" type="line"/>
    </contour>
    <component base="O"/>
  </outline>
</glyph>
<glyph name="Pi" format="2">
  <advance height="2479" width="1478"/>
  <unicode hex="03A0"/>
  <anchor x="1199" y="0" name="right"/>
  <outline>
    <contour>
      <point x="1449" y="1489" type="line"/>
      <point x="337" y="1489" type="line"/>
      <point x="90" y="0" type="line"/>
      <point x="271" y="0" type="line"/>
      <point x="492" y="1329" type="line"/>
      <point x="1242" y="1329" type="line"/>
      <point x="1021" y="0" type="line"/>
      <point x="1201" y="0" type="line"/>
    </contour>
  </outline>
</glyph>
